<svg width="393" height="143" viewBox="0 0 393 143" fill="none" xmlns="http://www.w3.org/2000/svg">
<g clip-path="url(#clip0_560_7179)">
<rect y="-12" width="393" height="155" fill="#7000FF"/>
<g opacity="0.4">
<path d="M109.615 42.0039L102.481 38.5101L96.3997 50.9279C95.714 52.3279 94.74 52.5885 93.2108 51.8396L65.9932 38.5095C64.0323 37.4391 61.7341 37.1584 59.5483 37.7223C58.5019 38.0567 57.536 38.6185 56.7184 39.3681C55.9008 40.1178 55.2515 41.0372 54.8162 42.0615L54.7339 42.2295L54.4404 42.0857L54.5158 41.9317C55.0576 40.9559 55.3828 39.8748 55.4679 38.7658C55.5531 37.6567 55.3963 36.5471 55.0086 35.5163C54.1171 33.4416 52.4853 31.797 50.4354 30.9072L23.1974 17.5671C21.6682 16.8182 21.2872 15.8678 21.9626 14.4889L27.3016 3.58755L20.1679 0.0937018L13.6666 13.368C13.1523 14.3687 12.8418 15.4613 12.7541 16.5792C12.6665 17.697 12.8034 18.8168 13.1566 19.8704C13.5077 20.94 14.0712 21.9214 14.8128 22.7546C15.5543 23.5878 16.4584 24.2554 17.4697 24.7166L46.3871 38.8793C49.1178 40.2166 49.7019 42.2384 48.1969 45.3114L44.0829 53.7113L51.8447 57.5127L55.9587 49.1128C57.4534 46.0609 59.4191 45.2618 62.1429 46.5958L91.0671 60.7618C92.0515 61.278 93.1332 61.5829 94.2461 61.6579C95.359 61.733 96.4798 61.5765 97.54 61.1981C98.5889 60.8312 99.5575 60.2529 100.387 59.4983C101.216 58.7437 101.889 57.8286 102.364 56.8087L109.615 42.0039Z" fill="#5F01D6"/>
<path d="M114.086 32.8867L106.952 29.3929L113.034 16.9751C113.72 15.5751 113.328 14.6458 111.799 13.8969L84.5816 0.566741C82.5338 -0.326238 80.903 -1.96982 80.0084 -4.04235C79.6311 -5.07395 79.4827 -6.18149 79.5738 -7.28701C79.6648 -8.39253 79.993 -9.46914 80.5353 -10.441L80.6176 -10.609L80.3241 -10.7528L80.2486 -10.5988C79.8099 -9.5725 79.1552 -8.65284 78.3312 -7.90562C77.5073 -7.15839 76.5345 -6.60203 75.4824 -6.27636C73.2968 -5.70867 70.9972 -5.98954 69.0375 -7.06352L41.7994 -20.4037C40.2703 -21.1526 39.2859 -20.8709 38.6105 -19.4919L33.2715 -8.59064L26.1377 -12.0845L32.639 -25.3588C33.1142 -26.3787 33.787 -27.2937 34.6164 -28.0484C35.4458 -28.803 36.4144 -29.3813 37.4633 -29.7482C38.5236 -30.1266 39.6444 -30.283 40.7573 -30.208C41.8702 -30.133 42.9519 -29.8281 43.9362 -29.3118L72.8536 -15.1492C75.5843 -13.8119 77.5397 -14.59 79.0447 -17.6629L83.1586 -26.0628L90.9204 -22.2613L86.8065 -13.8615C85.3118 -10.8095 85.8856 -8.76669 88.6094 -7.43268L117.534 6.73328C118.545 7.19449 119.449 7.8621 120.191 8.69533C120.932 9.52856 121.496 10.5099 121.847 11.5795C122.2 12.6331 122.337 13.7529 122.249 14.8708C122.162 15.9886 121.851 17.0812 121.337 18.0819L114.086 32.8867Z" fill="#5F01D6"/>
<path d="M316.09 143.129L308.956 139.635L302.874 152.053C302.189 153.453 301.215 153.713 299.685 152.965L272.468 139.634C270.507 138.564 268.209 138.283 266.023 138.847C264.977 139.182 264.011 139.743 263.193 140.493C262.375 141.243 261.726 142.162 261.291 143.186L261.209 143.354L260.915 143.211L260.99 143.057C261.532 142.081 261.857 141 261.943 139.891C262.028 138.782 261.871 137.672 261.483 136.641C260.592 134.567 258.96 132.922 256.91 132.032L229.672 118.692C228.143 117.943 227.762 116.993 228.437 115.614L233.776 104.713L226.642 101.219L220.141 114.493C219.627 115.494 219.316 116.586 219.229 117.704C219.141 118.822 219.278 119.942 219.631 120.995C219.982 122.065 220.546 123.046 221.287 123.88C222.029 124.713 222.933 125.38 223.944 125.842L252.862 140.004C255.592 141.342 256.176 143.363 254.671 146.436L250.558 154.836L258.319 158.638L262.433 150.238C263.928 147.186 265.894 146.387 268.617 147.721L297.542 161.887C298.526 162.403 299.608 162.708 300.721 162.783C301.834 162.858 302.954 162.701 304.015 162.323C305.064 161.956 306.032 161.378 306.862 160.623C307.691 159.869 308.364 158.954 308.839 157.934L316.09 143.129Z" fill="#5F01D6"/>
<path d="M320.561 134.012L313.427 130.518L319.509 118.1C320.194 116.7 319.803 115.771 318.274 115.022L291.056 101.692C289.008 100.799 287.378 99.1552 286.483 97.0826C286.106 96.0511 285.957 94.9435 286.048 93.838C286.139 92.7325 286.468 91.6559 287.01 90.684L287.092 90.516L286.799 90.3722L286.723 90.5262C286.285 91.5525 285.63 92.4722 284.806 93.2194C283.982 93.9666 283.009 94.523 281.957 94.8486C279.771 95.4163 277.472 95.1355 275.512 94.0615L248.274 80.7213C246.745 79.9724 245.761 80.2541 245.085 81.6331L239.746 92.5344L232.612 89.0405L239.114 75.7662C239.589 74.7463 240.262 73.8313 241.091 73.0766C241.92 72.322 242.889 71.7437 243.938 71.3768C244.998 70.9984 246.119 70.842 247.232 70.917C248.345 70.992 249.426 71.2969 250.411 71.8132L279.328 85.9758C282.059 87.3131 284.014 86.535 285.519 83.4621L289.633 75.0622L297.395 78.8637L293.281 87.2635C291.786 90.3155 292.36 92.3583 295.084 93.6923L324.008 107.858C325.02 108.319 325.924 108.987 326.665 109.82C327.407 110.654 327.97 111.635 328.321 112.705C328.675 113.758 328.811 114.878 328.724 115.996C328.636 117.114 328.326 118.206 327.811 119.207L320.561 134.012Z" fill="#5F01D6"/>
<path d="M423.797 184.574L416.663 181.08L422.745 168.663C423.43 167.263 423.039 166.333 421.51 165.584L394.292 152.254C392.245 151.361 390.614 149.718 389.719 147.645C389.342 146.614 389.194 145.506 389.285 144.4C389.376 143.295 389.704 142.218 390.246 141.246L390.329 141.078L390.035 140.935L389.96 141.089C389.521 142.115 388.866 143.035 388.042 143.782C387.218 144.529 386.245 145.085 385.193 145.411C383.008 145.979 380.708 145.698 378.748 144.624L351.51 131.284C349.981 130.535 348.997 130.817 348.321 132.196L342.982 143.097L335.849 139.603L342.35 126.329C342.825 125.309 343.498 124.394 344.327 123.639C345.157 122.885 346.125 122.306 347.174 121.939C348.235 121.561 349.355 121.404 350.468 121.479C351.581 121.555 352.663 121.859 353.647 122.376L382.565 136.538C385.295 137.876 387.251 137.098 388.756 134.025L392.87 125.625L400.631 129.426L396.517 137.826C395.023 140.878 395.597 142.921 398.32 144.255L427.245 158.421C428.256 158.882 429.16 159.55 429.902 160.383C430.643 161.216 431.207 162.197 431.558 163.267C431.911 164.321 432.048 165.44 431.96 166.558C431.872 167.676 431.562 168.769 431.048 169.769L423.797 184.574Z" fill="#5F01D6"/>
<path d="M212.853 92.5742L205.72 89.0804L199.638 101.498C198.952 102.898 197.978 103.159 196.449 102.41L169.232 89.0798C167.271 88.0094 164.972 87.7288 162.787 88.2926C161.74 88.627 160.774 89.1888 159.957 89.9385C159.139 90.6881 158.49 91.6075 158.054 92.6318L157.972 92.7998L157.679 92.656L157.754 92.502C158.296 91.5262 158.621 90.4451 158.706 89.3361C158.791 88.227 158.635 87.1174 158.247 86.0866C157.355 84.0119 155.724 82.3673 153.674 81.4775L126.436 68.1374C124.906 67.3885 124.526 66.4381 125.201 65.0592L130.54 54.1579L123.406 50.664L116.905 63.9383C116.391 64.939 116.08 66.0316 115.992 67.1495C115.905 68.2673 116.042 69.3872 116.395 70.4407C116.746 71.5103 117.309 72.4917 118.051 73.3249C118.793 74.1581 119.697 74.8257 120.708 75.287L149.625 89.4496C152.356 90.7869 152.94 92.8088 151.435 95.8817L147.321 104.282L155.083 108.083L159.197 99.6832C160.692 96.6312 162.657 95.8321 165.381 97.1661L194.305 111.332C195.29 111.848 196.371 112.153 197.484 112.228C198.597 112.303 199.718 112.147 200.778 111.768C201.827 111.402 202.796 110.823 203.625 110.069C204.455 109.314 205.127 108.399 205.603 107.379L212.853 92.5742Z" fill="#5F01D6"/>
<path d="M217.324 83.457L210.19 79.9632L216.272 67.5454C216.958 66.1454 216.567 65.2161 215.037 64.4672L187.82 51.1371C185.772 50.2441 184.141 48.6005 183.247 46.528C182.869 45.4964 182.721 44.3888 182.812 43.2833C182.903 42.1778 183.231 41.1012 183.774 40.1293L183.856 39.9613L183.562 39.8175L183.487 39.9715C183.048 40.9978 182.393 41.9175 181.57 42.6647C180.746 43.4119 179.773 43.9683 178.721 44.294C176.535 44.8616 174.235 44.5808 172.276 43.5068L145.038 30.1667C143.509 29.4177 142.524 29.6994 141.849 31.0784L136.51 41.9797L129.376 38.4858L135.877 25.2115C136.353 24.1917 137.025 23.2766 137.855 22.522C138.684 21.7673 139.653 21.189 140.702 20.8221C141.762 20.4437 142.883 20.2873 143.996 20.3623C145.108 20.4373 146.19 20.7422 147.175 21.2585L176.092 35.4211C178.823 36.7584 180.778 35.9803 182.283 32.9074L186.397 24.5075L194.159 28.309L190.045 36.7088C188.55 39.7608 189.124 41.8036 191.848 43.1376L220.772 57.3036C221.783 57.7648 222.687 58.4324 223.429 59.2656C224.17 60.0989 224.734 61.0802 225.085 62.1498C225.438 63.2034 225.575 64.3232 225.487 65.4411C225.4 66.559 225.089 67.6515 224.575 68.6523L217.324 83.457Z" fill="#5F01D6"/>
<path d="M22.0957 220.723L14.9619 217.229L21.0437 204.811C21.7293 203.411 21.3381 202.482 19.8089 201.733L-7.40868 188.403C-9.45646 187.51 -11.0872 185.866 -11.9818 183.794C-12.3591 182.762 -12.5075 181.654 -12.4165 180.549C-12.3255 179.443 -11.9972 178.367 -11.4549 177.395L-11.3726 177.227L-11.6662 177.083L-11.7416 177.237C-12.1803 178.263 -12.8351 179.183 -13.659 179.93C-14.483 180.678 -15.4557 181.234 -16.5078 181.56C-18.6934 182.127 -20.993 181.846 -22.9528 180.772L-50.1908 167.432C-51.72 166.683 -52.7043 166.965 -53.3797 168.344L-58.7187 179.245L-65.8525 175.751L-59.3513 162.477C-58.876 161.457 -58.2032 160.542 -57.3738 159.788C-56.5444 159.033 -55.5758 158.455 -54.5269 158.088C-53.4667 157.709 -52.3459 157.553 -51.233 157.628C-50.1201 157.703 -49.0384 158.008 -48.054 158.524L-19.1366 172.687C-16.406 174.024 -14.4506 173.246 -12.9456 170.173L-8.83163 161.773L-1.06981 165.575L-5.18373 173.974C-6.67846 177.026 -6.10465 179.069 -3.38084 180.403L25.5434 194.569C26.5547 195.03 27.4588 195.698 28.2003 196.531C28.9419 197.365 29.5054 198.346 29.8565 199.415C30.2097 200.469 30.3467 201.589 30.259 202.707C30.1713 203.825 29.8608 204.917 29.3465 205.918L22.0957 220.723Z" fill="#5F01D6"/>
<path d="M413.703 74.4961L406.569 71.0022L400.488 83.4201C399.802 84.82 398.828 85.0807 397.299 84.3318L370.081 71.0016C368.12 69.9313 365.822 69.6506 363.636 70.2145C362.59 70.5488 361.624 71.1106 360.806 71.8603C359.989 72.61 359.339 73.5294 358.904 74.5537L358.822 74.7217L358.528 74.5779L358.604 74.4239C359.146 73.4481 359.471 72.367 359.556 71.258C359.641 70.1489 359.484 69.0393 359.096 68.0085C358.205 65.9337 356.573 64.2892 354.523 63.3994L327.285 50.0593C325.756 49.3104 325.375 48.36 326.05 46.981L331.39 36.0797L324.256 32.5859L317.755 45.8602C317.24 46.8609 316.93 47.9535 316.842 49.0713C316.754 50.1892 316.891 51.309 317.245 52.3626C317.596 53.4322 318.159 54.4135 318.901 55.2468C319.642 56.08 320.546 56.7476 321.558 57.2088L350.475 71.3714C353.206 72.7088 353.79 74.7306 352.285 77.8036L348.171 86.2035L355.933 90.0049L360.047 81.605C361.541 78.5531 363.507 77.754 366.231 79.088L395.155 93.2539C396.139 93.7702 397.221 94.0751 398.334 94.1501C399.447 94.2251 400.568 94.0687 401.628 93.6903C402.677 93.3234 403.645 92.7451 404.475 91.9905C405.304 91.2359 405.977 90.3208 406.452 89.3009L413.703 74.4961Z" fill="#5F01D6"/>
<path d="M418.174 65.3789L411.04 61.8851L417.122 49.4672C417.807 48.0673 417.416 47.138 415.887 46.389L388.669 33.0589C386.622 32.1659 384.991 30.5224 384.096 28.4498C383.719 27.4182 383.571 26.3107 383.662 25.2052C383.753 24.0997 384.081 23.023 384.623 22.0511L384.705 21.8832L384.412 21.7394L384.337 21.8934C383.898 22.9197 383.243 23.8393 382.419 24.5866C381.595 25.3338 380.622 25.8902 379.57 26.2158C377.385 26.7835 375.085 26.5026 373.125 25.4287L345.887 12.0885C344.358 11.3396 343.374 11.6213 342.698 13.0002L337.359 23.9015L330.226 20.4077L336.727 7.13342C337.202 6.11353 337.875 5.19844 338.704 4.44383C339.534 3.68922 340.502 3.11087 341.551 2.74402C342.611 2.36562 343.732 2.20915 344.845 2.28417C345.958 2.35919 347.04 2.66412 348.024 3.18034L376.942 17.343C379.672 18.6803 381.628 17.9022 383.133 14.8293L387.246 6.4294L395.008 10.2308L390.894 18.6307C389.4 21.6827 389.973 23.7255 392.697 25.0595L421.622 39.2255C422.633 39.6867 423.537 40.3543 424.278 41.1875C425.02 42.0208 425.584 43.0021 425.935 44.0717C426.288 45.1253 426.425 46.2451 426.337 47.363C426.249 48.4808 425.939 49.5734 425.425 50.5741L418.174 65.3789Z" fill="#5F01D6"/>
<path d="M207.232 -26.6289L200.099 -30.1228L194.017 -17.7049C193.331 -16.305 192.357 -16.0443 190.828 -16.7932L163.61 -30.1234C161.649 -31.1937 159.351 -31.4744 157.165 -30.9105C156.119 -30.5762 155.153 -30.0144 154.336 -29.2647C153.518 -28.515 152.869 -27.5956 152.433 -26.5713L152.351 -26.4033L152.058 -26.5471L152.133 -26.7011C152.675 -27.6769 153 -28.758 153.085 -29.867C153.17 -30.9761 153.013 -32.0857 152.626 -33.1165C151.734 -35.1913 150.103 -36.8358 148.053 -37.7256L120.815 -51.0657C119.285 -51.8146 118.904 -52.765 119.58 -54.144L124.919 -65.0453L117.785 -68.5391L111.284 -55.2648C110.769 -54.2641 110.459 -53.1715 110.371 -52.0537C110.284 -50.9358 110.421 -49.816 110.774 -48.7624C111.125 -47.6928 111.688 -46.7115 112.43 -45.8782C113.172 -45.045 114.076 -44.3774 115.087 -43.9162L144.004 -29.7536C146.735 -28.4162 147.319 -26.3944 145.814 -23.3214L141.7 -14.9215L149.462 -11.1201L153.576 -19.52C155.071 -22.5719 157.036 -23.371 159.76 -22.037L188.684 -7.87105C189.669 -7.35482 190.75 -7.04989 191.863 -6.97487C192.976 -6.89985 194.097 -7.05632 195.157 -7.43472C196.206 -7.80158 197.175 -8.37992 198.004 -9.13453C198.834 -9.88914 199.506 -10.8042 199.982 -11.8241L207.232 -26.6289Z" fill="#5F01D6"/>
<path d="M310.467 23.9414L303.333 20.4476L297.251 32.8654C296.566 34.2654 295.592 34.526 294.062 33.7771L266.845 20.447C264.884 19.3766 262.586 19.0959 260.4 19.6598C259.354 19.9942 258.388 20.556 257.57 21.3056C256.752 22.0553 256.103 22.9747 255.668 23.999L255.585 24.167L255.292 24.0232L255.367 23.8692C255.909 22.8934 256.234 21.8123 256.32 20.7033C256.405 19.5942 256.248 18.4846 255.86 17.4538C254.969 15.3791 253.337 13.7345 251.287 12.8447L224.049 -0.495416C222.52 -1.24434 222.139 -2.19467 222.814 -3.57365L228.153 -14.475L221.019 -17.9688L214.518 -4.69452C214.004 -3.69377 213.693 -2.60122 213.606 -1.48334C213.518 -0.365469 213.655 0.754342 214.008 1.8079C214.359 2.87749 214.923 3.85886 215.664 4.69209C216.406 5.52533 217.31 6.19293 218.321 6.65414L247.239 20.8168C249.969 22.1541 250.553 24.1759 249.048 27.2489L244.934 35.6488L252.696 39.4502L256.81 31.0503C258.305 27.9984 260.271 27.1993 262.994 28.5333L291.919 42.6993C292.903 43.2155 293.985 43.5204 295.098 43.5954C296.211 43.6705 297.331 43.514 298.392 43.1356C299.44 42.7687 300.409 42.1904 301.238 41.4358C302.068 40.6812 302.741 39.7661 303.216 38.7462L310.467 23.9414Z" fill="#5F01D6"/>
<path d="M314.937 14.8242L307.804 11.3304L313.885 -1.08744C314.571 -2.48742 314.18 -3.41673 312.651 -4.16565L285.433 -17.4958C283.385 -18.3887 281.755 -20.0323 280.86 -22.1049C280.483 -23.1364 280.334 -24.244 280.425 -25.3495C280.516 -26.455 280.845 -27.5316 281.387 -28.5035L281.469 -28.6715L281.176 -28.8153L281.1 -28.6613C280.661 -27.635 280.007 -26.7153 279.183 -25.9681C278.359 -25.2209 277.386 -24.6645 276.334 -24.3389C274.148 -23.7712 271.849 -24.052 269.889 -25.126L242.651 -38.4662C241.122 -39.2151 240.137 -38.9334 239.462 -37.5544L234.123 -26.6531L226.989 -30.147L233.491 -43.4213C233.966 -44.4412 234.639 -45.3562 235.468 -46.1109C236.297 -46.8655 237.266 -47.4438 238.315 -47.8107C239.375 -48.1891 240.496 -48.3455 241.609 -48.2705C242.722 -48.1955 243.803 -47.8906 244.788 -47.3743L273.705 -33.2117C276.436 -31.8744 278.391 -32.6525 279.896 -35.7254L284.01 -44.1253L291.772 -40.3238L287.658 -31.924C286.163 -28.872 286.737 -26.8292 289.461 -25.4952L318.385 -11.3292C319.397 -10.868 320.301 -10.2004 321.042 -9.36717C321.784 -8.53394 322.347 -7.55257 322.698 -6.48298C323.052 -5.42942 323.188 -4.30961 323.101 -3.19173C323.013 -2.07386 322.703 -0.981309 322.188 0.0194451L314.937 14.8242Z" fill="#5F01D6"/>
<path d="M115.238 161.215L108.104 157.721L102.023 170.139C101.337 171.539 100.363 171.799 98.8339 171.051L71.6163 157.72C69.6554 156.65 67.3571 156.369 65.1713 156.933C64.125 157.268 63.159 157.829 62.3415 158.579C61.5239 159.329 60.8746 160.248 60.4392 161.272L60.357 161.44L60.0634 161.297L60.1388 161.143C60.6807 160.167 61.0058 159.086 61.091 157.977C61.1762 156.868 61.0193 155.758 60.6316 154.727C59.7401 152.652 58.1084 151.008 56.0585 150.118L28.8204 136.778C27.2913 136.029 26.9103 135.079 27.5857 133.7L32.9247 122.798L25.7909 119.305L19.2897 132.579C18.7753 133.58 18.4649 134.672 18.3772 135.79C18.2895 136.908 18.4265 138.028 18.7797 139.081C19.1307 140.151 19.6943 141.132 20.4358 141.966C21.1774 142.799 22.0814 143.466 23.0928 143.928L52.0102 158.09C54.7408 159.428 55.3249 161.449 53.8199 164.522L49.706 172.922L57.4678 176.724L61.5817 168.324C63.0764 165.272 65.0421 164.473 67.7659 165.807L96.6901 179.973C97.6745 180.489 98.7562 180.794 99.8691 180.869C100.982 180.944 102.103 180.787 103.163 180.409C104.212 180.042 105.181 179.464 106.01 178.709C106.839 177.955 107.512 177.04 107.987 176.02L115.238 161.215Z" fill="#5F01D6"/>
<path d="M119.709 152.098L112.575 148.604L118.657 136.186C119.343 134.786 118.951 133.857 117.422 133.108L90.2046 119.778C88.1568 118.885 86.5261 117.241 85.6315 115.169C85.2541 114.137 85.1058 113.029 85.1968 111.924C85.2878 110.818 85.6161 109.742 86.1584 108.77L86.2407 108.602L85.9471 108.458L85.8717 108.612C85.433 109.638 84.7782 110.558 83.9543 111.305C83.1303 112.053 82.1575 112.609 81.1055 112.935C78.9198 113.502 76.6202 113.221 74.6605 112.147L47.4225 98.8073C45.8933 98.0584 44.909 98.34 44.2336 99.719L38.8946 110.62L31.7608 107.126L38.262 93.8522C38.7373 92.8323 39.4101 91.9172 40.2395 91.1626C41.0689 90.408 42.0375 89.8296 43.0864 89.4628C44.1466 89.0844 45.2674 88.9279 46.3803 89.0029C47.4932 89.0779 48.5749 89.3829 49.5593 89.8991L78.4767 104.062C81.2073 105.399 83.1627 104.621 84.6677 101.548L88.7817 93.1482L96.5435 96.9496L92.4295 105.349C90.9348 108.401 91.5086 110.444 94.2324 111.778L123.157 125.944C124.168 126.405 125.072 127.073 125.814 127.906C126.555 128.74 127.119 129.721 127.47 130.79C127.823 131.844 127.96 132.964 127.872 134.082C127.785 135.2 127.474 136.292 126.96 137.293L119.709 152.098Z" fill="#5F01D6"/>
<path d="M222.941 202.652L215.808 199.158L221.889 186.741C222.575 185.341 222.184 184.411 220.655 183.662L193.437 170.332C191.389 169.439 189.758 167.796 188.864 165.723C188.487 164.692 188.338 163.584 188.429 162.479C188.52 161.373 188.848 160.296 189.391 159.325L189.473 159.157L189.18 159.013L189.104 159.167C188.665 160.193 188.011 161.113 187.187 161.86C186.363 162.607 185.39 163.164 184.338 163.489C182.152 164.057 179.853 163.776 177.893 162.702L150.655 149.362C149.126 148.613 148.141 148.895 147.466 150.274L142.127 161.175L134.993 157.681L141.494 144.407C141.97 143.387 142.643 142.472 143.472 141.717C144.301 140.963 145.27 140.384 146.319 140.017C147.379 139.639 148.5 139.483 149.613 139.558C150.726 139.633 151.807 139.938 152.792 140.454L181.709 154.616C184.44 155.954 186.395 155.176 187.9 152.103L192.014 143.703L199.776 147.504L195.662 155.904C194.167 158.956 194.741 160.999 197.465 162.333L226.389 176.499C227.4 176.96 228.304 177.628 229.046 178.461C229.788 179.294 230.351 180.276 230.702 181.345C231.055 182.399 231.192 183.519 231.105 184.636C231.017 185.754 230.707 186.847 230.192 187.848L222.941 202.652Z" fill="#5F01D6"/>
<path d="M12 110.645L4.8662 107.151L-1.21557 119.569C-1.90122 120.968 -2.87527 121.229 -4.40442 120.48L-31.622 107.15C-33.5829 106.08 -35.8812 105.799 -38.067 106.363C-39.1133 106.697 -40.0792 107.259 -40.8968 108.009C-41.7144 108.758 -42.3637 109.678 -42.7991 110.702L-42.8813 110.87L-43.1749 110.726L-43.0994 110.572C-42.5576 109.597 -42.2325 108.515 -42.1473 107.406C-42.0621 106.297 -42.219 105.188 -42.6067 104.157C-43.4982 102.082 -45.1299 100.438 -47.1798 99.5478L-74.4179 86.2077C-75.947 85.4588 -76.328 84.5085 -75.6526 83.1295L-70.3136 72.2282L-77.4474 68.7343L-83.9486 82.0086C-84.463 83.0094 -84.7734 84.1019 -84.8611 85.2198C-84.9488 86.3377 -84.8118 87.4575 -84.4586 88.511C-84.1075 89.5806 -83.544 90.562 -82.8025 91.3952C-82.0609 92.2285 -81.1568 92.8961 -80.1455 93.3573L-51.2281 107.52C-48.4975 108.857 -47.9134 110.879 -49.4184 113.952L-53.5323 122.352L-45.7705 126.153L-41.6566 117.753C-40.1618 114.702 -38.1962 113.902 -35.4724 115.236L-6.54813 129.402C-5.56373 129.919 -4.48204 130.224 -3.36913 130.299C-2.25622 130.374 -1.13544 130.217 -0.075221 129.839C0.973675 129.472 1.94231 128.894 2.7717 128.139C3.60109 127.384 4.2739 126.469 4.74918 125.449L12 110.645Z" fill="#5F01D6"/>
<path d="M16.4707 101.527L9.3369 98.0335L15.4187 85.6157C16.1043 84.2157 15.7131 83.2864 14.1839 82.5375L-13.0337 69.2074C-15.0815 68.3144 -16.7122 66.6708 -17.6068 64.5983C-17.9841 63.5667 -18.1325 62.4591 -18.0415 61.3536C-17.9505 60.2481 -17.6222 59.1715 -17.0799 58.1996L-16.9976 58.0316L-17.2912 57.8878L-17.3666 58.0418C-17.8053 59.0681 -18.4601 59.9878 -19.284 60.735C-20.108 61.4822 -21.0807 62.0386 -22.1328 62.3643C-24.3184 62.932 -26.618 62.6511 -28.5778 61.5771L-55.8158 48.237C-57.345 47.488 -58.3293 47.7697 -59.0047 49.1487L-64.3437 60.05L-71.4775 56.5561L-64.9763 43.2819C-64.501 42.262 -63.8282 41.3469 -62.9988 40.5923C-62.1694 39.8377 -61.2008 39.2593 -60.1519 38.8925C-59.0917 38.5141 -57.9709 38.3576 -56.858 38.4326C-55.7451 38.5076 -54.6634 38.8126 -53.679 39.3288L-24.7616 53.4914C-22.031 54.8288 -20.0756 54.0507 -18.5706 50.9777L-14.4566 42.5778L-6.69481 46.3793L-10.8087 54.7791C-12.3035 57.8311 -11.7297 59.8739 -9.00584 61.2079L19.9184 75.3739C20.9297 75.8351 21.8338 76.5027 22.5753 77.336C23.3169 78.1692 23.8804 79.1506 24.2315 80.2201C24.5847 81.2737 24.7217 82.3935 24.634 83.5114C24.5463 84.6293 24.2358 85.7218 23.7215 86.7226L16.4707 101.527Z" fill="#5F01D6"/>
</g>
</g>
<defs>
<clipPath id="clip0_560_7179">
<rect width="393" height="143" fill="white"/>
</clipPath>
</defs>
</svg>
