<svg width="222" height="182" viewBox="0 0 222 182" fill="none" xmlns="http://www.w3.org/2000/svg">
    <path d="M209.244 107.391C209.082 107.391 208.893 107.364 208.73 107.283C208.162 107.014 207.919 106.313 208.216 105.748C208.514 105.128 209.217 104.886 209.785 105.155C210.353 105.424 210.596 106.125 210.326 106.69C210.082 107.175 209.677 107.418 209.244 107.418V107.391ZM210.894 103.404C210.894 103.404 210.623 103.404 210.488 103.323C209.893 103.108 209.596 102.435 209.812 101.842C210.055 101.196 210.705 100.872 211.299 101.088C211.894 101.303 212.219 101.95 212.003 102.542C211.813 103.081 211.354 103.377 210.894 103.377V103.404ZM212.246 99.3371C212.246 99.3371 212.03 99.3371 211.922 99.2832C211.299 99.0947 210.975 98.4482 211.137 97.8557C211.327 97.1823 211.976 96.8321 212.571 97.0207C213.193 97.2092 213.544 97.8287 213.355 98.4482C213.193 99.0139 212.733 99.3371 212.219 99.3371H212.246ZM213.355 95.1891C213.355 95.1891 213.166 95.1891 213.084 95.1622C212.462 95.0275 212.084 94.408 212.246 93.7885C212.408 93.1151 213.003 92.738 213.625 92.8727C214.247 93.0074 214.626 93.6269 214.491 94.2464C214.356 94.8659 213.869 95.216 213.355 95.216V95.1891ZM214.22 90.9873C214.22 90.9873 214.085 90.9873 214.004 90.9873C213.382 90.8795 212.949 90.2869 213.084 89.6674C213.193 88.9941 213.788 88.5631 214.41 88.6709C215.032 88.7786 215.464 89.3712 215.356 89.9907C215.248 90.6371 214.761 91.0142 214.22 91.0142V90.9873ZM214.842 86.7315C214.085 86.6507 213.625 86.0851 213.706 85.4656C213.788 84.7383 214.356 84.3074 215.005 84.3882C215.627 84.469 216.086 85.0346 216.005 85.6541C215.924 86.3006 215.437 86.7315 214.842 86.7315ZM215.194 82.4489C214.491 82.422 214.004 81.8833 214.031 81.2368C214.058 80.5365 214.599 80.0517 215.248 80.0786C215.87 80.1055 216.357 80.6442 216.33 81.2907C216.303 81.9641 215.789 82.4489 215.167 82.4489H215.194ZM215.275 78.1662C214.653 78.1662 214.139 77.6545 214.112 77.035C214.112 76.3077 214.626 75.796 215.275 75.796C215.924 75.796 216.438 76.3077 216.438 76.9542C216.438 77.6545 215.951 78.1662 215.302 78.1662H215.275ZM215.086 73.8836C214.491 73.8836 213.977 73.4257 213.95 72.8331C213.896 72.1059 214.383 71.5672 215.005 71.5133C215.654 71.4594 216.195 71.9443 216.222 72.5907C216.276 73.291 215.816 73.8297 215.167 73.8836C215.14 73.8836 215.113 73.8836 215.059 73.8836H215.086ZM214.599 69.6279C214.031 69.6279 213.544 69.2238 213.463 68.6582C213.355 67.931 213.815 67.3653 214.437 67.2845C215.059 67.2037 215.654 67.6347 215.735 68.2542C215.843 68.9276 215.41 69.5201 214.788 69.6279C214.734 69.6279 214.68 69.6279 214.626 69.6279H214.599ZM213.815 65.3991C213.301 65.3991 212.814 65.0489 212.706 64.5102C212.544 63.8099 212.949 63.2173 213.571 63.0557C214.193 62.9211 214.815 63.2981 214.951 63.9177C215.113 64.618 214.707 65.2105 214.085 65.3721C214.004 65.3721 213.923 65.3991 213.842 65.3991H213.815ZM212.706 61.2511C212.219 61.2511 211.759 60.9279 211.597 60.4431C211.381 59.7966 211.732 59.1502 212.327 58.9616C212.922 58.7731 213.571 59.0963 213.761 59.7158C213.977 60.4161 213.625 61.0625 213.003 61.2242C212.895 61.2511 212.787 61.278 212.679 61.278L212.706 61.2511ZM211.299 57.2109C210.84 57.2109 210.407 56.9415 210.218 56.4836C209.947 55.8102 210.245 55.1369 210.84 54.9214C211.435 54.7059 212.111 55.0022 212.327 55.5948C212.571 56.2412 212.3 56.9146 211.705 57.1301C211.57 57.1839 211.435 57.2109 211.272 57.2109H211.299ZM209.569 53.2784C209.136 53.2784 208.73 53.0359 208.541 52.6319C208.243 51.9855 208.487 51.3121 209.055 51.0428C209.623 50.7734 210.326 51.0158 210.596 51.5815C210.894 52.201 210.65 52.9013 210.083 53.1706C209.92 53.2514 209.758 53.2784 209.569 53.2784ZM207.54 49.4805C207.135 49.4805 206.756 49.2651 206.54 48.9149C206.188 48.2954 206.377 47.5951 206.918 47.2988C207.459 46.9756 208.162 47.1641 208.487 47.7298C208.838 48.3493 208.649 49.0496 208.108 49.3459C207.919 49.4536 207.73 49.5075 207.54 49.5075V49.4805ZM205.214 45.8713C204.863 45.8713 204.511 45.7096 204.268 45.3864C203.862 44.8208 203.97 44.0935 204.484 43.7165C204.998 43.3394 205.728 43.474 206.08 43.9858C206.486 44.5784 206.377 45.2787 205.864 45.6558C205.674 45.7905 205.431 45.8713 205.187 45.8713H205.214ZM202.537 42.5044C202.213 42.5044 201.915 42.3697 201.672 42.1273C201.212 41.6155 201.266 40.8883 201.753 40.4573C202.24 40.0533 202.97 40.0802 203.375 40.5651C203.835 41.0768 203.808 41.8041 203.321 42.235C203.105 42.4236 202.835 42.5313 202.564 42.5313L202.537 42.5044ZM199.481 39.4877C199.211 39.4877 198.94 39.4069 198.724 39.2183C198.183 38.7335 198.156 38.0063 198.562 37.5214C198.994 37.0635 199.724 37.0097 200.184 37.4406C200.698 37.8985 200.752 38.6258 200.346 39.0837C200.13 39.353 199.806 39.4877 199.481 39.4877ZM196.1 36.8481C195.884 36.8481 195.641 36.7942 195.451 36.6595C194.856 36.2555 194.721 35.5282 195.1 35.0165C195.451 34.5047 196.182 34.37 196.695 34.7471C197.263 35.1512 197.399 35.8515 197.047 36.3632C196.831 36.6864 196.452 36.875 196.1 36.875V36.8481ZM192.422 34.6394C192.233 34.6394 192.071 34.5855 191.882 34.5047C191.26 34.1815 191.043 33.4812 191.341 32.9156C191.638 32.3499 192.341 32.1344 192.882 32.4307C193.504 32.7539 193.721 33.4543 193.423 34.0199C193.207 34.4239 192.828 34.6394 192.395 34.6394H192.422ZM188.501 32.8617C188.366 32.8617 188.231 32.8617 188.095 32.7809C187.419 32.5115 187.122 31.8382 187.365 31.2725C187.609 30.68 188.258 30.3837 188.853 30.6261C189.502 30.8685 189.799 31.5419 189.583 32.1344C189.42 32.5923 188.961 32.8617 188.501 32.8617ZM52.6563 32.7539C52.6563 32.7539 52.4129 32.7539 52.3048 32.7001C51.7098 32.5115 51.3582 31.8651 51.5475 31.2725C51.7639 30.5991 52.4129 30.2759 53.035 30.4645C53.6299 30.653 53.9815 31.2995 53.7652 31.892C53.5758 32.4307 53.1431 32.7539 52.6563 32.7539ZM184.417 31.488C184.417 31.488 184.201 31.488 184.093 31.4341C183.417 31.2456 183.065 30.6261 183.227 30.0066C183.39 29.3871 184.039 29.0369 184.634 29.1985C185.337 29.3871 185.688 30.0335 185.499 30.653C185.364 31.1648 184.904 31.488 184.39 31.488H184.417ZM180.225 30.4914C180.225 30.4914 180.09 30.4914 180.009 30.4914C179.306 30.3567 178.9 29.7642 179.035 29.1447C179.171 28.5252 179.766 28.1211 180.388 28.2289C181.091 28.3636 181.496 28.9561 181.361 29.6026C181.253 30.1413 180.766 30.5183 180.225 30.5183V30.4914ZM175.979 29.818C175.979 29.818 175.871 29.818 175.844 29.818C175.114 29.7103 174.681 29.1447 174.762 28.5252C174.843 27.9057 175.438 27.4478 176.06 27.5555C176.764 27.6363 177.196 28.2019 177.115 28.8484C177.034 29.4409 176.547 29.845 175.979 29.845V29.818ZM171.706 29.3871C170.922 29.3332 170.435 28.7945 170.489 28.1481C170.543 27.5286 171.084 27.0437 171.706 27.0707C172.437 27.1245 172.896 27.6902 172.842 28.3097C172.788 28.9023 172.301 29.3601 171.706 29.3601V29.3871ZM167.406 29.1447C166.676 29.1447 166.162 28.606 166.189 27.9595C166.189 27.3131 166.73 26.8013 167.379 26.8552C168.109 26.8821 168.596 27.4208 168.569 28.0403C168.569 28.6598 168.028 29.1447 167.406 29.1447ZM163.106 29.0369C162.376 29.0369 161.862 28.4982 161.889 27.8787C161.889 27.2323 162.403 26.7205 163.052 26.7475C163.755 26.7475 164.269 27.2862 164.269 27.9057C164.269 28.5252 163.755 29.0369 163.106 29.0369ZM154.479 29.0369C153.776 29.0369 153.262 28.5252 153.262 27.8787C153.262 27.2323 153.776 26.7205 154.425 26.7205C155.128 26.7205 155.642 27.2323 155.642 27.8787C155.642 28.5252 155.128 29.0369 154.479 29.0369ZM158.779 29.0369C158.076 29.0369 157.562 28.5252 157.562 27.8787C157.562 27.2323 158.076 26.7205 158.725 26.7205C159.428 26.7205 159.942 27.2323 159.942 27.8787C159.942 28.5252 159.428 29.0369 158.779 29.0369ZM150.152 29.0369C149.422 29.0369 148.908 28.4982 148.935 27.8787C148.935 27.2592 149.449 26.7475 150.098 26.7475C150.828 26.7475 151.342 27.2862 151.315 27.9057C151.315 28.5252 150.801 29.0369 150.152 29.0369ZM145.852 28.9292C145.067 28.9022 144.581 28.3366 144.635 27.7171C144.689 27.0976 145.203 26.5858 145.852 26.6397C146.555 26.6667 147.042 27.2053 147.015 27.8249C147.015 28.4444 146.474 28.9292 145.852 28.9292ZM54.1708 28.7406C54.0356 28.7406 53.8733 28.7137 53.7381 28.6598C53.1431 28.4174 52.8727 27.744 53.1161 27.1515C53.3865 26.505 54.0626 26.2357 54.6576 26.4781C55.2526 26.7205 55.5231 27.3939 55.2797 27.9865L54.2249 27.5555L55.2797 28.0134C55.0633 28.4982 54.6576 28.7676 54.1979 28.7676L54.1708 28.7406ZM141.552 28.6329C140.713 28.5521 140.254 27.9865 140.335 27.34C140.416 26.7205 140.984 26.2626 141.606 26.3165C142.309 26.3704 142.769 26.936 142.688 27.5824C142.633 28.175 142.12 28.6329 141.552 28.6329ZM137.279 28.0403C137.279 28.0403 137.143 28.0403 137.062 28.0403C136.386 27.9057 135.953 27.3131 136.089 26.6936C136.197 26.0741 136.792 25.6431 137.441 25.7778C138.144 25.9125 138.55 26.505 138.442 27.1515C138.333 27.6902 137.847 28.0673 137.306 28.0673L137.279 28.0403ZM133.114 26.9899C133.114 26.9899 132.87 26.9899 132.762 26.936C132.113 26.7205 131.762 26.0741 131.951 25.4815C132.14 24.8889 132.789 24.5388 133.384 24.7273C134.087 24.9698 134.412 25.6162 134.196 26.2088C134.033 26.6936 133.574 26.9899 133.114 26.9899ZM129.138 25.4007C128.976 25.4007 128.787 25.3738 128.624 25.293C128.002 24.9967 127.759 24.2964 128.029 23.7307C128.3 23.1651 129.003 22.9227 129.571 23.192C130.22 23.5153 130.463 24.1886 130.166 24.7543C129.977 25.1583 129.544 25.4007 129.138 25.4007ZM55.9287 24.8351C55.7665 24.8351 55.5771 24.8081 55.4149 24.7273C54.8469 24.458 54.6035 23.7577 54.901 23.192C55.1985 22.5725 55.9017 22.3301 56.4696 22.5995C57.0375 22.8688 57.2809 23.5691 57.0105 24.1348C56.7671 24.6196 56.3614 24.8351 55.9287 24.8351ZM125.406 23.2459C125.19 23.2459 124.973 23.192 124.784 23.0574C124.189 22.6803 124.054 21.953 124.405 21.4413C124.757 20.9026 125.46 20.7679 126.001 21.1181C126.596 21.5221 126.731 22.2224 126.38 22.7611C126.163 23.0843 125.785 23.2729 125.433 23.2729L125.406 23.2459ZM57.9571 21.0372C57.7677 21.0372 57.5784 20.9834 57.3891 20.8756C56.8482 20.5524 56.6319 19.8521 56.9564 19.3134C57.335 18.6939 58.0382 18.5054 58.5791 18.8286C59.12 19.1518 59.3093 19.8521 58.9848 20.3908C58.7414 20.8218 58.3627 21.0103 57.9571 21.0103V21.0372ZM122.026 20.6332C121.755 20.6332 121.485 20.5524 121.268 20.3369C120.727 19.879 120.673 19.1518 121.106 18.667C121.512 18.1821 122.242 18.1283 122.729 18.5323C123.27 19.0171 123.324 19.7174 122.891 20.2023C122.675 20.4716 122.35 20.6063 122.026 20.6063V20.6332ZM118.888 17.6973C118.591 17.6973 118.293 17.5896 118.077 17.3472C117.59 16.8623 117.59 16.1351 118.023 15.6772C118.483 15.2193 119.213 15.2193 119.646 15.6772C120.159 16.189 120.132 16.9162 119.7 17.3472C119.483 17.5626 119.186 17.6704 118.888 17.6704V17.6973ZM60.2829 17.401C60.0665 17.401 59.8231 17.3472 59.6338 17.2125C59.12 16.8623 58.9848 16.1351 59.3363 15.6233C59.742 15.0308 60.4722 14.8961 60.986 15.2732C61.4999 15.6233 61.6351 16.3506 61.2565 16.8623C60.986 17.2394 60.6345 17.401 60.2829 17.401ZM115.913 14.5998C115.616 14.5998 115.318 14.4921 115.075 14.2496C114.588 13.7379 114.588 13.0106 115.075 12.5797C115.535 12.1487 116.265 12.1487 116.698 12.6066C117.185 13.1184 117.185 13.8456 116.698 14.2766C116.481 14.4921 116.184 14.5998 115.886 14.5998H115.913ZM62.9062 13.9803C62.6358 13.9803 62.3653 13.8995 62.149 13.7109C61.6622 13.3069 61.6081 12.5797 62.0137 12.0949C62.4735 11.5562 63.2037 11.5023 63.6905 11.9063C64.1773 12.3103 64.2314 13.0376 63.8257 13.5224C63.5553 13.8456 63.2307 13.9803 62.9062 13.9803ZM112.857 11.5831C112.587 11.5831 112.29 11.4753 112.073 11.2599C111.559 10.802 111.532 10.0747 111.965 9.61684C112.398 9.15895 113.128 9.10508 113.588 9.53604C114.129 10.0478 114.129 10.775 113.696 11.2329C113.479 11.4753 113.155 11.5831 112.857 11.5831ZM65.8541 10.8558C65.5566 10.8558 65.2591 10.7481 65.0427 10.5057C64.61 10.0478 64.61 9.32056 65.0427 8.8896C65.5836 8.37783 66.3138 8.40477 66.7465 8.8896C67.1792 9.34749 67.1522 10.0747 66.6924 10.5057C66.422 10.7481 66.1516 10.8828 65.8541 10.8828V10.8558ZM109.585 8.80879C109.342 8.80879 109.098 8.72799 108.882 8.56638C108.314 8.16235 108.206 7.43511 108.584 6.92335C108.963 6.41158 109.666 6.30384 110.18 6.68093C110.775 7.11189 110.856 7.83913 110.478 8.3509C110.261 8.64718 109.91 8.80879 109.558 8.80879H109.585ZM69.1535 8.08155C68.8019 8.08155 68.4503 7.91994 68.234 7.62366C67.8554 7.11189 67.9365 6.41158 68.4503 6.00756C69.0453 5.5766 69.7755 5.68434 70.1271 6.1961C70.5057 6.70787 70.3975 7.43511 69.8837 7.78527C69.6403 7.97381 69.3969 8.05461 69.1535 8.05461V8.08155ZM105.988 6.49239C105.799 6.49239 105.61 6.43852 105.447 6.35771C104.825 6.00756 104.609 5.30725 104.933 4.76855C105.231 4.20292 105.934 4.01437 106.502 4.31066C107.124 4.63388 107.313 5.33419 107.016 5.89982C106.799 6.27691 106.421 6.49239 106.015 6.49239H105.988ZM72.7775 5.76515C72.3718 5.76515 71.9661 5.54967 71.7768 5.17258C71.4793 4.60694 71.6686 3.90664 72.2366 3.61035C72.8586 3.2602 73.5618 3.47568 73.8592 4.04131C74.1567 4.60694 73.9674 5.30725 73.3995 5.60354C73.1561 5.73821 72.9668 5.79208 72.7775 5.79208V5.76515ZM102.094 4.68775C101.959 4.68775 101.823 4.68775 101.688 4.60694C101.039 4.36453 100.741 3.71809 100.958 3.12552C101.174 2.53295 101.823 2.23667 102.445 2.42521C103.121 2.69456 103.419 3.341 103.203 3.93357C103.04 4.39146 102.581 4.66081 102.121 4.66081L102.094 4.68775ZM76.6989 3.98744C76.2392 3.98744 75.7794 3.69116 75.6171 3.23326C75.4008 2.64069 75.6983 1.96732 76.3203 1.75184C76.9964 1.50943 77.6455 1.80571 77.8618 2.42521C78.0782 3.01778 77.7807 3.69116 77.1587 3.90664C76.9694 3.98744 76.8341 3.98744 76.6989 3.98744ZM97.983 3.44874C97.983 3.44874 97.7936 3.44874 97.7125 3.42181C97.0364 3.2602 96.6578 2.66763 96.793 2.04812C96.9282 1.42862 97.5502 1.05153 98.1723 1.18621C98.8754 1.34782 99.254 1.96732 99.1188 2.58682C98.9836 3.12552 98.5238 3.47568 98.01 3.47568L97.983 3.44874ZM80.8367 2.82924C80.2958 2.82924 79.809 2.45215 79.7009 1.91345C79.5927 1.29395 79.9983 0.701378 80.6204 0.566704C81.3235 0.432029 81.9185 0.836053 82.0537 1.45556C82.1619 2.07506 81.7562 2.66763 81.1342 2.8023C80.999 2.82924 80.9179 2.82924 80.8367 2.82924ZM93.764 2.69456C93.764 2.69456 93.6558 2.69456 93.6288 2.69456C92.8986 2.58682 92.4659 2.02119 92.547 1.40169C92.6281 0.782183 93.2231 0.324289 93.8451 0.432029C94.5483 0.512834 94.981 1.07847 94.8999 1.72491C94.8187 2.31747 94.3319 2.7215 93.764 2.7215V2.69456ZM89.491 2.31747C88.7067 2.2636 88.2199 1.72491 88.274 1.1054C88.301 0.485899 88.8419 -0.0258647 89.491 0.0280051C90.1941 0.0549401 90.6809 0.593639 90.6539 1.21314C90.6539 1.83265 90.113 2.31747 89.491 2.31747ZM85.1098 2.29054C84.4877 2.29054 83.9739 1.80571 83.9468 1.18621C83.9468 0.566704 84.4066 0.0280051 85.0557 0.00107019C85.7588 -0.0258647 86.2997 0.458964 86.3268 1.07847C86.3538 1.69797 85.867 2.2636 85.245 2.29054C85.1368 2.29054 85.1098 2.29054 85.1098 2.29054Z" fill="#915BFF"/>
    <path fill-rule="evenodd" clip-rule="evenodd" d="M90.0043 174.804C89.4634 174.804 89.1389 173.565 88.9496 172.838C88.8955 172.649 88.8414 172.461 88.7873 172.272C83.9193 156.3 78.0777 137.284 71.5599 117.513L71.4247 117.136H71.019C60.661 118.052 50.8709 118.51 41.865 118.51C37.7002 118.51 33.7246 118.402 29.9925 118.214C24.0157 117.89 16.5784 117.513 10.845 116.086C7.65372 115.278 5.27381 114.147 3.62409 112.611C1.70393 110.86 0.703283 108.571 0.541016 105.608V102.403C1.81211 92.8141 4.35429 85.2723 7.05874 77.2995C7.70781 75.3602 8.41097 73.3401 9.06004 71.2931C9.87138 68.7881 10.6286 66.1485 11.3859 63.5897C13.5765 56.0748 15.8212 48.3176 19.6344 42.2572C22.3119 37.9746 25.8547 34.9848 30.1548 33.3687C32.8863 32.3452 36.3209 31.7795 39.8367 31.7795C42.3789 31.7795 44.9211 32.0758 47.1387 32.6414C50.925 33.6111 54.2514 35.2003 56.9829 37.3281C59.8226 39.5368 61.9862 42.2841 63.4195 45.5163C63.7981 46.3513 64.6906 48.56 64.934 50.7417C65.1774 52.8965 64.7447 54.2971 63.6359 54.9166C63.2573 55.1321 62.8245 55.2398 62.3648 55.2398C61.3101 55.2398 60.1471 54.6742 59.6603 53.92C59.2547 53.3005 59.1465 52.4117 59.0383 51.469C58.9301 50.6609 58.822 49.799 58.5245 48.9909C57.8754 47.2132 56.9018 46.1628 55.9823 45.1392C55.9011 45.0584 55.0357 45.6241 55.0357 45.6241C56.3068 48.4792 57.1181 52.4925 56.1175 55.0782C55.7118 56.1018 55.0357 56.829 54.1162 57.233C53.8458 57.3408 53.5483 57.3946 53.2237 57.4216C52.8722 57.4754 52.4935 57.5024 52.1149 57.664C51.7363 57.8256 51.4929 58.1219 51.2495 58.3912C51.1143 58.5528 50.979 58.7414 50.8168 58.8491C50.357 59.1723 49.9243 59.3339 49.5186 59.3339C48.0853 59.3339 47.0035 57.0714 46.4897 54.9436L45.462 55.0513C45.3808 57.4485 44.4343 60.8423 42.5682 60.8423C42.1355 60.8423 41.6487 60.6807 41.1348 60.3305L40.5128 59.9265L40.3506 60.6538C40.026 62.1621 39.6744 63.6705 39.3499 65.125C38.4033 69.3268 37.5109 73.2862 36.6995 77.542L36.5643 78.35L37.3486 78.1345C44.894 76.1683 52.9803 74.1482 61.4994 73.1785C65.0152 72.7745 68.8825 72.5859 73.0474 72.5859C78.1588 72.5859 83.6488 72.8822 89.3282 73.4748L89.842 73.5286L89.8961 73.0169C89.9502 72.6667 89.7879 72.3435 89.6527 71.9934C89.5716 71.7779 89.4634 71.5624 89.4634 71.4008L89.3823 70.6197L88.7062 71.0237C87.9219 71.4816 87.2187 71.7509 86.786 71.7509C86.5426 71.7509 86.4615 71.6971 86.4344 71.4277C86.3803 70.9968 86.5967 70.8352 87.4351 70.485C87.8407 70.3234 88.2464 70.1618 88.5709 69.8655L88.8143 69.65L88.7332 69.3268C88.4628 68.411 88.2194 67.576 87.9219 66.4448L87.8678 66.2832C87.7866 66.0407 87.7055 65.7445 87.6785 65.4751L87.5703 64.9095L87.0023 65.0711C86.6778 65.1788 86.2992 65.2327 85.8935 65.2327C85.5419 65.2327 85.1904 65.1788 84.8929 65.098C83.9734 65.098 82.8375 64.4246 82.4589 64.1822C80.0249 62.7547 77.4015 60.8962 76.2927 58.0141C75.238 55.2937 76.7795 52.6541 77.2934 51.8999C78.4022 50.2569 79.7003 49.1795 81.6205 47.8866L81.945 47.6711L81.8368 47.321C80.9985 44.4928 81.4041 41.7454 82.8916 40.3718C84.3249 39.025 86.5155 38.3247 89.842 38.1362H90.1395L90.2747 37.8668C90.437 37.5705 90.5993 37.2742 90.7615 36.978C91.2213 36.0622 91.6811 35.2272 92.3572 34.4999C93.9257 32.8569 96.9547 31.8603 100.2 31.8603C101.931 31.8603 103.581 32.1566 105.014 32.7222L105.582 32.9377L105.717 32.3452C105.988 31.0523 106.664 29.9749 107.718 29.2207C108.773 28.4665 110.125 28.0625 111.64 28.0625C112.208 28.0625 112.83 28.1164 113.425 28.2241C114.48 28.4396 115.94 29.0322 116.941 29.7055C117.076 29.7863 117.373 30.0287 117.671 30.2712C118.834 31.2408 119.726 31.9411 120.348 31.9411C120.997 31.9411 121.511 31.4294 121.998 30.9176C122.268 30.6483 122.566 30.352 122.755 30.2712C122.999 30.1634 123.512 30.0288 123.972 30.0018C127.136 30.0018 129.814 32.5606 131.491 34.6885C133.194 36.8433 134.682 39.4829 136.034 42.769C138.225 48.129 140.875 56.1287 138.549 63.5897L138.306 64.3438L139.09 64.263C142.092 63.9398 145.067 63.7782 147.907 63.7782C153.099 63.7782 158.075 64.3169 162.727 65.4212C167.054 66.4448 171.192 67.9262 175.086 69.8924C181.929 73.367 188.068 78.2423 193.801 84.8144C199.372 91.198 204.132 98.9014 208.351 108.356C212.516 117.702 215.924 127.21 218.439 136.529C219.764 141.485 221.089 146.792 221.468 152.475C221.9 159.236 220.819 164.219 218.141 167.747C215.518 171.222 211.542 173.349 205.998 174.292C204.43 174.562 202.78 174.696 201.076 174.696C197.804 174.696 194.342 174.184 191.016 173.242C190.934 173.242 90.2477 173.242 90.2477 173.242L90.3288 173.834C90.4641 174.777 90.1936 174.804 90.1125 174.831C90.0854 174.831 90.0584 174.831 90.0313 174.831L90.0043 174.804Z" fill="white"/>
    <path fill-rule="evenodd" clip-rule="evenodd" d="M97.1979 89.2654C97.1979 89.2654 95.6023 98.6657 103.662 100.363C111.856 102.086 117.86 100.39 121.565 97.5344C125.27 94.6793 127.866 91.905 128.543 87.9187C129.219 83.9054 129.354 76.9023 129.354 76.9023C129.354 76.9023 127.055 71.623 127.19 69.6568C127.326 67.6636 129.3 62.0611 131.788 62.8422C134.303 63.6234 135.953 66.236 135.953 66.236C135.953 66.236 140.74 61.0107 138.928 53.442C137.116 45.8732 129.76 30.0355 126.081 32.2172C122.403 34.399 121.565 34.6414 120.132 34.372C118.725 34.0757 111.829 29.1197 110.017 31.7055C108.205 34.2912 107.61 35.4494 105.933 35.3417C104.257 35.2339 96.035 33.0522 94.2771 37.0386C92.5192 41.025 91.3022 41.1596 90.0311 41.3212C88.76 41.5098 85.0008 41.5367 85.1901 44.9575C85.3795 48.3513 84.8656 48.1896 84.0002 49.4825C83.1348 50.7754 78.4561 54.0345 80.2139 57.6169C81.9718 61.1992 87.2726 63.9735 87.2726 63.9735L86.8939 60.2834C86.8939 60.2834 92.1676 64.8893 99.4426 62.4382C106.718 59.9871 115.318 54.6002 117.725 57.0243C120.132 59.4484 121.538 66.4515 122.566 68.4986C123.593 70.5456 124.54 71.5961 124.432 73.0775C124.324 74.5589 121.971 80.4846 121.971 82.6933C121.971 84.902 122.512 87.1106 121.159 86.9759C119.78 86.8413 115.426 84.3363 113.127 85.4945C110.855 86.6527 106.258 88.619 104.284 88.8344C102.309 89.023 101.282 87.5685 100.497 88.619C99.7131 89.6694 99.4426 90.8546 98.6313 90.4775C97.847 90.0735 97.1438 89.2923 97.1438 89.2923L97.1979 89.2654Z" fill="#7000FF"/>
    <path fill-rule="evenodd" clip-rule="evenodd" d="M11.6035 68.3842C11.6035 68.3842 13.9834 73.3402 20.2848 74.0944C26.6132 74.8486 37.1605 72.3975 37.1605 72.3975L35.2945 83.1984C35.2945 83.1984 60.0402 75.2256 69.3165 75.064C78.5927 74.9024 92.9534 77.5151 92.9534 77.5151C92.9534 77.5151 94.6572 78.404 94.5219 81.6631C94.3597 84.9222 91.4659 96.6389 99.2007 98.9823C106.962 101.326 122.838 102.888 126.543 91.5751C130.248 80.2625 129.653 76.2492 129.653 76.2492C129.653 76.2492 135.359 73.0708 135.603 70.6198C135.846 68.1956 135.9 67.7377 135.9 67.7377L136.928 66.9297C136.928 66.9297 167.326 67.0644 181.091 77.0303C195.344 87.3464 211.976 117.352 215.546 137.068C219.116 156.785 220.279 166.697 215.33 169.686C210.327 172.703 201.753 176.716 190.07 172.515C178.387 168.313 160.592 157.404 159.753 155.653C159.753 155.653 170.301 154.711 171.058 145.957C171.788 137.203 168.759 131.52 168.759 131.52C168.732 131.466 155.183 125.028 150.071 118.995C144.717 112.692 135.008 100.437 124.758 103.049C114.508 105.635 117.618 108.059 119.484 109.487C121.35 110.914 125.623 106.578 128.76 108.894C131.897 111.211 135.143 114.443 135.143 114.443C135.143 114.443 128.219 114.335 125.785 117.029C123.351 119.722 122.811 121.554 122.811 121.554C122.811 121.554 115.698 119.291 114.264 121.715C112.831 124.139 119.43 127.964 121.404 129.122C123.351 130.281 123.568 130.685 123.568 130.685L124.893 133.136L126.083 134.025C126.083 134.025 124.325 139.465 127.651 140.678C130.978 141.89 132.33 141.701 132.33 141.701C132.33 141.701 134.656 142.078 136.928 142.374C139.199 142.671 140.498 143.048 140.498 143.048L157.373 154.307C157.373 154.307 165.676 159.936 174.384 164.677C179.225 167.316 189.61 173.026 195.128 174.885C195.75 175.1 196.263 176.77 196.912 177.848C199.022 181.349 199.076 181.996 199.076 181.996H92.7641L71.3718 115.682C71.3718 115.682 39.8109 119.641 22.1238 117.163C4.43667 114.658 1.38064 113.85 6.08638 95.777C10.7651 77.7037 13.2261 70.9161 13.2261 70.9161L11.6576 68.465L11.6035 68.3842Z" fill="#242529"/>
    <path fill-rule="evenodd" clip-rule="evenodd" d="M0.0811336 105.504V102.245C1.67676 90.178 5.32777 81.2087 8.6272 71.0273C11.8185 61.1153 14.1172 50.0719 19.2557 41.8837C21.7708 37.8974 25.2055 34.6113 30.0194 32.7797C34.8604 30.9481 41.7297 30.598 47.3279 32.0525C54.9274 33.9918 60.9584 38.463 63.9603 45.2237C65.1232 47.8363 66.9622 53.6004 63.9603 55.2973C62.3106 56.2131 60.0659 55.3243 59.2816 54.1122C58.4432 52.8193 58.7407 50.8261 58.0916 49.0753C57.4426 47.3515 56.5231 46.3549 55.5765 45.3045C57.3614 49.3447 58.3621 55.8629 54.3865 57.5868C53.7375 57.8561 53.0614 57.7753 52.3852 58.0177C51.8984 58.2063 51.6821 58.7719 51.1953 59.1221C48.2474 61.1691 46.6518 57.2905 46.0568 54.8933C45.9486 58.1255 44.4341 62.866 40.9184 60.6035C39.6473 66.3137 38.3491 71.7007 37.2673 77.4648C44.5694 75.5524 52.7639 73.5053 61.4722 72.5087C70.4239 71.4852 80.5115 71.8623 89.4092 72.805C89.4633 72.401 89.0306 71.8623 88.9765 71.3236C88.084 71.8354 86.0827 72.832 85.9204 71.3236C85.7852 69.9768 87.462 70.0038 88.2192 69.3304C87.9488 68.4146 87.7054 67.5527 87.4079 66.4484C87.1374 65.4787 86.6506 63.9973 87.8406 63.8626C89.0306 63.701 89.0576 65.0478 89.328 66.0174C89.5985 67.0409 89.9501 67.9029 90.2205 68.7648C95.2778 67.6874 98.7666 70.0846 100.984 72.4549C102.796 74.3942 104.419 76.8722 104.338 80.3737C104.311 81.505 103.743 82.744 103.905 83.7137C104.04 84.6025 105.717 84.7911 105.69 85.8685C105.69 86.1109 105.447 86.6226 105.176 86.7573C104.067 87.296 102.472 85.6799 102.12 84.9796C101.606 83.9291 102.012 82.4208 102.201 81.3434C102.634 78.596 101.606 76.6298 100.416 74.9867C98.6314 72.5357 95.5753 69.9499 90.9778 70.7041C91.9514 74.5558 94.6558 77.788 95.5212 81.8821C95.6565 82.5285 95.6024 83.6598 95.8187 84.1716C96.5219 85.8685 97.82 87.727 98.9288 89.0468C99.632 88.4542 100.038 87.5115 100.93 87.1883C102.255 86.7304 103.662 87.4845 105.095 87.4845C107.908 87.4845 110.044 85.3836 112.667 84.7372C115.48 84.0638 117.59 85.3298 120.402 86.057C121.105 85.2759 121.024 84.1446 121.132 83.175C121.376 81.0202 121.727 78.8115 122.322 77.1146C122.647 76.1988 123.161 75.4177 123.431 74.6097C123.81 73.4784 123.296 72.2394 122.917 71.3505C122.052 69.2765 121.322 67.4719 120.619 65.2094C119.888 62.9199 118.861 58.5834 116.751 57.8023C115.074 57.1828 113.425 58.0986 112.072 58.6103C108.232 60.0648 105.041 61.8425 101.065 63.0546C98.7666 63.7549 95.7106 64.6707 92.3841 64.1589C91.0589 63.9434 89.8419 63.4855 88.7331 62.6775C88.057 62.1927 86.2179 60.9806 86.4343 59.7955C86.4884 59.4722 86.7588 59.1221 87.1645 59.0682C88.2463 58.9066 89.1117 60.5227 89.923 61.0614C93.0872 63.2701 98.3339 61.8694 101.66 60.6843C104.203 59.7955 106.285 58.8527 108.503 57.8831C110.937 56.8057 114.696 54.7586 117.563 55.9707C121.484 57.5868 122.404 64.7245 124.026 68.7648C124.675 70.4078 125.622 71.8892 125.649 73.5861C125.649 74.7982 125.189 75.6332 124.675 76.6836C124.243 77.5994 123.972 78.5691 123.702 79.7812C123.269 81.8013 123.242 85.1143 122.431 86.7304C120.997 89.6393 117.508 86.8651 114.993 86.5957C114.588 86.5418 114.155 86.5418 113.722 86.5957C110.91 86.8651 108.908 89.1815 105.852 89.4777C104.473 89.6124 102.877 88.939 101.85 89.1007C100.579 89.3161 100.768 91.1746 99.0911 91.2554C97.2251 91.3362 96.6842 89.2353 95.6835 88.2118C95.386 91.444 95.2237 93.9489 96.3596 95.7536C99.4968 100.763 110.369 101.06 116.778 98.8511C120.943 97.4235 124.486 95.0802 126.433 91.0938C128.083 87.727 128.461 84.5486 128.651 80.2929C128.705 79.2425 128.218 76.9799 128.57 76.1449C128.759 75.714 129.597 75.5793 129.976 75.3369C130.355 75.0945 130.895 74.6635 131.247 74.3672C133.329 72.6703 136.575 68.684 133.924 65.4249C133.519 64.9131 132.518 64.2936 131.409 64.4552C130.084 64.6437 129.516 65.9636 129.192 66.9601C128.894 67.849 128.84 69.8152 127.921 70.0577C125.865 70.5964 126.92 67.0679 127.244 66.1252C127.731 64.7784 128.57 63.4586 129.706 62.866C132.653 61.3038 135.277 63.297 136.25 65.1555C137.603 62.0041 138.143 58.3679 137.738 54.5701C137.359 51.0685 136.223 47.6747 135.141 44.7927C133.492 40.4562 131.518 36.0119 128.083 33.2376C127.082 32.4296 125.351 31.1367 123.702 31.3791C122.485 31.5676 122.133 33.076 120.889 33.2915C119.158 33.5878 117.806 32.0525 116.724 31.2983C114.777 29.8977 111.072 28.3893 108.476 30.2748C107.313 31.1367 107.394 33.8571 105.879 34.2073C105.149 34.3689 104.5 33.9918 103.716 33.7763C102.986 33.5608 102.066 33.3992 101.417 33.3454C96.6571 32.8336 93.3847 34.4228 92.0595 37.5741C91.762 38.2475 91.6268 39.0825 91.0859 39.3518C90.491 39.6481 89.4903 39.5673 88.7872 39.6481C85.1361 40.0791 82.4587 40.941 82.9996 45.2775C83.1078 46.1125 83.6487 47.136 83.5135 48.0249C83.3783 48.8329 82.026 49.2908 81.4311 49.7218C80.7549 50.2066 79.9166 50.9339 79.4298 51.4995C78.348 52.7116 76.9146 54.4623 77.5637 56.9673C78.2668 59.6877 80.9443 61.3846 83.216 62.7314C84.1896 63.3239 85.3255 63.6202 85.3796 64.4283C85.4877 66.4484 83.0267 64.9939 82.1883 64.5091C79.4298 62.866 76.9146 60.9806 75.8058 58.0716C74.8592 55.6205 75.8058 53.0617 76.8335 51.4995C77.9964 49.7487 79.4027 48.6444 81.2958 47.3515C80.4304 44.4156 80.8361 41.4258 82.4858 39.8905C84.1625 38.3014 86.7588 37.6819 89.7608 37.5203C90.4639 36.2543 90.9507 35.0423 91.9243 34.0457C94.5476 31.3252 100.66 30.3556 105.149 32.1333C105.852 28.6587 109.314 26.8271 113.479 27.6082C114.696 27.8506 116.237 28.524 117.184 29.1704C117.752 29.5475 119.618 31.3252 120.294 31.3252C121.051 31.3252 121.809 29.9785 122.512 29.7091C122.809 29.5745 123.404 29.4129 123.918 29.4129C127.299 29.359 130.138 32.1333 131.869 34.2881C133.897 36.8469 135.358 39.7559 136.467 42.5032C138.847 48.3212 141.308 56.24 138.982 63.6741C165.756 60.792 182.442 71.0273 194.099 84.387C200.021 91.1746 204.781 99.2012 208.73 108.063C212.732 117.032 216.221 126.621 218.844 136.318C220.169 141.301 221.522 146.58 221.9 152.371C222.333 158.889 221.386 164.168 218.493 167.993C215.707 171.683 211.461 173.811 205.998 174.727C200.184 175.696 194.099 174.808 189.203 173.165C180.008 170.094 171.57 164.922 163.944 160.074C157.183 155.792 150.368 151.24 143.823 146.607C142.984 146.014 141.686 144.748 141.01 144.614C140.091 144.425 138.982 144.694 138.035 144.614C136.115 144.479 134.465 143.94 132.978 143.428C132.167 143.159 131.355 142.674 130.679 142.54C130.057 142.432 129.435 142.54 128.894 142.459C125.73 141.893 123.512 138.203 124.81 134.701C123.242 132.789 121.484 130.984 119.158 129.153C118.212 128.399 117.157 127.645 116.048 126.702C114.804 125.678 113.046 124.466 113.668 122.419C114.534 119.618 119.645 119.079 122.133 120.857C124.188 117.059 127.921 114.931 133.059 114.204C133.275 113.962 132.87 113.719 132.762 113.611C131.518 112.265 129.435 110.676 127.407 110.271C124.621 109.733 122.431 111.268 120.051 111.16C118.13 111.08 116.94 109.463 116.94 107.605C116.94 102.837 124.08 101.706 128.38 102.191C131.734 102.568 134.763 103.969 137.008 105.369C142.038 108.494 145.31 112.965 149.259 116.763C157.399 124.547 167.027 130.58 178.305 135.025C175.33 128.722 171.516 122.258 167.838 116.386C167.46 115.793 166.243 114.123 167.622 113.719C168.758 113.396 169.38 115.039 169.921 115.928C173.923 122.338 178.061 129.341 181.225 136.21C185.282 137.826 189.42 139.334 193.774 140.789C194.694 141.085 197.56 141.516 197.56 142.701C197.56 144.29 195.343 143.401 194.504 143.159C186.066 140.492 178.088 137.287 170.651 133.84C171.435 135.644 172.598 137.88 172.95 140.358C173.355 143.078 172.842 145.987 171.922 148.196C170.164 152.425 166.729 155.334 161.753 156.115C168.271 160.37 175.059 164.707 182.632 168.262C186.202 169.932 190.366 171.602 194.964 172.491C205.295 174.457 215.383 171.252 218.52 164.061C220.224 160.155 220.224 154.553 219.547 149.273C218.357 139.792 215.301 131.146 212.489 123.227C206.701 107.012 199.805 92.1174 188.284 81.2087C182.74 75.9564 176.087 71.2697 167.919 68.4146C159.86 65.6134 149.178 64.5091 138.279 65.8289C137.9 66.7716 137.278 67.5527 137.008 68.4954C136.656 69.7344 136.683 70.6233 136.277 71.5391C135.087 74.1518 133.113 75.7679 130.706 77.3032C131.031 85.249 129.597 91.417 125.865 95.6458C122.322 99.713 116.264 102.164 109.152 102.299C101.877 102.433 94.9263 100.252 93.7093 94.3799C92.9791 90.8245 94.0068 87.2421 93.6281 83.4174C93.2766 79.9697 91.5457 77.761 90.3557 74.9867C81.3229 73.9363 70.8837 73.64 61.7426 74.6097C52.6557 75.5793 44.4341 77.7072 36.6994 79.7812C36.0503 83.175 35.239 87.0536 34.4818 90.6629C34.2924 91.5248 34.1843 93.6796 33.0754 93.7065C31.2635 93.7065 32.4264 90.5013 32.6968 89.2623C33.7516 84.2793 34.7252 79.2963 35.7529 74.5289C31.6962 75.9833 26.3414 77.1146 21.3381 76.0103C16.7946 75.0137 13.6575 72.1855 11.2235 69.2765C8.84356 77.2762 5.89571 84.8988 3.73214 93.2486C2.67741 97.3427 1.48745 102.73 2.32583 107.012C3.19125 111.537 6.40955 113.234 10.7096 114.419C14.8745 115.551 19.6884 115.928 24.6646 116.278C39.5391 117.302 56.0903 116.951 70.2887 115.605C70.3428 114.662 68.3956 111.78 70.2076 111.537C71.4787 111.349 71.8032 113.477 72.2089 114.797C72.6686 116.251 73.1284 117.517 73.534 118.783C79.1052 136.344 84.6764 153.556 90.1123 171.387C90.3287 172.141 91.5457 174.996 90.1123 175.239C88.8412 175.427 88.5438 173.326 88.2463 172.357C82.5669 153.691 76.9958 135.779 71.0189 117.598C58.8218 118.648 43.8121 119.349 29.9383 118.621C23.3394 118.271 16.2808 117.867 10.7096 116.467C4.75984 114.985 0.351579 112.049 0 105.504H0.0811336ZM53.9538 46.8398C52.9532 44.2809 52.0607 42.7456 50.6814 40.7794C50.1135 39.9713 48.7072 37.9512 50.5462 37.8974C51.9255 37.8435 52.25 39.8905 53.0614 40.6447C56.0092 42.584 59.1464 45.089 60.2552 49.0753C60.6068 50.3144 60.5256 52.6577 61.2829 53.3041C61.6615 53.6004 62.5269 53.7351 62.9056 53.5196C63.9332 52.9809 63.4194 50.1797 63.0408 48.7791C61.7967 43.9308 59.1193 40.7794 55.901 38.3552C51.6009 35.0961 45.3537 32.7259 37.7001 33.1837C28.8295 33.6955 23.3124 38.3283 19.7155 45.0082C16.6324 50.7722 14.8474 57.2097 12.8732 63.9434C12.6027 64.8323 11.9807 66.2868 12.0619 66.8255C12.143 67.418 13.387 68.6032 13.9279 69.1957C15.9563 71.4852 18.3362 73.236 21.7979 74.0171C27.0175 75.1753 32.2912 73.6131 36.2126 72.1586C37.2673 68.2261 37.7812 63.8896 38.9712 59.8763C39.0793 59.4992 39.485 59.0413 39.485 58.6103C39.485 58.1524 39.1064 57.6137 39.0523 57.1289C38.9171 56.2131 38.9982 54.4893 38.7548 53.4388C38.4303 52.0651 37.8353 51.284 37.051 50.3413C36.5371 49.7218 35.8069 49.0754 35.9422 48.3481C35.9963 48.0518 36.3749 47.6478 36.8346 47.6209C37.7542 47.567 38.7548 49.1023 39.1334 49.614C39.8095 50.5568 40.2693 51.3379 40.6209 52.4961C41.3781 54.9472 40.4586 58.5026 42.7033 59.149C45.1103 55.836 43.5687 49.1292 42.2706 45.7624C41.9731 44.9812 40.3775 42.3686 42.1354 42.2069C43.3524 42.0992 43.9203 44.254 44.2989 45.2506C44.7857 46.5165 45.0021 48.0518 45.4889 49.3178C45.7323 49.9642 46.3273 50.5568 46.6788 51.2301C47.0575 51.9035 47.355 52.6577 47.6524 53.3849C48.2745 54.9202 48.572 56.6171 49.6537 57.6676C51.0871 56.8865 51.1141 54.8933 50.9248 53.2233C50.438 48.806 48.8154 45.5199 46.9763 42.4224C46.4625 41.5605 45.5159 39.8097 47.1116 39.7559C48.2745 39.702 48.9506 41.7221 49.4103 42.5571C51.3575 46.1125 53.3588 50.9069 52.8991 55.863C56.4419 54.8933 54.9545 49.4794 53.9268 46.8398H53.9538ZM132.329 137.476C132.329 136.883 132.843 136.533 133.302 136.506C133.789 136.479 134.438 137.018 135.006 137.476C142.443 143.213 149.637 148.196 157.507 153.394C158.048 153.744 158.778 154.364 159.211 154.418C160.104 154.553 161.591 154.122 162.483 153.906C167.541 152.613 171.138 148.438 171.111 142.297C171.111 137.934 168.92 134.971 166.946 131.927C159.4 127.887 153.261 123.793 147.122 117.436C144.364 114.608 141.74 111.349 138.495 108.844C135.601 106.608 131.058 103.753 126.027 104.103C123.593 104.265 118.698 105.046 119.131 107.955C119.402 109.814 121.836 108.79 123.296 108.467C128.543 107.336 131.599 109.571 134.141 112.022C134.736 112.588 135.358 113.719 136.007 113.881C137.116 114.15 138.82 113.396 138.765 114.904C138.711 116.17 136.304 115.82 134.601 116.009C130.084 116.52 125.784 118.19 124.27 121.476C123.62 122.877 123.972 124.358 124.865 125.328C127.488 122.635 130.598 121.019 135.493 120.372C136.926 120.184 139.469 119.699 139.442 121.18C139.414 122.527 136.169 122.231 134.682 122.5C131.031 123.173 128.678 124.358 126.595 126.567C125.73 127.483 124.459 128.991 124.675 130.715C124.783 131.658 125.432 132.089 126.082 132.789C128.489 130.607 131.436 129.368 135.06 128.426C136.331 128.102 138.143 127.591 138.116 129.018C138.089 130.23 136.142 130.23 135.141 130.5C133.897 130.85 132.707 131.227 131.788 131.604C129.922 132.385 127.353 133.786 126.731 135.536C126.109 137.314 127.163 139.523 128.651 140.196C130.192 140.896 132.599 140.196 134.222 139.604C134.006 138.769 132.329 138.634 132.356 137.449L132.329 137.476ZM115.615 123.2C116.427 124.52 117.779 125.436 119.023 126.379C120.294 127.321 121.538 128.372 122.728 129.18C122.89 128.318 123.242 127.671 123.62 127.025C122.647 125.975 121.809 124.789 121.754 122.796C120.24 121.746 116.481 121.099 115.588 123.173L115.615 123.2ZM134.492 141.785C135.628 142.082 137.035 142.513 138.279 142.459C137.386 141.92 136.656 141.22 135.763 140.681C135.601 141.327 134.952 141.462 134.492 141.785Z" fill="black"/>
    <path fill-rule="evenodd" clip-rule="evenodd" d="M111.072 66.9661C112.641 66.8314 114.561 67.3701 115.913 68.0704C116.968 68.6091 119.104 69.7404 119.104 70.8178C119.104 71.3295 118.672 71.7066 118.374 71.7874C117.59 71.949 117.211 71.3564 116.805 71.0602C115.534 70.1174 113.722 68.8246 111.234 68.9862C110.369 69.04 109.476 69.3363 108.773 69.5787C107.962 69.875 105.879 71.0332 105.798 69.3633C105.744 68.3936 107.205 67.9088 107.881 67.6664C108.99 67.2623 109.909 67.1007 111.072 66.993V66.9661Z" fill="black"/>
    <path fill-rule="evenodd" clip-rule="evenodd" d="M131.787 67.47C132.112 67.3892 132.815 67.4161 132.977 68.0626C133.194 68.9783 132.328 69.8941 131.95 70.5675C131.544 71.2678 131.057 72.3991 130.327 72.426C129.867 72.426 129.353 72.0489 129.299 71.5372C129.218 70.8638 129.948 70.0827 130.327 69.3824C130.814 68.5474 130.976 67.6316 131.814 67.47H131.787Z" fill="black"/>
    <path fill-rule="evenodd" clip-rule="evenodd" d="M112.343 75.8238C113.208 75.6622 113.614 76.5511 114.128 77.4399C114.615 78.2749 115.751 80.1065 114.209 80.322C113.127 80.4836 112.343 78.5981 111.91 77.817C111.478 77.0628 111.315 76.0124 112.343 75.8238Z" fill="black"/>
    <path fill-rule="evenodd" clip-rule="evenodd" d="M99.0369 77.0877C100.038 76.7376 100.389 77.4918 100.741 78.3537C101.146 79.2964 101.741 81.101 100.065 80.8586C99.2803 80.7509 97.6306 77.5726 99.0369 77.0877Z" fill="black"/>
    <path fill-rule="evenodd" clip-rule="evenodd" d="M113.667 87.6693C114.262 87.5077 114.83 87.804 114.938 88.3427C115.127 89.2315 114.262 90.4705 113.667 91.0092C113.234 91.4132 112.234 91.8711 111.449 91.9789C109.935 92.1405 107.717 92.0597 107.88 90.6591C108.042 89.2854 111.125 90.282 112.126 89.6355C112.883 89.1238 112.639 87.9925 113.694 87.7232L113.667 87.6693Z" fill="black"/>
    <path fill-rule="evenodd" clip-rule="evenodd" d="M138.224 142.536C136.953 142.616 135.573 142.158 134.438 141.862C134.897 141.512 135.546 141.377 135.709 140.758C136.601 141.297 137.331 141.997 138.224 142.536Z" fill="black"/>
    <g style="mix-blend-mode:screen">
        <path fill-rule="evenodd" clip-rule="evenodd" d="M29.4242 94.8125H123.052C127.974 94.8125 133.221 99.58 134.763 105.425L149.583 161.88C151.125 167.752 148.366 172.493 143.444 172.493H49.8158C44.8937 172.493 39.647 167.725 38.1055 161.88L23.2851 105.425C21.7436 99.553 24.5021 94.8125 29.4242 94.8125Z" fill="#C798FF"/>
    </g>
    <g style="mix-blend-mode:multiply">
        <path fill-rule="evenodd" clip-rule="evenodd" d="M29.4242 94.8125H123.052C127.974 94.8125 133.221 99.58 134.763 105.425L149.583 161.88C151.125 167.752 148.366 172.493 143.444 172.493H49.8158C44.8937 172.493 39.647 167.725 38.1055 161.88L23.2851 105.425C21.7436 99.553 24.5021 94.8125 29.4242 94.8125Z" fill="#7000FF"/>
    </g>
    <path d="M124.541 94.0485C128.652 94.0485 133.249 98.3311 134.601 103.395L149.422 159.85C150.125 162.544 149.828 165.022 148.583 166.638C147.718 167.742 146.474 168.335 144.96 168.335H51.3314C47.2206 168.335 42.6231 164.052 41.2708 158.989L26.4504 102.533C25.7473 99.8125 26.0448 97.3615 27.2888 95.7454C28.1542 94.641 29.3983 94.0485 30.9128 94.0485H124.541ZM124.541 92.3516H30.9398C26.0177 92.3516 23.2592 97.0921 24.8007 102.964L39.6211 159.42C41.1627 165.291 46.4093 170.032 51.3314 170.032H144.96C149.882 170.032 152.64 165.264 151.099 159.42L136.278 102.964C134.737 97.0921 129.49 92.3516 124.568 92.3516H124.541Z" fill="#EDDAFF"/>
    <path d="M75.7788 163.443H54.008C53.5482 163.443 53.1426 163.065 53.1426 162.581C53.1426 162.096 53.5212 161.719 54.008 161.719H75.7788C76.2386 161.719 76.6443 162.096 76.6443 162.581C76.6443 163.065 76.2656 163.443 75.7788 163.443Z" fill="#915BFF"/>
    <path d="M63.7156 159.833H52.465C52.0053 159.833 51.5996 159.456 51.5996 158.971C51.5996 158.486 51.9782 158.109 52.465 158.109H63.7156C64.1753 158.109 64.581 158.486 64.581 158.971C64.581 159.456 64.2024 159.833 63.7156 159.833Z" fill="#915BFF"/>
    <path d="M74.4518 159.81H67.6096C67.1498 159.81 66.7441 159.433 66.7441 158.948C66.7441 158.463 67.1228 158.086 67.6096 158.086H74.4518C74.9116 158.086 75.3173 158.463 75.3173 158.948C75.3173 159.433 74.9386 159.81 74.4518 159.81Z" fill="#915BFF"/>
    <path d="M73.4527 156.31H51.6818C51.2221 156.31 50.8164 155.933 50.8164 155.448C50.8164 154.963 51.195 154.586 51.6818 154.586H73.4527C73.9124 154.586 74.3181 154.963 74.3181 155.448C74.3181 155.933 73.9395 156.31 73.4527 156.31Z" fill="#915BFF"/>
    <path d="M45.8945 159.477C45.7052 159.477 45.4888 159.397 45.3265 159.262C44.975 158.939 44.9479 158.427 45.2454 158.05L47.3008 155.734L44.2177 153.552C43.8391 153.282 43.7309 152.744 44.0284 152.367C44.2989 151.99 44.8397 151.882 45.2184 152.178L49.0857 154.925C49.275 155.06 49.4103 155.276 49.4373 155.518C49.4644 155.76 49.3832 156.003 49.221 156.164L46.5435 159.208C46.3813 159.397 46.1379 159.504 45.8945 159.504V159.477Z" fill="#915BFF"/>
    <path d="M72.0718 148.497H50.301C49.8412 148.497 49.4355 148.12 49.4355 147.635C49.4355 147.151 49.8142 146.773 50.301 146.773H72.0718C72.5316 146.773 72.9372 147.151 72.9372 147.635C72.9372 148.12 72.5586 148.497 72.0718 148.497Z" fill="#915BFF"/>
    <path d="M71.1812 144.771H49.4103C48.9506 144.771 48.5449 144.394 48.5449 143.909C48.5449 143.424 48.9235 143.047 49.4103 143.047H71.1812C71.6409 143.047 72.0466 143.424 72.0466 143.909C72.0466 144.394 71.668 144.771 71.1812 144.771Z" fill="#915BFF"/>
    <path d="M69.9077 140.411H48.1369C47.6772 140.411 47.2715 140.034 47.2715 139.549C47.2715 139.065 47.6501 138.688 48.1369 138.688H69.9077C70.3675 138.688 70.7732 139.065 70.7732 139.549C70.7732 140.034 70.3945 140.411 69.9077 140.411Z" fill="#915BFF"/>
    <path d="M42.3496 143.595C42.1602 143.595 41.9439 143.514 41.7816 143.379C41.43 143.056 41.403 142.544 41.7005 142.167L43.7559 139.851L40.6728 137.669C40.2942 137.4 40.186 136.861 40.4835 136.484C40.7539 136.107 41.2948 135.999 41.6734 136.295L45.5408 139.043C45.7301 139.177 45.8653 139.393 45.8924 139.635C45.9194 139.878 45.8383 140.12 45.676 140.282L42.9986 143.325C42.8364 143.514 42.593 143.622 42.3496 143.622V143.595Z" fill="#915BFF"/>
    <path d="M67.5821 130.911H39.8615C39.4018 130.911 38.9961 130.534 38.9961 130.049C38.9961 129.565 39.3747 129.188 39.8615 129.188H67.5821C68.0419 129.188 68.4476 129.565 68.4476 130.049C68.4476 130.534 68.069 130.911 67.5821 130.911Z" fill="#915BFF"/>
    <path d="M66.1232 125.708H38.4025C37.9428 125.708 37.5371 125.331 37.5371 124.846C37.5371 124.361 37.9157 123.984 38.4025 123.984H66.1232C66.5829 123.984 66.9886 124.361 66.9886 124.846C66.9886 125.331 66.61 125.708 66.1232 125.708Z" fill="#915BFF"/>
    <path fill-rule="evenodd" clip-rule="evenodd" d="M35.2931 106.289H58.4162C60.8773 106.289 63.5006 108.417 64.2578 111.03L65.7994 116.336C66.5566 118.948 65.2044 121.076 62.7163 121.076H39.5932C37.1322 121.076 34.5088 118.948 33.7516 116.336L32.2101 111.03C31.4528 108.417 32.805 106.289 35.2661 106.289H35.2931Z" fill="#EDDAFF"/>
    <path fill-rule="evenodd" clip-rule="evenodd" d="M89.6812 153.984H138.388C139.389 153.984 140.471 154.954 140.795 156.139L142.797 163.654C143.121 164.839 142.553 165.809 141.553 165.809H92.8184C91.8178 165.809 90.736 164.839 90.4114 163.654L88.4372 156.139C88.1127 154.954 88.6806 153.984 89.6812 153.984Z" fill="#854EE5"/>
    <path fill-rule="evenodd" clip-rule="evenodd" d="M87.1901 142.758C86.0543 142.758 85.1348 143.674 85.1348 144.805C85.1348 145.936 86.0543 146.852 87.1901 146.852H114.018C113.964 145.505 113.91 144.131 113.802 142.785H87.1901V142.758Z" fill="#EDDAFF"/>
    <path fill-rule="evenodd" clip-rule="evenodd" d="M130.816 142.753H113.832C113.913 144.1 113.994 145.474 114.048 146.821H130.816C131.952 146.821 132.871 145.905 132.871 144.774C132.871 143.642 131.952 142.727 130.816 142.727V142.753Z" fill="#854EE5"/>
    <path fill-rule="evenodd" clip-rule="evenodd" d="M127.381 128.394H93.1426C93.2508 129.741 93.3319 131.115 93.3589 132.461H127.381C128.517 132.461 129.436 131.546 129.436 130.414C129.436 129.283 128.517 128.367 127.381 128.367V128.394Z" fill="#854EE5"/>
    <path fill-rule="evenodd" clip-rule="evenodd" d="M83.7839 128.398C82.648 128.398 81.7285 129.314 81.7285 130.445C81.7285 131.577 82.648 132.493 83.7839 132.493H93.3847C93.3577 131.146 93.2765 129.772 93.1683 128.425H83.7839V128.398Z" fill="#EDDAFF"/>
    <path fill-rule="evenodd" clip-rule="evenodd" d="M79.5378 112.562H123.161C124.296 112.562 125.216 113.478 125.216 114.61C125.216 115.741 124.296 116.657 123.161 116.657H79.5378C78.4019 116.657 77.4824 115.741 77.4824 114.61C77.4824 113.478 78.4019 112.562 79.5378 112.562Z" fill="#EDDAFF"/>
    <path fill-rule="evenodd" clip-rule="evenodd" d="M92.5744 123.953C95.982 123.953 98.7405 126.7 98.7405 130.094C98.7405 133.488 95.982 136.235 92.5744 136.235C89.1667 136.235 86.4082 133.488 86.4082 130.094C86.4082 126.7 89.1667 123.953 92.5744 123.953Z" fill="#D9B8FF"/>
    <path fill-rule="evenodd" clip-rule="evenodd" d="M113.102 139.195C116.509 139.195 119.268 141.943 119.268 145.336C119.268 148.73 116.509 151.478 113.102 151.478C109.694 151.478 106.936 148.73 106.936 145.336C106.936 141.943 109.694 139.195 113.102 139.195Z" fill="#D9B8FF"/>
    <path fill-rule="evenodd" clip-rule="evenodd" d="M120.213 109C123.621 109 126.379 111.747 126.379 115.141C126.379 118.535 123.621 121.282 120.213 121.282C116.805 121.282 114.047 118.535 114.047 115.141C114.047 111.747 116.805 109 120.213 109Z" fill="#D9B8FF"/>
    <path d="M57.7934 91.339C57.2795 91.339 56.8198 91.0158 56.6846 90.5041C56.5223 89.8846 56.8739 89.2381 57.4689 89.0496C58.0909 88.888 58.7129 89.2112 58.8752 89.8038C59.0645 90.4771 58.7129 91.1236 58.0909 91.2852C57.9827 91.3121 57.8745 91.339 57.7934 91.339ZM56.6034 87.218C56.1166 87.218 55.6569 86.8948 55.4946 86.383C55.3053 85.7635 55.6569 85.0901 56.2789 84.9285C56.9009 84.74 57.5229 85.0632 57.6852 85.6827C57.8745 86.3561 57.5229 87.0025 56.928 87.1641C56.8198 87.1911 56.7116 87.218 56.6034 87.218Z" fill="#915BFF"/>
    <g style="mix-blend-mode:screen">
        <path fill-rule="evenodd" clip-rule="evenodd" d="M23.4483 48.1875H66.2868C68.5315 48.1875 70.9385 50.3692 71.6416 53.0627L78.4298 78.9203C79.133 81.6137 77.8889 83.7955 75.6172 83.7955H32.7787C30.534 83.7955 28.127 81.6137 27.4239 78.9203L20.6357 53.0627C19.9325 50.3692 21.1766 48.1875 23.4483 48.1875Z" fill="#C798FF"/>
    </g>
    <g style="mix-blend-mode:multiply">
        <path fill-rule="evenodd" clip-rule="evenodd" d="M23.4483 48.1875H66.2868C68.5315 48.1875 70.9385 50.3692 71.6416 53.0627L78.4298 78.9203C79.133 81.6137 77.8889 83.7955 75.6172 83.7955H32.7787C30.534 83.7955 28.127 81.6137 27.4239 78.9203L20.6357 53.0627C19.9325 50.3692 21.1766 48.1875 23.4483 48.1875Z" fill="#7000FF"/>
    </g>
    <path fill-rule="evenodd" clip-rule="evenodd" d="M54.4119 50.9844H59.3069C63.7152 50.9844 68.2586 55.0246 69.4216 60.0076C70.5845 64.9905 67.9612 69.0308 63.5529 69.0308H58.6578C54.2496 69.0308 49.7061 64.9905 48.5432 60.0076C47.3803 55.0246 50.0036 50.9844 54.4119 50.9844Z" fill="#EBD7FF"/>
    <path d="M67.7728 48.4C69.0709 48.4 70.91 49.8814 71.4779 51.9824L78.2661 77.8399C78.5095 78.7826 78.4283 79.6445 78.0497 80.1563C77.8333 80.4257 77.5359 80.5873 77.1302 80.5873H34.2917C32.9935 80.5873 31.1545 79.1058 30.5866 77.0049L23.7984 51.1474C23.555 50.2047 23.6361 49.3427 24.0148 48.831C24.2311 48.5616 24.5286 48.4 24.9343 48.4H67.7728ZM67.7728 46.7031H24.9343C22.6896 46.7031 21.4185 48.8849 22.1216 51.5783L28.9098 77.4359C29.613 80.1294 32.0199 82.3111 34.2646 82.3111H77.1031C79.3478 82.3111 80.6189 80.1294 79.9158 77.4359L73.1276 51.5783C72.4244 48.8849 70.0175 46.7031 67.7728 46.7031Z" fill="#EDDAFF"/>
    <path fill-rule="evenodd" clip-rule="evenodd" d="M35.7812 46.4007L37.6744 48.9056L39.8379 54.2657L40.7574 58.9254L42.4342 60.0028L44.4896 57.9558L45.5173 51.7877L48.3299 58.1174L49.9796 58.8177L51.8727 57.0939L54.2797 56.4474L55.3615 54.9929L56.2269 51.7877L54.1715 43.2224L58.3093 46.1044L59.337 49.0942L60.2565 53.5385L61.7169 54.8313L64.4484 53.8617C64.4484 53.8617 64.6107 49.2558 64.4484 48.9865C64.2862 48.7171 60.9056 41.7679 60.9056 41.7679L57.5791 38.1317L51.3319 34.7109L40.514 37.4852C40.514 37.4852 37.0253 40.906 36.9712 41.4985C36.9171 42.0911 35.8353 46.3738 35.8353 46.3738L35.7812 46.4007Z" fill="white"/>
    <path fill-rule="evenodd" clip-rule="evenodd" d="M63.961 45.1942C60.9591 38.4335 54.9281 33.9623 47.3286 32.023C41.7304 30.5954 34.8611 30.9186 30.0201 32.7502C25.2062 34.5549 21.7445 37.8679 19.2564 41.8542C15.0375 48.561 12.7387 57.1802 10.3047 65.557H12.3871C12.5764 64.9913 12.8198 64.3718 12.9551 63.9139C14.9293 57.1802 16.7142 50.7158 19.7973 44.9787C23.3942 38.2719 28.9113 33.666 37.7819 33.1542C45.4355 32.6964 51.6828 35.0666 55.9829 38.3258C59.2012 40.7499 61.8786 43.9013 63.1226 48.7496C63.4742 50.1233 63.9881 52.9245 62.9874 53.4901C62.6088 53.7056 61.7163 53.5709 61.3647 53.2746C60.6075 52.6282 60.6886 50.3118 60.3371 49.0459C59.2012 45.0595 56.064 42.5545 53.1432 40.6152C52.3048 39.888 52.0073 37.8409 50.6281 37.8679C48.789 37.9217 50.2224 39.9418 50.7633 40.7499C52.1426 42.7161 53.035 44.2514 54.0357 46.8103C55.0634 49.4499 56.5508 54.8638 53.008 55.8335C53.4407 50.8774 51.4664 46.083 49.5192 42.5276C49.0595 41.6926 48.3834 39.6725 47.2205 39.7264C45.5978 39.7802 46.5443 41.531 47.0852 42.3929C48.9243 45.4904 50.5199 48.7765 51.0337 53.1938C51.223 54.8638 51.223 56.857 49.7626 57.6381C48.6809 56.5607 48.3834 54.8907 47.7613 53.3554C47.4639 52.6282 47.1664 51.901 46.7877 51.2006C46.4362 50.5273 45.8412 49.9347 45.5978 49.2883C45.111 48.0223 44.8946 46.487 44.4078 45.2211C44.0292 44.2514 43.4613 42.0697 42.2443 42.1774C40.4864 42.3391 42.082 44.9248 42.3795 45.7329C43.6776 49.1267 45.2462 55.8065 42.8122 59.1195C40.5675 58.4731 41.487 54.9177 40.7298 52.4666C40.3782 51.3084 39.9455 50.5273 39.2423 49.5846C38.8637 49.0459 37.8631 47.5375 36.9435 47.5914C36.4838 47.6183 36.1052 48.0223 36.0511 48.3186C35.9158 49.0459 36.6461 49.6923 37.1599 50.3118C37.9442 51.2545 38.5392 52.0356 38.8637 53.4093C39.1071 54.4867 39.026 56.1836 39.1612 57.0994C39.2964 57.9344 39.7291 58.931 40.1077 59.4966C40.4864 60.0353 41.0002 60.574 41.487 60.8703C44.6512 62.4325 46.0305 57.9882 46.1387 54.8907C46.7066 57.261 48.3022 61.1666 51.2771 59.1195C51.7639 58.7694 51.9803 58.2037 52.4671 58.0152C53.1432 57.7458 53.8193 57.8536 54.4684 57.5842C58.4439 55.8604 57.4433 49.3421 55.6583 45.3019C56.6049 46.3524 57.5515 47.349 58.1735 49.0728C58.8226 50.7966 58.5251 52.7898 59.3634 54.1096C60.1477 55.3217 62.3924 56.2105 64.0421 55.2948C67.0441 53.5979 65.2051 47.8607 64.0421 45.2211L63.961 45.1942Z" fill="black"/>
</svg>
