<svg width="393" height="406" viewBox="0 0 393 406" fill="none" xmlns="http://www.w3.org/2000/svg">
<g clip-path="url(#clip0_852_20491)">
<rect x="-7" y="-1.44531" width="400" height="490.259" fill="#7000FF"/>
<g opacity="0.4">
<path d="M38.6523 18.7982L26.8035 12.8918L16.7021 33.8844C15.5632 36.2511 13.9454 36.6917 11.4056 35.4256L-33.8013 12.8907C-37.0582 11.0813 -40.8755 10.6068 -44.506 11.5601C-46.2439 12.1253 -47.8482 13.075 -49.2062 14.3424C-50.5641 15.6097 -51.6426 17.1639 -52.3657 18.8955L-52.5023 19.1795L-52.9899 18.9365L-52.8646 18.6761C-51.9647 17.0265 -51.4246 15.1989 -51.2832 13.324C-51.1417 11.4492 -51.4022 9.57335 -52.0462 7.83072C-53.5269 4.32332 -56.2371 1.54319 -59.6419 0.0389646L-104.883 -22.5129C-107.423 -23.779 -108.055 -25.3855 -106.934 -27.7167L-98.0657 -46.1457L-109.915 -52.0521L-120.713 -29.6116C-121.567 -27.9198 -122.083 -26.0728 -122.228 -24.183C-122.374 -22.2932 -122.146 -20.4001 -121.56 -18.6191C-120.977 -16.8109 -120.041 -15.1519 -118.809 -13.7433C-117.577 -12.3347 -116.076 -11.2061 -114.396 -10.4264L-66.3658 13.5159C-61.8304 15.7767 -60.8603 19.1947 -63.36 24.3896L-70.193 38.5898L-57.3011 45.0162L-50.4681 30.816C-47.9854 25.6566 -44.7205 24.3057 -40.1965 26.5609L7.84498 50.5088C9.48 51.3815 11.2766 51.897 13.1251 52.0238C14.9736 52.1507 16.8351 51.8862 18.5961 51.2465C20.3383 50.6263 21.9471 49.6486 23.3247 48.3729C24.7022 47.0972 25.8197 45.5502 26.6091 43.8261L38.6523 18.7982Z" fill="#5F01D6"/>
<path d="M46.0761 3.36851L34.2273 -2.53793L44.3288 -23.5306C45.4676 -25.8973 44.8178 -27.4683 42.2779 -28.7344L-2.92889 -51.2693C-6.33014 -52.7789 -9.03871 -55.5574 -10.5246 -59.061C-11.1513 -60.805 -11.3978 -62.6773 -11.2466 -64.5462C-11.0954 -66.4151 -10.5502 -68.2352 -9.64943 -69.8782L-9.51277 -70.1622L-10.0003 -70.4052L-10.1256 -70.1449C-10.8543 -68.4099 -11.9418 -66.8552 -13.3103 -65.592C-14.6788 -64.3288 -16.2946 -63.3883 -18.042 -62.8377C-21.6722 -61.878 -25.4917 -62.3528 -28.7467 -64.1684L-73.9875 -86.7203C-76.5274 -87.9863 -78.1623 -87.5102 -79.2841 -85.179L-88.1519 -66.75L-100.001 -72.6565L-89.2025 -95.097C-88.4131 -96.8211 -87.2956 -98.3681 -85.918 -99.6438C-84.5405 -100.92 -82.9316 -101.897 -81.1895 -102.517C-79.4285 -103.157 -77.567 -103.422 -75.7185 -103.295C-73.87 -103.168 -72.0734 -102.652 -70.4384 -101.78L-22.4083 -77.8375C-17.8728 -75.5767 -14.625 -76.8921 -12.1253 -82.087L-5.29232 -96.2872L7.59961 -89.8607L0.766622 -75.6605C-1.71603 -70.5011 -0.762967 -67.0477 3.76112 -64.7925L51.8026 -40.8446C53.4823 -40.0649 54.9839 -38.9363 56.2156 -37.5277C57.4473 -36.1191 58.3833 -34.46 58.9664 -32.6519C59.5531 -30.8708 59.7805 -28.9777 59.6349 -27.0879C59.4893 -25.1981 58.9736 -23.3511 58.1193 -21.6593L46.0761 3.36851Z" fill="#5F01D6"/>
<path d="M381.592 189.744L369.743 183.837L359.642 204.83C358.503 207.196 356.885 207.637 354.345 206.371L309.138 183.836C305.881 182.027 302.064 181.552 298.433 182.505C296.696 183.071 295.091 184.02 293.733 185.288C292.375 186.555 291.297 188.109 290.574 189.841L290.437 190.125L289.95 189.882L290.075 189.621C290.975 187.972 291.515 186.144 291.656 184.269C291.798 182.394 291.537 180.519 290.893 178.776C289.413 175.269 286.702 172.488 283.298 170.984L238.057 148.432C235.517 147.166 234.884 145.56 236.006 143.229L244.874 124.8L233.025 118.893L222.227 141.334C221.372 143.026 220.857 144.873 220.711 146.762C220.566 148.652 220.793 150.545 221.38 152.326C221.963 154.134 222.899 155.793 224.13 157.202C225.362 158.611 226.864 159.739 228.544 160.519L276.574 184.461C281.109 186.722 282.079 190.14 279.579 195.335L272.746 209.535L285.638 215.962L292.471 201.761C294.954 196.602 298.219 195.251 302.743 197.506L350.784 221.454C352.419 222.327 354.216 222.842 356.065 222.969C357.913 223.096 359.775 222.831 361.536 222.192C363.278 221.572 364.887 220.594 366.264 219.318C367.642 218.043 368.759 216.496 369.549 214.771L381.592 189.744Z" fill="#5F01D6"/>
<path d="M389.018 174.314L377.169 168.407L387.27 147.415C388.409 145.048 387.759 143.477 385.219 142.211L340.013 119.676C336.611 118.166 333.903 115.388 332.417 111.884C331.79 110.14 331.544 108.268 331.695 106.399C331.846 104.53 332.391 102.71 333.292 101.067L333.429 100.783L332.941 100.54L332.816 100.8C332.087 102.535 331 104.09 329.631 105.353C328.263 106.617 326.647 107.557 324.899 108.108C321.269 109.067 317.45 108.592 314.195 106.777L268.954 84.2251C266.414 82.959 264.779 83.4351 263.657 85.7663L254.79 104.195L242.941 98.2888L253.739 75.8483C254.528 74.1242 255.646 72.5772 257.023 71.3015C258.401 70.0258 260.01 69.0481 261.752 68.4279C263.513 67.7882 265.374 67.5237 267.223 67.6505C269.071 67.7774 270.868 68.2928 272.503 69.1655L320.533 93.1078C325.069 95.3686 328.316 94.0533 330.816 88.8583L337.649 74.6582L350.541 81.0846L343.708 95.2848C341.225 100.444 342.178 103.898 346.703 106.153L394.744 130.101C396.424 130.88 397.925 132.009 399.157 133.418C400.389 134.826 401.325 136.485 401.908 138.293C402.494 140.075 402.722 141.968 402.576 143.857C402.431 145.747 401.915 147.594 401.061 149.286L389.018 174.314Z" fill="#5F01D6"/>
<path d="M553.061 275.22L541.212 269.314L531.11 290.306C529.971 292.673 528.354 293.114 525.814 291.848L480.607 269.313C477.35 267.503 473.533 267.029 469.902 267.982C468.164 268.547 466.56 269.497 465.202 270.764C463.844 272.032 462.766 273.586 462.043 275.317L461.906 275.601L461.418 275.358L461.544 275.098C462.444 273.448 462.984 271.621 463.125 269.746C463.267 267.871 463.006 265.995 462.362 264.253C460.881 260.745 458.171 257.965 454.766 256.461L409.526 233.909C406.986 232.643 406.353 231.036 407.475 228.705L416.342 210.276L404.494 204.37L393.696 226.81C392.841 228.502 392.326 230.349 392.18 232.239C392.034 234.129 392.262 236.022 392.848 237.803C393.432 239.611 394.368 241.27 395.599 242.679C396.831 244.087 398.332 245.216 400.012 245.996L448.042 269.938C452.578 272.199 453.548 275.617 451.048 280.811L444.215 295.012L457.107 301.438L463.94 287.238C466.423 282.078 469.688 280.728 474.212 282.983L522.253 306.931C523.888 307.803 525.685 308.319 527.533 308.446C529.382 308.573 531.243 308.308 533.004 307.668C534.746 307.048 536.355 306.07 537.733 304.795C539.11 303.519 540.228 301.972 541.017 300.248L553.061 275.22Z" fill="#5F01D6"/>
<path d="M210.121 104.275L198.272 98.3683L188.171 119.361C187.032 121.728 185.414 122.168 182.874 120.902L137.667 98.3673C134.411 96.5579 130.593 96.0834 126.963 97.0366C125.225 97.6018 123.621 98.5516 122.263 99.8189C120.905 101.086 119.826 102.64 119.103 104.372L118.966 104.656L118.479 104.413L118.604 104.153C119.504 102.503 120.044 100.675 120.186 98.8006C120.327 96.9257 120.067 95.0499 119.423 93.3073C117.942 89.7999 115.232 87.0197 111.827 85.5155L66.5861 62.9637C64.0462 61.6976 63.4135 60.091 64.5352 57.7598L73.403 39.3309L61.5542 33.4245L50.7561 55.865C49.9018 57.5568 49.3861 59.4038 49.2405 61.2936C49.0949 63.1834 49.3223 65.0764 49.909 66.8575C50.4921 68.6657 51.4281 70.3247 52.6598 71.7333C53.8915 73.1419 55.393 74.2705 57.0728 75.0502L105.103 98.9925C109.638 101.253 110.608 104.671 108.109 109.866L101.276 124.066L114.168 130.493L121.001 116.293C123.483 111.133 126.748 109.782 131.272 112.037L179.314 135.985C180.949 136.858 182.745 137.374 184.594 137.5C186.442 137.627 188.304 137.363 190.065 136.723C191.807 136.103 193.416 135.125 194.793 133.849C196.171 132.574 197.288 131.027 198.078 129.303L210.121 104.275Z" fill="#5F01D6"/>
<path d="M217.547 88.8451L205.698 82.9386L215.799 61.946C216.938 59.5793 216.288 58.0083 213.749 56.7422L168.542 34.2073C165.141 32.6977 162.432 29.9192 160.946 26.4155C160.319 24.6716 160.073 22.7992 160.224 20.9303C160.375 19.0614 160.921 17.2414 161.821 15.5984L161.958 15.3144L161.47 15.0713L161.345 15.3317C160.616 17.0667 159.529 18.6214 158.16 19.8846C156.792 21.1478 155.176 22.0883 153.429 22.6389C149.798 23.5986 145.979 23.1237 142.724 21.3082L97.4832 -1.24369C94.9433 -2.50976 93.3084 -2.03362 92.1866 0.297579L83.3188 18.7265L71.47 12.8201L82.2682 -9.62043C83.0576 -11.3446 84.1751 -12.8916 85.5527 -14.1673C86.9302 -15.4429 88.5391 -16.4206 90.2812 -17.0408C92.0422 -17.6805 93.9038 -17.945 95.7522 -17.8182C97.6007 -17.6914 99.3973 -17.1759 101.032 -16.3032L149.062 7.63905C153.598 9.89989 156.846 8.5845 159.345 3.3896L166.178 -10.8106L179.07 -4.38416L172.237 9.81603C169.755 14.9754 170.708 18.4289 175.232 20.6841L223.273 44.632C224.953 45.4117 226.455 46.5403 227.686 47.9489C228.918 49.3575 229.854 51.0165 230.437 52.8247C231.024 54.6058 231.251 56.4988 231.106 58.3886C230.96 60.2784 230.444 62.1254 229.59 63.8172L217.547 88.8451Z" fill="#5F01D6"/>
<path d="M236.223 491.853L224.374 485.946L234.475 464.954C235.614 462.587 234.964 461.016 232.424 459.75L187.218 437.215C183.816 435.706 181.108 432.927 179.622 429.423C178.995 427.679 178.749 425.807 178.9 423.938C179.051 422.069 179.596 420.249 180.497 418.606L180.634 418.322L180.146 418.079L180.021 418.339C179.292 420.074 178.205 421.629 176.836 422.892C175.468 424.156 173.852 425.096 172.104 425.647C168.474 426.606 164.655 426.132 161.4 424.316L116.159 401.764C113.619 400.498 111.984 400.974 110.862 403.305L101.995 421.734L90.1458 415.828L100.944 393.387C101.733 391.663 102.851 390.116 104.228 388.841C105.606 387.565 107.215 386.587 108.957 385.967C110.718 385.327 112.58 385.063 114.428 385.19C116.276 385.316 118.073 385.832 119.708 386.705L167.738 410.647C172.274 412.908 175.521 411.592 178.021 406.397L184.854 392.197L197.746 398.624L190.913 412.824C188.43 417.983 189.384 421.437 193.908 423.692L241.949 447.64C243.629 448.419 245.13 449.548 246.362 450.957C247.594 452.365 248.53 454.024 249.113 455.833C249.7 457.614 249.927 459.507 249.781 461.396C249.636 463.286 249.12 465.133 248.266 466.825L236.223 491.853Z" fill="#5F01D6"/>
<path d="M57.3261 421.806L45.4773 415.9L35.3759 436.892C34.2371 439.259 32.6192 439.7 30.0794 438.433L-15.1274 415.899C-18.3844 414.089 -22.2016 413.615 -25.8322 414.568C-27.57 415.133 -29.1744 416.083 -30.5324 417.35C-31.8903 418.618 -32.9688 420.172 -33.6919 421.903L-33.8285 422.187L-34.3161 421.944L-34.1908 421.684C-33.2908 420.034 -32.7508 418.207 -32.6093 416.332C-32.4678 414.457 -32.7284 412.581 -33.3723 410.839C-34.853 407.331 -37.5632 404.551 -40.968 403.047L-86.2089 380.495C-88.7487 379.229 -89.3815 377.622 -88.2597 375.291L-79.3919 356.862L-91.2407 350.956L-102.039 373.396C-102.893 375.088 -103.409 376.935 -103.554 378.825C-103.7 380.715 -103.473 382.608 -102.886 384.389C-102.303 386.197 -101.367 387.856 -100.135 389.265C-98.9035 390.673 -97.4019 391.802 -95.7221 392.581L-47.692 416.524C-43.1566 418.785 -42.1864 422.203 -44.6862 427.397L-51.5192 441.598L-38.6272 448.024L-31.7942 433.824C-29.3116 428.664 -26.0467 427.314 -21.5226 429.569L26.5188 453.517C28.1538 454.389 29.9505 454.905 31.7989 455.032C33.6474 455.158 35.509 454.894 37.2699 454.254C39.0121 453.634 40.6209 452.656 41.9985 451.381C43.3761 450.105 44.4936 448.558 45.283 446.834L57.3261 421.806Z" fill="#5F01D6"/>
<path d="M64.7519 406.376L52.9031 400.47L63.0046 379.477C64.1434 377.111 63.4935 375.54 60.9537 374.273L15.7469 351.739C12.3456 350.229 9.63707 347.45 8.1512 343.947C7.52447 342.203 7.27803 340.33 7.42923 338.462C7.58043 336.593 8.12561 334.773 9.02636 333.13L9.16301 332.846L8.67545 332.603L8.55018 332.863C7.82149 334.598 6.73399 336.153 5.36546 337.416C3.99694 338.679 2.3812 339.62 0.633785 340.17C-2.99643 341.13 -6.81593 340.655 -10.0709 338.839L-55.3117 316.288C-57.8516 315.021 -59.4865 315.498 -60.6083 317.829L-69.4761 336.258L-81.3249 330.351L-70.5267 307.911C-69.7373 306.187 -68.6198 304.64 -67.2423 303.364C-65.8647 302.088 -64.2558 301.111 -62.5137 300.49C-60.7527 299.851 -58.8912 299.586 -57.0427 299.713C-55.1942 299.84 -53.3976 300.355 -51.7626 301.228L-3.73248 325.17C0.802941 327.431 4.05073 326.116 6.55047 320.921L13.3835 306.721L26.2754 313.147L19.4424 327.347C16.9597 332.507 17.9128 335.96 22.4369 338.215L70.4783 362.163C72.1581 362.943 73.6597 364.072 74.8914 365.48C76.1231 366.889 77.0591 368.548 77.6421 370.356C78.2288 372.137 78.4563 374.03 78.3107 375.92C78.165 377.81 77.6494 379.657 76.7951 381.348L64.7519 406.376Z" fill="#5F01D6"/>
<path d="M543.725 73.7123L531.876 67.8058L521.774 88.7985C520.635 91.1652 519.018 91.6058 516.478 90.3397L471.271 67.8048C468.014 65.9954 464.197 65.5209 460.566 66.4741C458.828 67.0393 457.224 67.9891 455.866 69.2564C454.508 70.5238 453.43 72.078 452.707 73.8096L452.57 74.0936L452.082 73.8505L452.208 73.5902C453.108 71.9406 453.648 70.113 453.789 68.2381C453.931 66.3632 453.67 64.4874 453.026 62.7448C451.545 59.2374 448.835 56.4572 445.43 54.953L400.19 32.4012C397.65 31.1351 397.017 29.5285 398.139 27.1973L407.007 8.76841L395.158 2.86197L384.36 25.3025C383.505 26.9943 382.99 28.8413 382.844 30.7311C382.698 32.6209 382.926 34.5139 383.513 36.295C384.096 38.1032 385.032 39.7622 386.263 41.1708C387.495 42.5794 388.997 43.708 390.676 44.4877L438.706 68.43C443.242 70.6908 444.212 74.1088 441.712 79.3037L434.879 93.5039L447.771 99.9303L454.604 85.7301C457.087 80.5707 460.352 79.2198 464.876 81.475L512.917 105.423C514.552 106.296 516.349 106.811 518.197 106.938C520.046 107.065 521.907 106.8 523.668 106.161C525.411 105.54 527.019 104.563 528.397 103.287C529.775 102.011 530.892 100.464 531.681 98.7401L543.725 73.7123Z" fill="#5F01D6"/>
<path d="M372.254 -11.7643L360.405 -17.6707L350.304 3.32189C349.165 5.68859 347.547 6.12921 345.007 4.86314L299.8 -17.6718C296.543 -19.4812 292.726 -19.9557 289.096 -19.0024C287.358 -18.4372 285.753 -17.4875 284.395 -16.2201C283.037 -14.9528 281.959 -13.3986 281.236 -11.667L281.099 -11.383L280.612 -11.626L280.737 -11.8864C281.637 -13.536 282.177 -15.3636 282.318 -17.2385C282.46 -19.1133 282.199 -20.9892 281.555 -22.7318C280.075 -26.2392 277.365 -29.0193 273.96 -30.5235L228.719 -53.0754C226.179 -54.3415 225.546 -55.948 226.668 -58.2792L235.536 -76.7082L223.687 -82.6146L212.889 -60.1741C212.035 -58.4823 211.519 -56.6353 211.373 -54.7455C211.228 -52.8557 211.455 -50.9626 212.042 -49.1816C212.625 -47.3734 213.561 -45.7144 214.793 -44.3058C216.024 -42.8972 217.526 -41.7686 219.206 -40.9889L267.236 -17.0466C271.771 -14.7858 272.741 -11.3678 270.242 -6.1729L263.409 8.02729L276.3 14.4537L283.133 0.253526C285.616 -4.90588 288.881 -6.25677 293.405 -4.00158L341.447 19.9463C343.082 20.819 344.878 21.3345 346.727 21.4613C348.575 21.5882 350.437 21.3237 352.198 20.684C353.94 20.0638 355.549 19.0861 356.926 17.8104C358.304 16.5347 359.421 14.9877 360.211 13.2636L372.254 -11.7643Z" fill="#5F01D6"/>
<path d="M390.928 391.251L379.079 385.345L368.977 406.338C367.839 408.704 366.221 409.145 363.681 407.879L318.474 385.344C315.217 383.534 311.4 383.06 307.769 384.013C306.032 384.578 304.427 385.528 303.069 386.795C301.711 388.063 300.633 389.617 299.91 391.349L299.773 391.633L299.285 391.39L299.411 391.129C300.311 389.48 300.851 387.652 300.992 385.777C301.134 383.902 300.873 382.026 300.229 380.284C298.749 376.776 296.038 373.996 292.634 372.492L247.393 349.94C244.853 348.674 244.22 347.068 245.342 344.736L254.21 326.307L242.361 320.401L231.563 342.842C230.708 344.533 230.193 346.38 230.047 348.27C229.902 350.16 230.129 352.053 230.716 353.834C231.299 355.642 232.235 357.301 233.466 358.71C234.698 360.118 236.2 361.247 237.879 362.027L285.91 385.969C290.445 388.23 291.415 391.648 288.915 396.843L282.082 411.043L294.974 417.469L301.807 403.269C304.29 398.11 307.555 396.759 312.079 399.014L360.12 422.962C361.755 423.835 363.552 424.35 365.4 424.477C367.249 424.604 369.111 424.339 370.871 423.7C372.614 423.079 374.222 422.102 375.6 420.826C376.978 419.55 378.095 418.003 378.885 416.279L390.928 391.251Z" fill="#5F01D6"/>
<path d="M398.353 375.822L386.505 369.915L396.606 348.923C397.745 346.556 397.095 344.985 394.555 343.719L349.348 321.184C345.947 319.674 343.239 316.896 341.753 313.392C341.126 311.648 340.88 309.776 341.031 307.907C341.182 306.038 341.727 304.218 342.628 302.575L342.765 302.291L342.277 302.048L342.152 302.308C341.423 304.043 340.336 305.598 338.967 306.861C337.599 308.124 335.983 309.065 334.235 309.615C330.605 310.575 326.786 310.1 323.531 308.285L278.29 285.733C275.75 284.467 274.115 284.943 272.993 287.274L264.125 305.703L252.277 299.797L263.075 277.356C263.864 275.632 264.982 274.085 266.359 272.809C267.737 271.534 269.346 270.556 271.088 269.936C272.849 269.296 274.71 269.032 276.559 269.158C278.407 269.285 280.204 269.801 281.839 270.673L329.869 294.616C334.405 296.876 337.652 295.561 340.152 290.366L346.985 276.166L359.877 282.592L353.044 296.793C350.561 301.952 351.514 305.405 356.038 307.661L404.08 331.609C405.76 332.388 407.261 333.517 408.493 334.925C409.725 336.334 410.661 337.993 411.244 339.801C411.83 341.582 412.058 343.475 411.912 345.365C411.767 347.255 411.251 349.102 410.397 350.794L398.353 375.822Z" fill="#5F01D6"/>
<path d="M47.9882 220.306L36.1394 214.4L26.038 235.392C24.8992 237.759 23.2813 238.2 20.7415 236.933L-24.4653 214.399C-27.7223 212.589 -31.5395 212.115 -35.17 213.068C-36.9079 213.633 -38.5123 214.583 -39.8702 215.85C-41.2282 217.118 -42.3067 218.672 -43.0297 220.403L-43.1664 220.687L-43.654 220.444L-43.5287 220.184C-42.6287 218.534 -42.0887 216.707 -41.9472 214.832C-41.8057 212.957 -42.0663 211.081 -42.7102 209.339C-44.1909 205.831 -46.9011 203.051 -50.3059 201.547L-95.5468 178.995C-98.0866 177.729 -98.7194 176.122 -97.5976 173.791L-88.7298 155.362L-100.579 149.456L-111.377 171.896C-112.231 173.588 -112.747 175.435 -112.892 177.325C-113.038 179.215 -112.811 181.108 -112.224 182.889C-111.641 184.697 -110.705 186.356 -109.473 187.765C-108.241 189.173 -106.74 190.302 -105.06 191.081L-57.0299 215.024C-52.4945 217.285 -51.5243 220.703 -54.0241 225.897L-60.8571 240.098L-47.9651 246.524L-41.1321 232.324C-38.6495 227.164 -35.3846 225.814 -30.8605 228.069L17.1809 252.017C18.8159 252.889 20.6126 253.405 22.461 253.532C24.3095 253.658 26.1711 253.394 27.932 252.754C29.6742 252.134 31.283 251.156 32.6606 249.881C34.0382 248.605 35.1557 247.058 35.9451 245.334L47.9882 220.306Z" fill="#5F01D6"/>
<path d="M55.414 204.876L43.5652 198.97L53.6667 177.977C54.8055 175.611 54.1557 174.04 51.6158 172.773L6.40901 150.239C3.00776 148.729 0.299184 145.95 -1.18669 142.447C-1.81342 140.703 -2.05987 138.83 -1.90866 136.962C-1.75746 135.093 -1.21228 133.273 -0.311535 131.63L-0.174881 131.346L-0.662441 131.103L-0.787713 131.363C-1.5164 133.098 -2.6039 134.653 -3.97243 135.916C-5.34095 137.179 -6.95669 138.12 -8.70411 138.67C-12.3343 139.63 -16.1538 139.155 -19.4088 137.339L-64.6496 114.788C-67.1895 113.521 -68.8244 113.998 -69.9462 116.329L-78.814 134.758L-90.6628 128.851L-79.8646 106.411C-79.0752 104.687 -77.9577 103.14 -76.5801 101.864C-75.2026 100.588 -73.5937 99.6106 -71.8516 98.9904C-70.0906 98.3507 -68.2291 98.0862 -66.3806 98.213C-64.5321 98.3399 -62.7355 98.8553 -61.1005 99.728L-13.0704 123.67C-8.53495 125.931 -5.28716 124.616 -2.78742 119.421L4.04557 105.221L16.9375 111.647L10.1045 125.847C7.62186 131.007 8.57492 134.46 13.099 136.715L61.1404 160.663C62.8202 161.443 64.3218 162.572 65.5535 163.98C66.7852 165.389 67.7212 167.048 68.3043 168.856C68.891 170.637 69.1184 172.53 68.9728 174.42C68.8272 176.31 68.3115 178.157 67.4572 179.848L55.414 204.876Z" fill="#5F01D6"/>
<path d="M219.457 305.775L207.608 299.868L197.507 320.861C196.368 323.228 194.75 323.668 192.21 322.402L147.003 299.867C143.746 298.058 139.929 297.583 136.299 298.537C134.561 299.102 132.956 300.052 131.599 301.319C130.241 302.586 129.162 304.14 128.439 305.872L128.302 306.156L127.815 305.913L127.94 305.653C128.84 304.003 129.38 302.175 129.522 300.301C129.663 298.426 129.402 296.55 128.759 294.807C127.278 291.3 124.568 288.52 121.163 287.016L75.922 264.464C73.3822 263.198 72.7494 261.591 73.8711 259.26L82.739 240.831L70.8902 234.924L60.092 257.365C59.2377 259.057 58.7221 260.904 58.5764 262.794C58.4308 264.683 58.6582 266.576 59.2449 268.357C59.828 270.166 60.764 271.825 61.9957 273.233C63.2274 274.642 64.729 275.771 66.4087 276.55L114.439 300.492C118.974 302.753 119.944 306.171 117.445 311.366L110.612 325.566L123.504 331.993L130.337 317.793C132.819 312.633 136.084 311.282 140.608 313.537L188.65 337.485C190.285 338.358 192.081 338.874 193.93 339C195.778 339.127 197.64 338.863 199.401 338.223C201.143 337.603 202.752 336.625 204.129 335.349C205.507 334.074 206.624 332.527 207.414 330.803L219.457 305.775Z" fill="#5F01D6"/>
<path d="M226.883 290.345L215.034 284.439L225.135 263.446C226.274 261.079 225.624 259.508 223.085 258.242L177.878 235.707C174.477 234.198 171.768 231.419 170.282 227.916C169.655 226.172 169.409 224.299 169.56 222.43C169.711 220.561 170.256 218.741 171.157 217.098L171.294 216.814L170.806 216.571L170.681 216.832C169.952 218.567 168.865 220.121 167.496 221.385C166.128 222.648 164.512 223.588 162.765 224.139C159.134 225.099 155.315 224.624 152.06 222.808L106.819 200.256C104.279 198.99 102.644 199.466 101.523 201.798L92.6548 220.227L80.806 214.32L91.6041 191.88C92.3935 190.155 93.511 188.608 94.8886 187.333C96.2662 186.057 97.875 185.079 99.6172 184.459C101.378 183.819 103.24 183.555 105.088 183.682C106.937 183.809 108.733 184.324 110.368 185.197L158.398 209.139C162.934 211.4 166.182 210.085 168.681 204.89L175.514 190.689L188.406 197.116L181.573 211.316C179.091 216.475 180.044 219.929 184.568 222.184L232.609 246.132C234.289 246.912 235.791 248.04 237.022 249.449C238.254 250.858 239.19 252.517 239.773 254.325C240.36 256.106 240.587 257.999 240.442 259.889C240.296 261.778 239.78 263.625 238.926 265.317L226.883 290.345Z" fill="#5F01D6"/>
</g>
</g>
<defs>
<clipPath id="clip0_852_20491">
<rect width="393" height="406" fill="white" transform="matrix(-1 0 0 1 393 0)"/>
</clipPath>
</defs>
</svg>
