<svg width="223" height="200" viewBox="0 0 223 200" fill="none" xmlns="http://www.w3.org/2000/svg">
<path fill-rule="evenodd" clip-rule="evenodd" d="M62.7825 68.4453C85.0494 68.4453 103.11 87.1034 103.11 110.137C103.11 133.17 85.0622 151.828 62.7825 151.828C40.5027 151.828 22.4551 133.17 22.4551 110.137C22.4551 87.1034 40.5027 68.4453 62.7825 68.4453Z" fill="#E1C4FF"/>
<path fill-rule="evenodd" clip-rule="evenodd" d="M62.7826 76.7578C80.6115 76.7578 95.0574 91.6922 95.0574 110.124C95.0574 128.556 80.6115 143.491 62.7826 143.491C44.9536 143.491 30.5078 128.556 30.5078 110.124C30.5078 91.6922 44.9536 76.7578 62.7826 76.7578Z" fill="#ECD4FF"/>
<path d="M47.0545 188.01L43.0215 192.172L44.4756 193.678L48.5086 189.516L47.0545 188.01Z" fill="#9166FC"/>
<path d="M44.4756 188.025L43.0215 189.531L47.0545 193.693L48.5086 192.188L44.4756 188.025Z" fill="#9166FC"/>
<path fill-rule="evenodd" clip-rule="evenodd" d="M45.7777 179.359C47.3214 179.359 48.5691 180.649 48.5691 182.245C48.5691 183.841 47.3214 185.131 45.7777 185.131C44.2341 185.131 42.9863 183.841 42.9863 182.245C42.9863 180.649 44.2341 179.359 45.7777 179.359Z" fill="#9166FC"/>
<path d="M37.1206 179.578L34.0977 184.991H40.1564L37.1335 179.578H37.1206Z" fill="#9166FC"/>
<path d="M154.218 155.882C153.806 155.882 153.407 155.616 153.253 155.191C153.047 154.645 153.317 154.034 153.844 153.821C154.423 153.595 155.015 153.874 155.221 154.433C155.414 154.978 155.144 155.59 154.616 155.802C154.462 155.855 154.346 155.882 154.218 155.882Z" fill="#9166FC"/>
<path d="M159.454 153.862C159.042 153.862 158.644 153.596 158.489 153.17C158.283 152.625 158.554 152.013 159.094 151.801L159.184 151.774C159.711 151.561 160.303 151.84 160.509 152.399C160.715 152.944 160.445 153.556 159.904 153.769L159.827 153.795C159.711 153.835 159.583 153.862 159.467 153.862H159.454ZM164.715 151.761C164.304 151.761 163.918 151.508 163.75 151.082C163.545 150.537 163.802 149.925 164.342 149.713L164.407 149.686C164.934 149.46 165.538 149.726 165.744 150.271C165.963 150.816 165.706 151.441 165.178 151.654L165.075 151.694C164.947 151.747 164.831 151.761 164.702 151.761H164.715ZM169.938 149.566C169.539 149.566 169.153 149.327 168.999 148.928C168.78 148.383 169.012 147.758 169.539 147.532L169.616 147.492C170.144 147.266 170.748 147.518 170.967 148.05C171.186 148.596 170.941 149.221 170.427 149.447L170.349 149.487C170.221 149.54 170.079 149.566 169.951 149.566H169.938ZM175.006 147.026C174.659 147.026 174.311 146.84 174.119 146.508C173.823 146.002 173.977 145.351 174.466 145.045L174.543 145.005C175.032 144.699 175.662 144.859 175.958 145.364C176.254 145.869 176.1 146.521 175.611 146.827L175.534 146.88C175.366 146.986 175.186 147.026 175.006 147.026ZM179.727 143.848C179.405 143.848 179.084 143.688 178.891 143.396C178.569 142.917 178.672 142.252 179.135 141.92L179.212 141.866C179.676 141.534 180.319 141.64 180.64 142.119C180.962 142.598 180.859 143.263 180.396 143.595L180.319 143.648C180.139 143.781 179.933 143.848 179.727 143.848ZM184.191 140.31C183.895 140.31 183.599 140.177 183.393 139.925C183.033 139.473 183.097 138.808 183.535 138.422L183.586 138.369C184.023 137.983 184.667 138.036 185.04 138.489C185.413 138.941 185.361 139.606 184.924 139.991L184.847 140.058C184.654 140.217 184.422 140.297 184.191 140.297V140.31ZM188.346 136.374C188.088 136.374 187.831 136.268 187.625 136.068C187.227 135.656 187.214 134.978 187.625 134.565L187.69 134.499C188.088 134.087 188.744 134.087 189.143 134.499C189.542 134.911 189.542 135.589 189.143 136.002L189.092 136.055C188.886 136.268 188.629 136.374 188.359 136.374H188.346ZM192.089 132.025C191.857 132.025 191.639 131.946 191.446 131.786C191.008 131.414 190.931 130.749 191.291 130.297L191.343 130.23C191.69 129.765 192.346 129.685 192.784 130.057C193.234 130.416 193.311 131.094 192.951 131.547L192.887 131.626C192.681 131.892 192.385 132.025 192.089 132.025ZM195.343 127.264C195.163 127.264 194.97 127.211 194.803 127.105C194.327 126.799 194.173 126.134 194.469 125.642L194.507 125.562C194.803 125.057 195.434 124.911 195.922 125.216C196.411 125.522 196.553 126.174 196.257 126.679L196.205 126.759C196.012 127.078 195.678 127.264 195.331 127.264H195.343ZM198.019 122.144C197.878 122.144 197.723 122.118 197.582 122.051C197.067 121.799 196.848 121.174 197.08 120.642L197.119 120.549C197.363 120.017 197.968 119.791 198.482 120.043C198.997 120.296 199.215 120.921 198.971 121.453L198.932 121.533C198.752 121.918 198.392 122.144 197.993 122.144H198.019ZM200.077 116.732C199.974 116.732 199.859 116.719 199.756 116.679C199.215 116.492 198.92 115.894 199.1 115.335L199.125 115.242C199.305 114.684 199.884 114.378 200.425 114.564C200.965 114.75 201.261 115.349 201.081 115.907L201.055 115.987C200.913 116.439 200.515 116.719 200.077 116.719V116.732ZM45.1738 113.78C44.5692 113.753 44.1319 113.274 44.1447 112.676V112.583C44.1704 111.998 44.6464 111.519 45.2124 111.559C45.7784 111.572 46.2286 112.064 46.2029 112.662V112.756C46.1772 113.327 45.7269 113.78 45.1738 113.78ZM201.518 111.107C201.454 111.107 201.376 111.107 201.312 111.08C200.759 110.96 200.399 110.402 200.515 109.83L200.54 109.723C200.656 109.152 201.209 108.779 201.762 108.912C202.316 109.032 202.676 109.604 202.547 110.176V110.255C202.431 110.761 202.007 111.107 201.531 111.107H201.518ZM45.2253 107.955C44.6593 107.955 44.209 107.489 44.1962 106.904V106.811C44.1962 106.226 44.6464 105.747 45.2124 105.734C45.7913 105.734 46.2415 106.199 46.2544 106.784V106.878C46.2544 107.463 45.8041 107.941 45.2381 107.955H45.2253ZM202.393 105.348C202.393 105.348 202.316 105.348 202.277 105.348C201.711 105.282 201.312 104.763 201.364 104.178V104.098C201.428 103.513 201.93 103.087 202.496 103.141C203.062 103.194 203.473 103.712 203.422 104.298V104.404C203.357 104.949 202.907 105.348 202.393 105.348ZM45.0966 102.13C44.5435 102.13 44.0933 101.678 44.0675 101.119V101.013C44.0418 100.428 44.492 99.9356 45.058 99.909C45.6112 99.8824 46.1 100.348 46.1257 100.933V101.013C46.1514 101.598 45.7141 102.09 45.1481 102.117C45.1352 102.117 45.1224 102.117 45.0966 102.117V102.13ZM202.74 99.5367C202.148 99.5367 201.698 99.0313 201.711 98.4462V98.3531C201.724 97.7679 202.187 97.3158 202.74 97.3158C203.332 97.3291 203.782 97.8211 203.769 98.4063V98.4994C203.756 99.0845 203.293 99.5367 202.74 99.5367ZM44.8394 96.3051C44.2862 96.3051 43.836 95.8662 43.8103 95.2944V95.2146C43.7717 94.6294 44.209 94.1241 44.775 94.0975C45.3539 94.0576 45.8299 94.5097 45.8556 95.0949V95.2013C45.8813 95.7864 45.4439 96.2785 44.878 96.3051C44.8651 96.3051 44.8522 96.3051 44.8265 96.3051H44.8394ZM202.637 93.7118C202.097 93.7118 201.647 93.273 201.608 92.7011V92.5947C201.582 92.0096 202.02 91.5175 202.586 91.4909C203.165 91.4643 203.628 91.9165 203.653 92.5016V92.5814C203.692 93.1666 203.255 93.6719 202.689 93.6985C202.663 93.6985 202.65 93.6985 202.637 93.6985V93.7118ZM44.5049 90.4935C43.9646 90.4935 43.5144 90.068 43.4758 89.4961V89.403C43.4372 88.8179 43.8617 88.3126 44.4277 88.2727C44.9937 88.2328 45.4825 88.6716 45.5211 89.2568V89.3498C45.5597 89.935 45.1352 90.4404 44.5692 90.4802C44.5435 90.4802 44.5178 90.4802 44.5049 90.4802V90.4935ZM202.161 87.9136C201.647 87.9136 201.196 87.5146 201.145 86.9694V86.8896C201.068 86.3045 201.467 85.7725 202.033 85.706C202.599 85.6262 203.113 86.0518 203.177 86.6369V86.7433C203.255 87.3284 202.843 87.8471 202.277 87.9136C202.238 87.9136 202.2 87.9136 202.161 87.9136ZM44.1061 84.682C43.5659 84.682 43.1156 84.2565 43.077 83.6846V83.6048C43.0256 83.0197 43.4501 82.5143 44.0161 82.4611C44.5821 82.4212 45.0709 82.8601 45.1224 83.4452V83.5516C45.1609 84.1368 44.7364 84.6421 44.1704 84.682C44.1447 84.682 44.119 84.682 44.1061 84.682ZM136.248 82.1952C135.695 82.1952 135.245 81.743 135.219 81.1712C135.206 80.586 135.644 80.094 136.209 80.0674H136.274C136.84 80.0275 137.329 80.4796 137.354 81.0648C137.38 81.6499 136.956 82.1553 136.39 82.1819H136.274C136.274 82.1819 136.248 82.1819 136.235 82.1819L136.248 82.1952ZM201.376 82.142C200.888 82.142 200.45 81.7696 200.36 81.2509V81.1579C200.257 80.5727 200.63 80.0275 201.184 79.9344C201.75 79.8413 202.277 80.2269 202.367 80.8121V80.9052C202.47 81.4903 202.097 82.0356 201.531 82.1287C201.479 82.1287 201.415 82.142 201.364 82.142H201.376ZM130.742 81.743C130.742 81.743 130.614 81.743 130.549 81.7297L130.447 81.7031C129.893 81.5834 129.533 81.0249 129.649 80.453C129.765 79.8812 130.305 79.5088 130.858 79.6285H130.935C131.489 79.7482 131.862 80.3067 131.746 80.8919C131.656 81.3972 131.218 81.7563 130.742 81.7563V81.743ZM141.805 81.3307C141.355 81.3307 140.93 81.0116 140.815 80.5328C140.673 79.961 140.995 79.3891 141.548 79.2295L141.625 79.2029C142.178 79.0567 142.744 79.3891 142.886 79.9477C143.04 80.5195 142.718 81.1047 142.165 81.2509L142.075 81.2775C141.985 81.3041 141.895 81.3174 141.818 81.3174L141.805 81.3307ZM125.378 80.0009C125.237 80.0009 125.095 79.9743 124.967 79.9078L124.89 79.8679C124.375 79.6285 124.131 79.0035 124.349 78.4715C124.581 77.9396 125.185 77.6869 125.7 77.913L125.79 77.9529C126.305 78.1923 126.549 78.8173 126.317 79.3492C126.15 79.7482 125.777 79.9876 125.378 79.9876V80.0009ZM147.066 79.2694C146.693 79.2694 146.32 79.0567 146.14 78.671C145.883 78.1391 146.102 77.5007 146.603 77.248L146.68 77.2081C147.195 76.9422 147.812 77.155 148.057 77.6869C148.314 78.2056 148.108 78.8572 147.594 79.1099L147.504 79.1497C147.362 79.2295 147.208 79.2561 147.053 79.2561L147.066 79.2694ZM43.7074 78.8705C43.1542 78.8705 42.704 78.4316 42.6783 77.8598V77.78C42.6397 77.1948 43.077 76.6895 43.643 76.6629C44.209 76.623 44.6979 77.0752 44.7236 77.6603V77.7667C44.7493 78.3518 44.312 78.8439 43.746 78.8705C43.7331 78.8705 43.7202 78.8705 43.6945 78.8705H43.7074ZM120.439 77.1948C120.246 77.1948 120.04 77.1416 119.86 77.0087L119.796 76.9688C119.32 76.6496 119.191 75.9847 119.5 75.4926C119.808 75.0006 120.452 74.8676 120.928 75.1867L121.018 75.2532C121.494 75.5857 121.609 76.2506 121.288 76.7294C121.095 77.0353 120.76 77.1948 120.439 77.1948ZM200.322 76.4102C199.846 76.4102 199.421 76.0645 199.318 75.5724V75.4793C199.177 74.9075 199.537 74.3356 200.09 74.2159C200.643 74.0963 201.196 74.4553 201.312 75.0272V75.1202C201.454 75.6921 201.093 76.2639 200.54 76.3836C200.463 76.3969 200.399 76.4102 200.322 76.4102ZM151.864 76.2373C151.543 76.2373 151.234 76.091 151.028 75.7985C150.694 75.3197 150.797 74.6548 151.26 74.309L151.324 74.2558C151.787 73.9101 152.43 74.0165 152.765 74.4819C153.099 74.9607 152.996 75.6256 152.546 75.9714L152.469 76.0246C152.289 76.1575 152.07 76.224 151.864 76.224V76.2373ZM115.962 73.6574C115.718 73.6574 115.473 73.5643 115.268 73.3781L115.216 73.3249C114.792 72.9393 114.753 72.261 115.126 71.8222C115.499 71.3833 116.155 71.3434 116.58 71.7291L116.657 71.7956C117.081 72.1945 117.107 72.8595 116.721 73.2983C116.515 73.5244 116.245 73.6441 115.962 73.6441V73.6574ZM43.5916 73.0457C43.0127 73.0457 42.5625 72.5536 42.5625 71.9685V71.8621C42.5754 71.2769 43.0385 70.8248 43.5916 70.8248C44.1833 70.8248 44.6335 71.3301 44.6207 71.9153V71.9951C44.6207 72.5802 44.1576 73.0457 43.5916 73.0457ZM156.161 72.4871C155.891 72.4871 155.621 72.3807 155.428 72.1679C155.029 71.7424 155.042 71.0774 155.453 70.6652L155.518 70.612C155.917 70.1997 156.573 70.1997 156.971 70.612C157.37 71.0243 157.37 71.7025 156.971 72.1147L156.907 72.1812C156.701 72.3807 156.444 72.4871 156.187 72.4871H156.161ZM199.035 70.745C198.585 70.745 198.173 70.4391 198.045 69.9604L198.019 69.8673C197.878 69.2954 198.199 68.7236 198.752 68.564C199.305 68.4177 199.859 68.7502 200.013 69.322L200.039 69.4018C200.193 69.9737 199.859 70.5588 199.318 70.7051C199.228 70.7317 199.138 70.745 199.048 70.745H199.035ZM112.09 69.4417C111.782 69.4417 111.486 69.2954 111.28 69.0294L111.228 68.963C110.881 68.4975 110.958 67.8326 111.408 67.4735C111.859 67.1144 112.502 67.1942 112.849 67.6597L112.901 67.7395C113.248 68.2049 113.171 68.8699 112.721 69.2289C112.528 69.3752 112.309 69.455 112.09 69.455V69.4417ZM159.943 68.1783C159.711 68.1783 159.493 68.0985 159.3 67.939C158.862 67.5666 158.785 66.9017 159.145 66.4495L159.197 66.383C159.557 65.9309 160.2 65.8511 160.637 66.2234C161.075 66.5958 161.152 67.2607 160.792 67.7129L160.74 67.7927C160.535 68.0586 160.239 68.1916 159.943 68.1916V68.1783ZM43.8875 67.2341C43.8875 67.2341 43.8231 67.2341 43.7845 67.2341C43.2185 67.1809 42.8069 66.6623 42.8584 66.0771V65.9973C42.9098 65.4122 43.4244 64.9866 43.9775 65.0265C44.5435 65.0797 44.9551 65.5984 44.9165 66.1835V66.2899C44.8522 66.8352 44.402 67.2474 43.8875 67.2474V67.2341ZM197.196 65.2526C196.797 65.2526 196.411 65.0132 196.244 64.6143L196.205 64.5212C195.987 63.9759 196.231 63.3509 196.758 63.1248C197.286 62.8988 197.89 63.1514 198.109 63.6967L198.135 63.7765C198.354 64.3217 198.122 64.9467 197.595 65.1728C197.466 65.226 197.324 65.2526 197.196 65.2526ZM109.17 64.4813C108.784 64.4813 108.411 64.2552 108.231 63.8563L108.193 63.7632C107.961 63.2312 108.193 62.5929 108.707 62.3535C109.222 62.1141 109.839 62.3535 110.071 62.8855L110.109 62.9652C110.341 63.4972 110.109 64.1355 109.608 64.3749C109.466 64.4414 109.325 64.468 109.183 64.468L109.17 64.4813ZM163.223 63.4307C163.043 63.4307 162.85 63.3775 162.683 63.2711C162.207 62.9652 162.052 62.3003 162.348 61.8083L162.4 61.7152C162.709 61.2231 163.339 61.0768 163.815 61.396C164.291 61.7152 164.432 62.3668 164.123 62.8589L164.085 62.9254C163.892 63.2445 163.558 63.4307 163.21 63.4307H163.223ZM44.6207 61.4625C44.6207 61.4625 44.5049 61.4625 44.4406 61.4492C43.8875 61.3428 43.5144 60.7976 43.6045 60.2124V60.1326C43.7074 59.5475 44.2476 59.1618 44.8008 59.2549C45.3668 59.348 45.7398 59.8932 45.6498 60.4784V60.5848C45.5469 61.1034 45.1095 61.4625 44.6207 61.4625ZM194.675 60.0528C194.327 60.0528 193.98 59.8666 193.787 59.5342L193.736 59.4544C193.453 58.949 193.62 58.2974 194.109 58.0048C194.597 57.7123 195.228 57.8851 195.511 58.3905L195.549 58.4703C195.832 58.9756 195.678 59.6273 195.189 59.9198C195.022 60.0129 194.842 60.0661 194.662 60.0661L194.675 60.0528ZM107.627 58.9091C107.125 58.9091 106.675 58.5235 106.61 57.9915V57.8851C106.533 57.3 106.932 56.7681 107.498 56.7016C108.064 56.6218 108.578 57.0473 108.643 57.6325V57.7123C108.733 58.2974 108.334 58.8294 107.768 58.9091C107.717 58.9091 107.678 58.9091 107.627 58.9091ZM165.963 58.3506C165.809 58.3506 165.654 58.3107 165.513 58.2442C164.998 57.9915 164.792 57.3532 165.037 56.8213L165.075 56.7415C165.32 56.2095 165.937 55.9967 166.452 56.2494C166.966 56.5021 167.172 57.1404 166.928 57.6724L166.889 57.7522C166.709 58.1245 166.349 58.3506 165.963 58.3506ZM45.7784 55.7839C45.6884 55.7839 45.6112 55.784 45.5211 55.7441C44.968 55.5978 44.6464 55.0126 44.7879 54.4408L44.8136 54.3477C44.9551 53.7758 45.5211 53.4434 46.0743 53.5897C46.6274 53.736 46.949 54.3211 46.8075 54.8929L46.7818 54.986C46.666 55.4648 46.2415 55.7839 45.7913 55.7839H45.7784ZM191.549 55.2254C191.24 55.2254 190.931 55.0791 190.725 54.8131L190.661 54.7201C190.327 54.2546 190.417 53.5764 190.88 53.2306C191.33 52.8848 191.986 52.9779 192.321 53.4567L192.359 53.5232C192.706 53.9886 192.616 54.6536 192.166 55.0126C191.986 55.1589 191.755 55.2254 191.549 55.2254ZM107.82 53.1242C107.82 53.1242 107.691 53.1242 107.627 53.1109C107.073 53.0045 106.7 52.446 106.816 51.8608L106.842 51.7544C106.958 51.1826 107.498 50.8102 108.051 50.9299C108.604 51.0496 108.964 51.6082 108.849 52.18V52.2598C108.746 52.7651 108.308 53.1242 107.82 53.1242ZM168.163 52.9912C168.047 52.9912 167.931 52.9646 167.815 52.9247C167.275 52.7253 167.005 52.1135 167.198 51.5683L167.224 51.4885C167.417 50.9299 167.995 50.6507 168.536 50.8368C169.076 51.0363 169.346 51.6348 169.166 52.1933L169.127 52.2864C168.973 52.7253 168.587 52.9912 168.163 52.9912ZM187.908 50.7836C187.638 50.7836 187.355 50.6773 187.162 50.4512L187.098 50.3847C186.712 49.9591 186.725 49.2809 187.149 48.8819C187.561 48.483 188.217 48.4963 188.603 48.9351L188.667 49.0016C189.053 49.4272 189.04 50.1054 188.616 50.5044C188.423 50.6906 188.166 50.7969 187.908 50.7969V50.7836ZM47.3992 50.2118C47.2834 50.2118 47.1677 50.1985 47.0519 50.1453C46.5116 49.9458 46.2415 49.3474 46.4216 48.7888L46.4473 48.709C46.6403 48.1505 47.2191 47.8579 47.7594 48.0574C48.2997 48.2569 48.5827 48.8553 48.3897 49.4139L48.364 49.507C48.2096 49.9458 47.8237 50.2118 47.3992 50.2118ZM109.698 47.6584C109.543 47.6584 109.376 47.6185 109.222 47.5388C108.72 47.2728 108.527 46.6212 108.784 46.1025L108.823 46.0094C109.093 45.4908 109.71 45.2913 110.212 45.5573C110.714 45.8365 110.907 46.4749 110.65 46.9935L110.611 47.0733C110.431 47.4324 110.071 47.6451 109.698 47.6451V47.6584ZM169.758 47.4058C169.681 47.4058 169.603 47.4058 169.526 47.3792C168.973 47.2462 168.626 46.6876 168.754 46.1025L168.78 45.9961C168.909 45.4243 169.462 45.0652 170.015 45.2115C170.568 45.3445 170.903 45.9163 170.774 46.4882V46.568C170.645 47.06 170.221 47.3925 169.758 47.3925V47.4058ZM183.856 46.7541C183.612 46.7541 183.367 46.661 183.174 46.4882L183.123 46.435C182.686 46.0493 182.634 45.3844 183.007 44.9322C183.38 44.4801 184.023 44.4402 184.461 44.8125L184.538 44.879C184.963 45.2647 185.001 45.9429 184.628 46.3818C184.422 46.6211 184.139 46.7408 183.856 46.7408V46.7541ZM49.4831 44.8125C49.3416 44.8125 49.1873 44.7859 49.0458 44.7194C48.5312 44.4668 48.3125 43.8417 48.5441 43.3098L48.5698 43.2433C48.8013 42.7113 49.4059 42.472 49.9333 42.7113C50.4479 42.9507 50.6794 43.5757 50.4479 44.121L50.4093 44.2141C50.2292 44.5997 49.869 44.8258 49.4703 44.8258L49.4831 44.8125ZM179.457 43.1236C179.238 43.1236 179.032 43.0571 178.852 42.9108L178.775 42.8576C178.325 42.5119 178.222 41.8469 178.556 41.3682C178.891 40.9027 179.534 40.7963 179.997 41.1421L180.074 41.1953C180.525 41.541 180.627 42.206 180.293 42.6847C180.087 42.964 179.778 43.1103 179.47 43.1103L179.457 43.1236ZM112.875 42.8709C112.631 42.8709 112.386 42.7778 112.193 42.6049C111.769 42.2193 111.73 41.541 112.103 41.1022L112.155 41.049C112.528 40.5968 113.171 40.5436 113.608 40.9293C114.046 41.315 114.097 41.9799 113.724 42.4321L113.66 42.5119C113.454 42.7512 113.171 42.8709 112.888 42.8709H112.875ZM170.671 41.6607C170.671 41.6607 170.607 41.6607 170.568 41.6607C170.002 41.6075 169.591 41.0756 169.642 40.4905V40.4107C169.693 39.8255 170.195 39.4 170.761 39.4399C171.327 39.493 171.752 40.0117 171.7 40.5968V40.7032C171.636 41.2485 171.186 41.6607 170.671 41.6607ZM174.762 39.8787C174.582 39.8787 174.402 39.8255 174.234 39.7324L174.144 39.6792C173.668 39.3734 173.514 38.7084 173.81 38.2164C174.106 37.7243 174.749 37.5647 175.225 37.8706L175.289 37.9105C175.778 38.2164 175.932 38.868 175.636 39.3734C175.443 39.7058 175.109 39.892 174.749 39.892L174.762 39.8787ZM52.0044 39.5994C51.8372 39.5994 51.6571 39.5595 51.5027 39.4665C51.0139 39.1739 50.8338 38.5355 51.1168 38.0169L51.1554 37.9371C51.4255 37.4185 52.0558 37.2456 52.5575 37.5248C53.0592 37.8041 53.2264 38.4557 52.9563 38.9744L52.9048 39.0542C52.7119 39.4 52.3646 39.5994 52.0044 39.5994ZM116.914 38.8015C116.618 38.8015 116.31 38.6685 116.117 38.4026C115.756 37.9504 115.834 37.2722 116.271 36.9131L116.322 36.8599C116.76 36.4875 117.403 36.554 117.776 37.0062C118.136 37.4584 118.072 38.1233 117.634 38.5089L117.557 38.5754C117.364 38.735 117.146 38.8148 116.914 38.8148V38.8015ZM169.848 37.0328C169.693 37.0328 169.539 36.9929 169.385 36.9131L169.308 36.8732C168.806 36.6072 168.6 35.9689 168.857 35.4502C169.037 35.0779 169.398 34.8651 169.771 34.8651C169.771 34.8252 169.771 34.7321 169.771 34.7321C169.745 34.147 170.169 33.6416 170.735 33.615C171.301 33.5751 171.79 34.0273 171.816 34.6124V34.7055C171.855 35.2907 171.43 35.7827 170.877 35.8226C170.903 36.0354 170.877 36.2482 170.774 36.4476C170.594 36.82 170.234 37.0328 169.861 37.0328H169.848ZM121.506 35.4236C121.159 35.4236 120.812 35.2375 120.619 34.905C120.323 34.3997 120.477 33.748 120.966 33.4421L121.03 33.4022C121.506 33.0964 122.15 33.2427 122.445 33.748C122.741 34.2401 122.6 34.905 122.111 35.2109L122.021 35.2641C121.854 35.3705 121.674 35.4104 121.494 35.4104L121.506 35.4236ZM54.9759 34.6523C54.7701 34.6523 54.5642 34.5858 54.397 34.4661C53.9339 34.1337 53.8181 33.4687 54.1397 32.99L54.1912 32.9235C54.5128 32.4447 55.156 32.3118 55.6191 32.6442C56.095 32.9767 56.2108 33.6416 55.8892 34.1204L55.8377 34.2002C55.6319 34.4927 55.3232 34.6523 54.9887 34.6523H54.9759ZM164.728 34.5991C164.599 34.5991 164.458 34.5725 164.329 34.5193L164.252 34.4794C163.725 34.2534 163.48 33.6283 163.699 33.0831C163.918 32.5378 164.522 32.2852 165.05 32.5112L165.127 32.5511C165.654 32.7772 165.899 33.4022 165.68 33.9475C165.513 34.3598 165.127 34.5991 164.728 34.5991ZM126.446 32.6442C126.06 32.6442 125.7 32.4181 125.52 32.0458C125.275 31.5138 125.481 30.8755 125.996 30.6228L126.086 30.5829C126.6 30.3302 127.218 30.5563 127.449 31.0883C127.694 31.6202 127.475 32.2586 126.961 32.4979L126.883 32.5378C126.742 32.6176 126.588 32.6442 126.433 32.6442H126.446ZM159.454 32.5644C159.351 32.5644 159.235 32.5511 159.12 32.5112L159.042 32.4846C158.502 32.2985 158.206 31.7 158.386 31.1415C158.566 30.5829 159.145 30.2771 159.686 30.4632L159.776 30.4898C160.316 30.676 160.599 31.2745 160.419 31.833C160.277 32.2719 159.879 32.5511 159.441 32.5511L159.454 32.5644ZM154.038 30.9553C153.961 30.9553 153.871 30.9553 153.794 30.9287L153.704 30.9021C153.151 30.7558 152.816 30.184 152.958 29.6121C153.099 29.0403 153.653 28.6945 154.206 28.8408L154.296 28.8674C154.849 29.0137 155.183 29.5855 155.042 30.1574C154.926 30.6361 154.502 30.9686 154.038 30.9686V30.9553ZM131.656 30.4366C131.206 30.4366 130.807 30.1308 130.665 29.6786C130.498 29.1201 130.82 28.5216 131.36 28.362L131.437 28.3354C131.977 28.1626 132.556 28.4817 132.711 29.0536C132.878 29.6121 132.569 30.2106 132.016 30.3701L131.926 30.3967C131.823 30.4233 131.733 30.4366 131.63 30.4366H131.656ZM169.951 30.0909C169.488 30.0909 169.076 29.7717 168.96 29.2797L168.934 29.1999C168.793 28.628 169.127 28.0562 169.668 27.9099C170.221 27.7636 170.774 28.1094 170.915 28.6679L170.941 28.761C171.083 29.3328 170.748 29.9047 170.195 30.051C170.105 30.0776 170.028 30.0776 169.951 30.0776V30.0909ZM58.359 30.0111C58.1275 30.0111 57.9088 29.9313 57.7158 29.7717C57.2785 29.3993 57.2013 28.7344 57.5615 28.2823L57.6258 28.2025C57.986 27.7503 58.642 27.6838 59.0794 28.0562C59.5167 28.4285 59.581 29.1068 59.2209 29.5589L59.1694 29.6121C58.9636 29.8781 58.6677 30.0111 58.3719 30.0111H58.359ZM148.52 29.8249C148.52 29.8249 148.417 29.8249 148.366 29.8249H148.288C147.722 29.7318 147.336 29.1866 147.414 28.6147C147.491 28.0296 148.018 27.6306 148.584 27.7104H148.687C149.253 27.8168 149.626 28.362 149.549 28.9339C149.472 29.4525 149.035 29.8382 148.533 29.8382L148.52 29.8249ZM137.187 29.3594C136.66 29.3594 136.222 28.9472 136.171 28.4019C136.119 27.8168 136.531 27.2981 137.097 27.245H137.2C137.766 27.1918 138.268 27.6173 138.319 28.2025C138.371 28.7876 137.946 29.3062 137.38 29.3594H137.303C137.303 29.3594 137.239 29.3594 137.2 29.3594H137.187ZM142.911 29.2398H142.77C142.204 29.2132 141.767 28.7211 141.792 28.136C141.818 27.5508 142.307 27.0854 142.86 27.1253H142.95C143.516 27.1519 143.953 27.6572 143.928 28.2424C143.902 28.8142 143.452 29.2531 142.899 29.2531L142.911 29.2398ZM62.1152 25.6624C61.8579 25.6624 61.5878 25.556 61.3819 25.3565C60.9832 24.9443 60.9832 24.266 61.3819 23.8538L61.4334 23.8006C61.8322 23.375 62.4754 23.3617 62.887 23.774C63.2986 24.1863 63.2986 24.8512 62.9127 25.2767L62.8355 25.3565C62.6297 25.5693 62.3724 25.6624 62.1023 25.6624H62.1152ZM168.008 24.6384C167.635 24.6384 167.275 24.4256 167.095 24.0533L167.056 23.9868C166.799 23.4681 166.992 22.8298 167.494 22.5505C167.995 22.2845 168.613 22.484 168.883 23.0027L168.922 23.0958C169.179 23.6144 168.973 24.2527 168.471 24.5187C168.317 24.5985 168.163 24.6384 168.008 24.6384ZM66.2058 21.6728C65.9228 21.6728 65.6269 21.5531 65.434 21.3137C65.0609 20.8749 65.1124 20.1966 65.5369 19.811L65.6141 19.7445C66.0514 19.3588 66.6946 19.412 67.0677 19.8642C67.4407 20.3163 67.3892 20.9813 66.9519 21.3669L66.8876 21.4201C66.6946 21.593 66.4502 21.6861 66.2187 21.6861L66.2058 21.6728ZM164.844 19.8376C164.561 19.8376 164.278 19.7179 164.072 19.4785L164.008 19.412C163.635 18.9732 163.673 18.2949 164.098 17.9093C164.522 17.5236 165.178 17.5635 165.551 18.0024L165.616 18.0689C165.989 18.5077 165.95 19.1859 165.526 19.5716C165.333 19.7445 165.088 19.8376 164.844 19.8376ZM70.6051 18.0423C70.2836 18.0423 69.9748 17.8827 69.769 17.6034C69.4346 17.1246 69.5503 16.4597 70.0006 16.1139L70.0649 16.074C70.528 15.7283 71.1711 15.8214 71.5056 16.3001C71.84 16.7789 71.75 17.4438 71.2869 17.7896L71.1969 17.8561C71.0168 17.9891 70.811 18.0556 70.6051 18.0556V18.0423ZM160.637 15.9943C160.432 15.9943 160.226 15.9278 160.046 15.7948L159.969 15.7416C159.505 15.3958 159.403 14.7309 159.737 14.2521C160.071 13.7734 160.715 13.667 161.178 14.0128L161.255 14.0659C161.718 14.4117 161.821 15.0766 161.486 15.5554C161.281 15.848 160.972 15.9943 160.65 15.9943H160.637ZM75.2746 14.7708C74.9273 14.7708 74.5929 14.5846 74.3999 14.2654C74.104 13.7601 74.2584 13.1084 74.7344 12.8026L74.8115 12.7627C75.2875 12.4568 75.9307 12.6031 76.2265 13.1084C76.5224 13.6005 76.3809 14.2654 75.8921 14.5713L75.8149 14.6245C75.6477 14.7309 75.4547 14.7841 75.2746 14.7841V14.7708ZM155.917 12.8159C155.736 12.8159 155.556 12.7627 155.389 12.6696L155.312 12.6164C154.823 12.3105 154.669 11.6589 154.952 11.1535C155.248 10.6482 155.878 10.4886 156.367 10.7812L156.444 10.8211C156.933 11.1136 157.1 11.7653 156.804 12.2706C156.611 12.6031 156.264 12.7893 155.917 12.7893V12.8159ZM80.1628 11.885C79.7898 11.885 79.4296 11.6722 79.2495 11.3131C78.9793 10.7945 79.1852 10.1561 79.6868 9.87686L79.7769 9.83696C80.2786 9.57099 80.896 9.77047 81.1662 10.2891C81.4234 10.8078 81.2305 11.4461 80.7288 11.7254L80.6516 11.7653C80.4972 11.8451 80.33 11.885 80.1757 11.885H80.1628ZM150.951 10.063C150.797 10.063 150.642 10.0231 150.501 9.95665L150.424 9.91675C149.909 9.66408 149.703 9.02574 149.948 8.49379C150.192 7.96185 150.81 7.74907 151.324 8.00174L151.414 8.04164C151.929 8.29431 152.135 8.93265 151.89 9.4646C151.71 9.83696 151.35 10.063 150.964 10.063H150.951ZM85.2439 9.38481C84.8451 9.38481 84.4592 9.14543 84.3049 8.74647C84.0862 8.20122 84.3177 7.57618 84.8451 7.35011L84.9223 7.31021C85.4497 7.07083 86.0543 7.32351 86.273 7.86875C86.5046 8.4007 86.2601 9.03904 85.7327 9.26512L85.6427 9.30501C85.5141 9.35821 85.3726 9.38481 85.2439 9.38481ZM145.78 7.73577C145.651 7.73577 145.536 7.70917 145.407 7.66927L145.317 7.62938C144.79 7.4166 144.532 6.79156 144.738 6.24631C144.944 5.70107 145.548 5.43509 146.076 5.64787L146.153 5.67447C146.68 5.88725 146.951 6.49899 146.745 7.04424C146.59 7.46979 146.192 7.72247 145.78 7.72247V7.73577ZM90.4794 7.25701C90.0549 7.25701 89.6561 6.97774 89.5146 6.53889C89.3217 5.98034 89.6047 5.3819 90.145 5.18242L90.235 5.15582C90.7753 4.96964 91.3541 5.24891 91.5471 5.80746C91.74 6.366 91.457 6.96444 90.9168 7.16392L90.8267 7.19052C90.7109 7.23042 90.5952 7.24372 90.4923 7.24372L90.4794 7.25701ZM140.442 5.83405C140.339 5.83405 140.249 5.82076 140.146 5.79416L140.056 5.76756C139.515 5.59468 139.207 4.99624 139.374 4.43769C139.541 3.87915 140.12 3.55998 140.66 3.73286L140.737 3.75946C141.278 3.93234 141.586 4.51748 141.432 5.07603C141.303 5.54148 140.892 5.83405 140.442 5.83405ZM95.8564 5.51489C95.4062 5.51489 94.9945 5.20902 94.8659 4.73026C94.7115 4.15842 95.0331 3.57328 95.5863 3.42699L95.6763 3.40039C96.2294 3.24081 96.7954 3.58658 96.9369 4.14512C97.0913 4.71696 96.7568 5.30211 96.2166 5.44839L96.1394 5.47499C96.0493 5.50159 95.9593 5.51489 95.8692 5.51489H95.8564ZM135 4.3712C134.923 4.3712 134.846 4.3712 134.769 4.3446H134.692C134.138 4.19832 133.778 3.63977 133.907 3.06793C134.023 2.49608 134.576 2.12372 135.129 2.25671L135.219 2.2833C135.772 2.41629 136.119 2.97484 135.991 3.55998C135.888 4.05203 135.463 4.3845 134.987 4.3845L135 4.3712ZM101.349 4.17172C100.873 4.17172 100.436 3.82595 100.346 3.3206C100.23 2.74876 100.59 2.19021 101.143 2.07052H101.233C101.787 1.93754 102.327 2.3099 102.443 2.88174C102.558 3.45359 102.198 4.01213 101.645 4.13182H101.555C101.491 4.15842 101.413 4.17172 101.349 4.17172ZM129.469 3.3206C129.469 3.3206 129.366 3.3206 129.315 3.3206H129.225C128.659 3.22751 128.273 2.68226 128.35 2.09712C128.427 1.51198 128.954 1.11302 129.52 1.19281H129.61C130.176 1.2859 130.562 1.83115 130.485 2.41629C130.408 2.94824 129.971 3.3339 129.469 3.3339V3.3206ZM106.906 3.20091C106.405 3.20091 105.954 2.81525 105.89 2.2833C105.813 1.69816 106.212 1.16621 106.778 1.08642H106.868C107.421 0.99333 107.948 1.40559 108.025 1.99073C108.103 2.57587 107.704 3.10782 107.138 3.18761H107.048C107.048 3.18761 106.958 3.21421 106.906 3.21421V3.20091ZM123.86 2.68226C123.86 2.68226 123.809 2.68226 123.783 2.68226H123.706C123.14 2.64237 122.716 2.13702 122.754 1.53858C122.793 0.953434 123.282 0.514577 123.848 0.554473H123.95C124.516 0.607668 124.941 1.11302 124.902 1.69816C124.864 2.25671 124.414 2.68226 123.873 2.68226H123.86ZM112.515 2.62907C111.974 2.62907 111.524 2.19021 111.486 1.63167C111.46 1.04653 111.884 0.541175 112.45 0.514577H112.528C113.094 0.474681 113.582 0.913538 113.621 1.49868C113.66 2.08382 113.235 2.58917 112.669 2.62907H112.566C112.566 2.62907 112.528 2.62907 112.502 2.62907H112.515ZM118.239 2.45619H118.136C117.57 2.45619 117.107 1.96413 117.12 1.37899C117.12 0.79385 117.583 0.315097 118.162 0.328396H118.239C118.805 0.328396 119.268 0.807149 119.268 1.39229C119.268 1.97743 118.805 2.45619 118.239 2.45619Z" fill="#9166FC"/>
<path d="M44.5817 119.625C44.4531 119.625 44.3116 119.598 44.183 119.532C43.6684 119.306 43.424 118.694 43.6427 118.162C43.8228 117.604 44.4017 117.324 44.9419 117.511C45.4822 117.697 45.7652 118.322 45.5722 118.867C45.5465 118.947 45.5336 118.973 45.5336 118.973C45.3664 119.372 44.9805 119.612 44.5817 119.612V119.625Z" fill="#9166FC"/>
<path d="M128.412 198.3H30.5076C29.9416 198.3 29.4785 197.821 29.4785 197.236C29.4785 196.651 29.9416 196.172 30.5076 196.172H128.412C128.978 196.172 129.442 196.651 129.442 197.236C129.442 197.821 128.978 198.3 128.412 198.3Z" fill="#35353A"/>
<path d="M221.482 198.3H136.094C135.528 198.3 135.064 197.821 135.064 197.236C135.064 196.651 135.528 196.172 136.094 196.172H221.482C222.048 196.172 222.511 196.651 222.511 197.236C222.511 197.821 222.048 198.3 221.482 198.3Z" fill="#35353A"/>
<path fill-rule="evenodd" clip-rule="evenodd" d="M48.8383 35.8984C52.4401 35.8984 55.3601 38.9172 55.3601 42.6409C55.3601 46.3645 52.4401 49.3833 48.8383 49.3833C45.2364 49.3833 42.3164 46.3645 42.3164 42.6409C42.3164 38.9172 45.2364 35.8984 48.8383 35.8984Z" fill="#BA82FF"/>
<path fill-rule="evenodd" clip-rule="evenodd" d="M150.681 3.1875C153.292 3.1875 155.415 5.38178 155.415 8.08142C155.415 10.7811 153.292 12.9753 150.681 12.9753C148.07 12.9753 145.947 10.7811 145.947 8.08142C145.947 5.38178 148.07 3.1875 150.681 3.1875Z" fill="#BA82FF"/>
<path fill-rule="evenodd" clip-rule="evenodd" d="M202.714 101.898C205.326 101.898 207.448 104.093 207.448 106.792C207.448 109.492 205.326 111.686 202.714 111.686C200.103 111.686 197.98 109.492 197.98 106.792C197.98 104.093 200.103 101.898 202.714 101.898Z" fill="#BA82FF"/>
<path fill-rule="evenodd" clip-rule="evenodd" d="M36.774 129.447C36.774 129.447 35.7577 115.351 37.7645 107.731C39.7712 100.111 41.8808 95.8018 41.8808 95.8018C41.8808 95.8018 43.5016 99.9643 45.9972 100.337C48.4927 100.696 49.3931 99.2328 49.3931 99.2328C49.3931 99.2328 51.8244 101.76 53.6896 101.081C55.5548 100.403 56.288 99.6983 56.288 99.6983C56.288 99.6983 57.7673 101.454 60.4044 100.164C63.0414 98.8738 62.3725 97.1183 62.3725 97.1183C62.3725 97.1183 67.9425 100.377 66.2187 90.2828C64.495 80.1758 59.3882 72.0636 58.5263 70.8667C57.6644 69.6698 53.1365 64.9621 44.4021 67.0766C35.6677 69.1911 25.9428 69.8959 17.9416 86.2134C9.9019 102.504 2.9041 129.301 2.26092 140.073C1.61774 150.845 4.20333 163.266 13.4394 166.325C30.0849 171.844 74.5029 152.92 74.5029 152.92L82.4655 195.249H127.977C127.977 195.249 127.102 197.696 129.135 198.109C131.18 198.521 134.589 197.803 137.444 196.726C140.3 195.648 142.14 193.84 144.777 194.691C147.414 195.542 149.202 195.914 152.109 196.074C155.016 196.234 167.095 194.997 174.016 195.156C180.936 195.303 201.698 196.938 205.583 195.436C209.468 193.933 215.771 189.877 213.005 180.275C210.227 170.673 194.713 126.801 175.186 113.449C152.984 98.262 128.697 99.4057 128.697 99.4057L127.179 95.6156C127.179 95.6156 141.741 88.1417 140.416 71.5848C139.091 55.028 130.228 54.1104 130.228 54.1104L132.556 51.7033L128.8 51.2378C128.8 51.2378 128.723 46.7163 129.25 46.8892C129.778 47.0621 123.076 49.2962 123.076 49.2962C123.076 49.2962 109.621 41.9687 101.619 44.123C93.6182 46.2774 90.8011 49.4691 88.6528 48.4717C86.5046 47.4743 83.2887 46.8094 83.2887 46.8094C83.2887 46.8094 82.1181 47.8068 82.4783 49.6686C82.8385 51.5437 83.1987 53.6449 83.1987 53.6449C83.1987 53.6449 80.3944 53.472 79.8927 54.8418C79.3911 56.2116 78.8636 55.8658 80.0728 58.2596C82.4269 62.9008 88.2927 67.316 88.2927 67.316C88.2927 67.316 88.4342 74.7366 90.3508 84.6043C92.2675 94.4719 93.4896 98.1689 95.1747 99.7648C96.8598 101.361 98.7508 103.927 98.7508 103.927C98.7508 103.927 84.305 104.951 73.358 108.555C62.4111 112.159 36.7868 129.447 36.7868 129.447H36.774Z" fill="#FEFEFF"/>
<path fill-rule="evenodd" clip-rule="evenodd" d="M125.107 90.3436L127.075 94.6923C127.075 94.6923 134.6 90.9022 137.983 83.6012C141.366 76.3002 141.045 65.5948 138.253 60.8604C135.449 56.1394 129.223 53.8387 129.223 53.8387L132.529 51.6178L128.863 50.5141L130.291 46.3516L122.071 51.8971C122.071 51.8971 112.5 45.0483 103.74 47.3623C94.98 49.6895 92.4716 53.2802 90.8637 52.8147C89.2557 52.3493 85.6796 49.6762 85.6796 49.6762C85.6796 49.6762 84.8049 50.913 84.8692 53.094C84.9335 55.275 86.3871 58.3603 86.3871 58.3603C86.3871 58.3603 82.6824 56.4453 82.721 57.8017C82.7725 59.5572 83.0426 59.5572 84.7792 61.4057C87.9179 64.757 89.9632 65.1958 89.9632 65.1958L90.8508 62.7887C90.8508 62.7887 96.5236 66.14 101.129 65.5682C105.734 64.983 116.385 61.5254 119.279 65.0096C122.894 69.3583 121.247 80.9016 121.247 80.9016L124.643 77.8562C124.643 77.8562 131.641 74.4118 132.066 79.2392C132.477 84.0667 125.094 90.3303 125.094 90.3303L125.107 90.3436Z" fill="#9166FC"/>
<path fill-rule="evenodd" clip-rule="evenodd" d="M137.173 168.266C137.173 168.266 129.069 147.241 130.741 135.086C132.413 122.931 135.925 100.43 135.925 100.43C135.925 100.43 168.689 100.802 181.616 118.729C186.723 125.817 193.335 134.448 198.339 143.97C205.98 158.505 209.904 168.439 211.486 174.57C213.171 181.113 213.737 185.794 212.206 189.265C210.675 192.736 205.466 196.366 197.992 196.287C190.518 196.207 168.573 195.356 168.573 195.356C168.573 195.356 173.41 184.956 171.429 179.185C169.46 173.4 166.244 167.814 166.244 167.814C166.244 167.814 150.049 167.615 145.148 167.907C140.234 168.2 137.186 168.28 137.186 168.28L137.173 168.266Z" fill="#323232"/>
<path fill-rule="evenodd" clip-rule="evenodd" d="M99.895 151.163C99.895 151.163 95.0454 136.494 95.7787 128.887C96.5119 121.281 104.719 105.415 104.719 105.415C104.719 105.415 100.731 104.737 99.805 104.218C98.8659 103.686 98.197 104.498 98.197 104.498C98.197 104.498 74.6438 105.854 59.3104 115.403C43.9641 124.951 36.336 129.446 36.336 129.446C36.336 129.446 36.4132 119.632 37.4937 112.251C38.2269 107.277 40.0922 103.753 40.0922 103.753C40.0922 103.753 27.7045 110.269 23.1894 108.288C16.2816 105.256 13.1815 97.3828 13.1815 97.3828C13.1815 97.3828 7.03271 115.097 3.79108 127.704C0.536591 140.298 0.369365 156.668 8.96225 163.185C17.5551 169.701 33.5317 168.158 49.727 161.057C65.9223 153.955 76.8177 164.195 76.8177 164.195L99.8822 151.163H99.895Z" fill="#323232"/>
<path fill-rule="evenodd" clip-rule="evenodd" d="M210.213 168.54C208.27 163.008 206.148 158.06 203.961 153.007C195.162 132.766 184.228 114.56 164.624 105.783C154.784 101.381 143.091 98.6285 129.494 98.1099C129.018 97.2455 128.542 96.3944 128.246 95.3438C135.064 91.9127 139.733 85.4096 141.122 76.1138C142.692 65.5281 138.55 57.4957 131.822 53.8385C132.813 53.0805 134.318 52.5752 134.15 51.0724C133.97 49.4367 131.809 49.6362 129.854 49.5963C129.957 48.3462 132.015 46.511 130.922 45.2476C130.073 44.2635 127.937 45.713 126.895 46.1652C125.377 46.8434 123.898 47.4552 122.869 47.9206C116.206 44.3167 104.307 40.9654 95.6883 44.689C93.5143 45.6332 91.4047 47.535 89.4366 47.6413C87.0053 47.7743 85.4746 44.9417 83.3521 45.5136C81.1138 46.1253 81.4997 50.6867 81.564 53.28C78.837 52.7347 77.8207 54.7295 78.2581 57.2563C79.1843 62.5891 84.394 65.927 87.8286 68.4405C87.8929 70.1427 87.6871 71.5524 87.7386 73.2413C87.6485 73.3078 87.5327 73.3743 87.417 73.4408C87.417 73.8265 87.3913 74.2121 87.3527 74.5978C87.3527 74.8904 87.0697 74.9037 87.0568 75.1696C87.0568 75.3824 87.0825 74.7175 87.0568 74.9303C87.2626 74.8239 87.6357 74.9835 87.7643 74.9303C88.3817 85.0373 90.0797 95.3704 94.6077 101.248C95.2638 102.099 96.087 102.778 96.6659 103.655C84.0081 104.972 73.0355 107.432 63.4135 111.794C53.7787 116.143 45.4559 121.715 37.3133 127.234C37.2747 115.611 39.5387 106.368 42.5873 97.937C43.5778 99.1605 44.6069 101.461 46.5236 101.82C48.273 102.153 49.2635 101.208 50.2798 100.344C51.0773 101.142 52.5952 101.86 54.126 101.634C55.1422 101.488 55.7082 100.783 56.3642 100.623C58.7183 102.858 62.3716 101.448 62.8861 98.6817C66.4493 99.0009 67.6971 96.647 67.7099 93.1362C67.7228 87.8167 65.1758 83.0159 63.5936 79.2789C61.7927 75.0101 59.9403 70.7013 56.7116 68.1878C53.1869 65.4483 47.424 65.4749 42.1371 66.4324C37.0045 67.3633 32.4765 68.8395 29.0806 71.1401C22.25 75.7681 17.6963 83.5744 14.0559 91.9393C10.3126 100.544 7.54689 109.906 5.20571 119.202C4.06085 123.763 2.76163 128.67 1.71968 133.71C0.690591 138.684 -0.0554973 144.642 0.999318 150.068C1.9255 154.802 3.95795 159.244 6.72362 162.356C9.63079 165.627 12.9239 167.768 18.3394 168.553C23.8193 169.338 29.1835 168.34 33.9816 167.17C48.376 163.633 60.2619 158.14 74.116 154.044C76.7273 168.473 79.2872 182.956 81.6284 197.664H83.9567C81.3196 181.878 78.554 164.949 75.5567 149.057C75.2995 147.687 74.9521 142.98 73.3185 143.139C71.6076 143.312 72.6882 146.012 72.8682 147.022C73.2027 148.791 73.3957 150.493 73.6786 151.73C63.5679 154.949 53.8687 158.539 43.6421 161.89C35.0107 164.723 19.8188 169.856 11.1873 163.367C7.17385 160.348 4.76835 155.986 3.49486 150.706C2.16991 145.201 3.0189 138.232 4.30526 132.5C6.78794 121.356 9.63079 110.252 13.2455 100.437C15.5223 104.546 17.8506 108.682 23.1633 109.494C28.9905 110.385 33.6729 107.472 37.7378 105.797C36.1298 111.595 34.9721 119.268 34.9721 127.234C34.9721 129.216 34.3546 134.269 36.58 133.71C37.8149 133.405 37.1074 131.264 37.3004 130.2C49.8681 121.356 63.272 112.3 81.191 108.483C85.4617 107.579 90.5428 106.807 95.1351 106.169C96.5887 105.969 98.7241 105.451 99.959 105.517C100.808 105.57 101.721 106.235 102.815 106.169C98.9813 111.98 95.6368 117.38 95.1223 126.316C94.6335 134.841 96.6402 143.525 97.978 151.265C100.731 167.223 103.972 182.889 107.549 197.664C108.295 197.597 109.272 197.784 109.877 197.571C105.503 179.259 101.477 160.029 98.4282 140.267C97.4249 133.737 96.4858 126.077 98.5183 119.654C102.866 122.54 108.848 124.268 115.588 123.165C121.608 122.181 126.857 119.614 131.14 117.433C128.812 135.665 133.224 153.047 136.234 167.529C129.867 168.34 121.596 168.46 117.466 171.692C116.72 172.277 116.231 172.982 115.948 173.819C115.074 176.426 117.248 178.953 119.164 179.179C121.313 179.445 122.946 178.008 124.889 177.33C126.908 176.625 129.172 176.439 131.501 176.958C129.095 177.875 126.368 179.139 123.898 180.934C121.711 182.517 119.254 184.684 118.894 187.584C118.547 190.456 119.808 193.129 122.38 193.222C122.123 195.882 124.541 196.653 126.767 195.908C127.037 197.518 128.169 198.462 129.365 198.861C134.382 200.55 139.077 195.589 144.557 196.174C145.946 196.321 147.284 196.893 148.673 197.185C153.227 198.183 158.051 197.558 163.158 197.278C169.667 196.919 176.652 196.799 183.457 197.092C189.798 197.371 197.362 197.624 203.215 196.627C209.364 195.589 213.686 193.036 214.033 186.466C214.394 179.777 212.014 173.713 210.187 168.54H210.213ZM23.9994 107.259C18.4552 106.754 16.5128 101.541 14.3389 97.2721C17.2718 89.5455 20.6678 82.8031 25.3372 77.59C30.354 71.978 36.6186 69.1852 46.3435 68.2543C50.0868 67.8953 53.9588 68.5602 56.0941 70.5683C58.9756 73.2812 60.6092 77.9358 62.3458 82.1249C63.1691 84.1064 64.0824 86.274 64.7642 88.6811C65.4588 91.1547 66.5008 97.0593 62.9761 96.3545C61.5097 91.4871 60.1847 87.3246 58.4224 82.311C58.0622 81.3003 57.4191 78.4145 56.1842 78.4278C54.0488 78.4544 55.9397 82.1382 56.3642 83.3217C57.7407 87.1784 58.654 90.2105 59.9403 94.2267C60.3906 95.623 61.4454 98.9876 59.5801 99.3999C58.5896 99.6126 57.9079 98.7349 57.0717 98.203C56.197 93.349 54.0745 88.6412 52.1579 84.1596C51.5533 82.7632 50.4213 78.6938 48.6718 81.0211C48.8133 82.6701 49.6752 84.0532 50.2798 85.4628C51.4889 88.2556 52.6081 91.0483 53.6758 94.0538C54.1903 95.49 54.8463 97.1258 54.6534 98.8546C53.2127 100.012 51.5661 98.5221 50.6271 97.7508C49.4179 93.5617 47.6556 89.4524 45.8032 85.3697C45.3401 84.359 44.6198 82.0451 43.3849 82.1382C41.2367 82.2844 43.3077 85.4495 43.655 86.2076C45.07 89.253 46.1377 91.8861 47.4112 95.0778C47.7456 95.9289 49.2893 99.2536 47.5012 99.5195C46.5107 99.6658 45.4431 98.1631 44.9028 97.2987C43.1147 94.4394 42.0213 90.4897 39.9889 87.963C39.4872 87.3379 38.561 86.4868 37.7506 86.3007C35.5124 85.7687 33.9944 87.7901 32.1164 87.6837C31.4089 87.6438 30.8171 87.2715 30.3283 86.939C29.7366 86.54 28.193 85.5027 27.8199 87.0321C27.4469 88.5481 30.5727 90.0509 32.2064 90.0775C34.0974 90.1041 35.5895 88.4816 36.9402 88.6013C38.0722 88.6944 38.9727 90.5695 39.4486 91.4605C40.1432 92.817 40.3619 93.6149 41.1466 95.0645C40.3105 97.4715 39.3972 99.7855 38.7283 102.365C34.4704 104.453 30.2511 107.831 23.9737 107.259H23.9994ZM111.343 121.21C106.481 121.223 102.635 119.414 99.3673 117.326C100.911 113.217 103.201 109.4 105.632 106.515C105.117 109.972 108.925 109.627 107.96 105.863C112.372 104.852 115.884 102.725 119.049 100.131C119.769 99.5328 121.789 98.3759 121.814 97.2721C121.84 96.5007 121.3 96.1018 120.747 96.0752C119.756 96.022 118.264 97.8306 117.441 98.4823C114.328 100.956 110.764 103.443 105.825 103.842C96.7431 104.56 93.9903 96.6869 92.1508 89.7982C90.9287 85.2235 90.2856 79.5715 90.1055 73.9994C95.8812 72.0976 98.8141 77.4437 98.3124 83.335C98.1452 85.3298 96.8074 86.8725 96.8846 88.6944C96.936 89.9977 97.978 92.1122 99.1229 92.1122C99.5474 92.1122 100.229 91.6068 100.281 91.1015C100.383 90.2504 99.2901 89.5854 99.2129 88.6944C99.1486 87.9098 99.7403 86.7794 100.023 85.915C102.352 78.8135 98.0938 70.0762 90.1055 72.4168C89.5523 70.2358 91.469 64.544 89.2951 64.4642C88.4461 64.4376 88.266 64.9695 88.0473 65.7542C86.3879 64.5573 84.587 63.2806 83.2234 61.6848C81.8985 60.1421 80.4964 58.2005 80.535 55.5807C81.7055 55.4211 82.04 56.1658 83.0434 55.953C85.0501 55.5275 83.0562 49.7691 84.111 47.9073C86.1949 48.7451 87.5971 50.4208 90.1955 49.942C92.228 49.5564 93.6944 48.2132 95.8298 47.1626C97.7464 46.2317 100.229 45.487 102.622 45.3141C109.542 44.822 115.678 47.0961 120.592 49.3835C121.338 49.7292 122.2 50.2878 122.83 50.3144C124.567 50.3809 126.317 48.5856 127.924 48.2797C127.706 49.317 126.831 50.0617 127.037 51.1389C127.268 52.389 128.735 52.0166 130.163 51.9767C129.468 52.6284 128.169 52.6151 128.195 53.8252C128.207 54.6365 129.365 55.1817 130.253 55.6738C135.938 58.8255 139.836 64.411 139.103 73.8797C138.37 83.468 134.086 89.4125 127.397 93.1894C126.921 92.5776 126.69 91.7132 126.509 90.7823C129.121 88.4417 132.993 86.1677 133.482 81.6328C133.867 78.0289 131.346 75.4356 128.027 75.4356C125.596 75.4356 123.975 77.1245 122.753 77.9358C123.255 69.6108 122.547 62.1502 115.151 61.6715C112.578 61.5119 109.838 62.1103 107.368 62.7753C104.924 63.4402 102.66 64.4376 100.216 64.4376C97.4763 64.4376 95.1994 63.4136 93.2442 62.4029C92.4852 62.0172 90.3113 60.7007 90.2084 62.5891C90.1312 63.9721 92.9741 64.9163 94.0546 65.3552C95.7011 66.0334 97.2834 66.592 99.2386 66.7383C105.272 67.1904 109.349 63.4003 115.601 64.0519C120.991 64.6238 121.068 72.8424 120.335 79.0263C120.245 79.7444 119.975 80.5024 120.065 81.061C120.168 81.6328 120.772 82.3908 121.673 82.3509C122.676 82.311 123.178 80.928 123.911 80.1301C124.85 79.1061 126.458 77.5767 128.465 77.8161C130.459 78.0555 131.745 79.9173 130.973 82.3509C130.24 84.6383 128.555 86.1943 126.677 87.6172C125.982 88.1492 124.387 88.9604 124.168 90.1174C123.962 91.2212 124.593 92.3781 124.889 93.1628C125.249 94.1203 125.635 95.0113 125.956 95.756C126.754 97.5513 127.114 99.0807 128.465 100.557C130.381 100.264 132.401 100.557 134.459 100.65C133.276 104.919 132.44 109.52 131.603 114.148C126.419 117.326 119.602 121.143 111.395 121.17L111.343 121.21ZM149.072 194.871C147.258 194.459 145.483 193.767 143.618 193.767C139.515 193.767 136.003 196.361 132.259 196.72C130.819 196.853 129.661 196.627 129.044 195.709C130.42 193.089 133.43 191.826 136.556 190.35C137.894 189.725 139.347 189.073 141.02 188.408C142.19 187.943 145.136 187.464 145.136 186.094C145.136 183.793 141.277 185.881 140.492 186.187C136.453 187.716 132.092 189.419 128.966 192.012C128.426 192.464 127.847 193.408 127.178 193.674C126.947 193.767 125.043 194.366 124.58 193.488C123.744 191.892 127.243 189.804 127.976 189.233C131.693 186.347 135.72 184.458 140.492 182.49C141.328 182.144 142.628 181.639 142.64 180.828C142.653 179.312 141.045 179.724 140.132 180.083C135.077 182.131 129.507 184.738 125.558 188.129C125.223 188.421 124.811 188.621 124.4 188.967C123.937 189.339 123.036 190.921 122.072 190.722C121.377 190.589 121.03 189.02 121.261 187.77C121.454 186.732 122.046 185.855 122.689 185.097C126.008 181.174 132.928 178.461 138.871 176.958C140.351 176.585 140.917 176.426 140.93 175.575C140.942 173.128 137.148 175.468 135.746 175.482C134.961 175.482 133.752 174.87 132.53 174.644C129.7 174.125 126.239 174.285 123.86 175.202C122.625 175.681 120.811 176.984 119.473 176.772C118.688 176.639 118.032 175.668 118.135 174.737C118.367 172.716 123.216 171.731 125.738 171.226C132.054 169.963 138.949 169.524 145.766 169.191C147.516 169.112 149.342 169.005 151.13 169.005C154.565 169.005 157.331 168.819 161.048 168.819C162.335 168.819 164.354 168.526 165.255 168.819C165.975 169.058 166.85 170.84 167.313 171.585C169.101 174.471 170.863 178.128 170.889 182.49C170.915 187.544 169.217 190.948 167.673 194.685C161.035 194.565 155.221 196.268 149.085 194.871H149.072ZM210.303 190.988C207.28 194.805 198.584 195.124 191.972 194.964C184.473 194.778 177.334 194.565 170.246 194.592C171.841 190.669 173.552 186.134 173.011 180.735C172.523 175.814 170.207 171.931 168.368 168.899C173.307 168.899 178.105 169.125 183.122 169.364C184.601 169.431 186.827 170.003 186.878 168.447C186.917 167.104 185.116 167.223 184.023 167.157C180.189 166.904 176.266 166.691 172.407 166.598C170.349 161.824 167.814 157.196 165.165 152.741C164.534 151.677 163.428 148.778 162.129 148.858C161.936 148.858 161.267 149.164 161.151 149.602C160.804 150.839 162.913 153.206 163.299 153.858C165.705 157.874 167.982 162.369 169.821 166.518C159.222 166.439 148.519 166.465 138.627 167.356C135.463 152.635 131.14 135.213 133.533 117.074C134.086 112.925 134.755 108.988 135.681 105.065C136.003 103.695 136.479 102.073 136.582 100.996C148.185 102.193 159.736 105.371 168.046 110.145C185.27 120.039 194.751 137.501 203.177 156.903C205.196 161.558 207.087 166.452 208.901 171.785C210.547 176.625 213.828 186.599 210.329 191.001L210.303 190.988Z" fill="#35353A"/>
<path fill-rule="evenodd" clip-rule="evenodd" d="M109.736 67.8805C111.151 67.8273 112.862 68.0667 114.56 68.7981C115.396 69.1572 118.946 70.7663 117.158 72.1228C116.283 72.7877 114.74 71.4977 114.122 71.2052C111.768 70.0881 108.848 69.9418 106.082 70.8328C105.156 71.1254 102.313 72.8675 102.326 70.6466C102.326 69.5295 104.346 68.9444 105.362 68.6119C106.919 68.0933 108.231 67.9204 109.749 67.8672L109.736 67.8805Z" fill="#35353A"/>
<path fill-rule="evenodd" clip-rule="evenodd" d="M127.255 81.0941C127.718 80.9744 128.49 80.9079 128.683 81.7458C128.966 82.916 126.727 85.1901 125.827 85.1635C125.209 85.1502 124.823 84.7646 124.759 84.2326C124.618 83.1953 126.611 81.267 127.268 81.0941H127.255Z" fill="#35353A"/>
<path fill-rule="evenodd" clip-rule="evenodd" d="M98.6465 93.9489C99.92 93.5766 100.975 95.3852 102.763 95.4251C104.229 95.465 106.879 93.6696 106.879 95.8905C106.879 97.4066 103.805 97.8986 102.235 97.739C100.46 97.5662 97.9004 96.3294 97.849 95.0527C97.8232 94.4277 98.1834 94.0819 98.6594 93.9489H98.6465Z" fill="#35353A"/>
<path fill-rule="evenodd" clip-rule="evenodd" d="M109.466 78.0596C110.276 77.9931 110.984 78.6049 111.061 79.456L111.241 81.6636C111.305 82.5014 110.713 83.2461 109.903 83.3126C109.093 83.3791 108.385 82.7674 108.308 81.9163L108.128 79.7087C108.064 78.8709 108.655 78.1261 109.466 78.0596Z" fill="#35353A"/>
<path fill-rule="evenodd" clip-rule="evenodd" d="M94.3504 78.0596C95.1608 77.9931 95.8812 78.6049 95.9455 79.456L96.1256 81.6636C96.1899 82.5014 95.5982 83.2461 94.7878 83.3126C93.9774 83.3791 93.257 82.7674 93.1927 81.9295L93.0126 79.722C92.9483 78.8841 93.54 78.1394 94.3504 78.0729V78.0596Z" fill="#35353A"/>
<path fill-rule="evenodd" clip-rule="evenodd" d="M53.4063 134.714L44.286 137.307L33.918 98.2093C33.918 98.2093 36.2849 97.5576 39.8352 96.5602C40.2469 96.4405 46.6143 107.106 47.0646 106.986C53.2777 105.258 62.7453 105.178 67.9808 100.51C69.653 99.0205 67.9679 90.5891 68.0322 88.4879C68.058 87.7831 72.1872 87.5703 72.1872 87.5703L75.7633 98.2891L55.9147 122.041L53.4063 134.701V134.714Z" fill="#ECD4FF"/>
<path fill-rule="evenodd" clip-rule="evenodd" d="M82.5669 116.056C87.1849 114.779 89.9249 109.898 88.69 105.151C87.4551 100.403 82.7084 97.5837 78.0904 98.847C78.0646 98.847 75.389 88.5938 75.389 88.5938L36.6953 99.2593L47.0634 139.062L58.0746 136.03C56.8526 131.283 59.5925 126.415 64.2106 125.152C68.8157 123.875 73.5624 126.681 74.8102 131.416L85.7571 128.397L82.5412 116.069H82.5669V116.056Z" fill="#9166FC"/>
<path d="M71.7873 88.6065L74.0642 97.3305L74.5916 99.3519L76.5597 98.8332C77.2158 98.6471 77.8332 98.5673 78.4378 98.5673C81.6151 98.5673 84.3936 100.775 85.2169 103.927C85.7057 105.788 85.4485 107.73 84.5223 109.392C83.5832 111.068 82.0653 112.265 80.2516 112.77L78.2191 113.302L78.7594 115.39L81.5894 126.282L73.8841 128.41C72.0446 124.513 68.1726 121.933 63.8633 121.933C62.8986 121.933 61.9338 122.066 60.9948 122.319C55.7335 123.768 52.3633 128.862 52.7492 134.248L44.9796 136.389L35.1775 98.7135L71.7873 88.6065ZM73.2409 86L32.6562 97.1975L43.526 138.982L55.0775 135.79C53.804 130.817 56.6726 125.697 61.5093 124.367C62.294 124.154 63.0915 124.048 63.8633 124.048C67.8639 124.048 71.53 126.787 72.6235 130.95L84.1106 127.784L80.7404 114.845C85.6157 113.502 88.4971 108.368 87.1979 103.381C86.1045 99.2056 82.4384 96.4528 78.4249 96.4528C77.6531 96.4528 76.8556 96.5592 76.0709 96.7719C76.0323 96.7719 73.228 86 73.228 86H73.2409Z" fill="#35353A"/>
<path d="M102.66 82.6177C102.158 82.6177 101.721 82.2454 101.644 81.7134C101.631 81.6469 101.528 81.2081 101.168 81.1549C100.859 81.1017 100.409 81.6469 100.28 81.873C99.9971 82.3784 99.3668 82.5512 98.8779 82.2587C98.3891 81.9661 98.2219 81.3145 98.5049 80.8091C98.9294 80.0511 100.036 78.8143 101.489 79.0537C102.981 79.2931 103.573 80.6362 103.689 81.3943C103.779 81.9794 103.393 82.5246 102.827 82.6044C102.776 82.6044 102.724 82.6044 102.673 82.6044L102.66 82.6177Z" fill="#35353A"/>
<g style="mix-blend-mode:screen">
<path fill-rule="evenodd" clip-rule="evenodd" d="M98.5576 80.7298C98.5576 84.7327 95.4189 87.9776 91.547 87.9776C87.675 87.9776 84.5234 84.7327 84.5234 80.7298C84.5234 76.7269 87.6622 73.4688 91.547 73.4688C95.4318 73.4688 98.5576 76.7136 98.5576 80.7298Z" fill="#A29A9A"/>
<path d="M91.547 75.426C94.377 75.426 96.6924 77.8064 96.6924 80.7455C96.6924 83.6845 94.3898 86.0649 91.547 86.0649C88.7041 86.0649 86.4015 83.6845 86.4015 80.7455C86.4015 77.8064 88.7041 75.426 91.547 75.426ZM91.547 73.4844C87.675 73.4844 84.5234 76.7293 84.5234 80.7455C84.5234 84.7617 87.6622 87.9932 91.547 87.9932C95.4318 87.9932 98.5576 84.7484 98.5576 80.7455C98.5576 76.7426 95.4189 73.4844 91.547 73.4844Z" fill="white"/>
</g>
<g style="mix-blend-mode:screen">
<path fill-rule="evenodd" clip-rule="evenodd" d="M117.273 80.7298C117.273 84.7327 114.135 87.9776 110.263 87.9776C106.391 87.9776 103.252 84.7327 103.252 80.7298C103.252 76.7269 106.391 73.4688 110.263 73.4688C114.135 73.4688 117.273 76.7136 117.273 80.7298Z" fill="#A29A9A"/>
<path d="M110.263 75.426C113.093 75.426 115.408 77.8064 115.408 80.7455C115.408 83.6845 113.105 86.0649 110.263 86.0649C107.42 86.0649 105.117 83.6845 105.117 80.7455C105.117 77.8064 107.42 75.426 110.263 75.426ZM110.263 73.4844C106.391 73.4844 103.252 76.7293 103.252 80.7455C103.252 84.7617 106.391 87.9932 110.263 87.9932C114.135 87.9932 117.273 84.7484 117.273 80.7455C117.273 76.7426 114.135 73.4844 110.263 73.4844Z" fill="white"/>
</g>
<path d="M110.262 89.6539C105.503 89.6539 101.631 85.651 101.631 80.7437C101.631 75.8365 105.503 71.8203 110.262 71.8203C115.022 71.8203 118.894 75.8232 118.894 80.7437C118.894 85.6643 115.022 89.6539 110.262 89.6539ZM110.262 73.9481C106.635 73.9481 103.689 76.9935 103.689 80.7437C103.689 84.494 106.635 87.5394 110.262 87.5394C113.89 87.5394 116.836 84.494 116.836 80.7437C116.836 76.9935 113.89 73.9481 110.262 73.9481Z" fill="#35353A"/>
<path d="M91.6616 89.6593C86.9149 89.6593 83.043 85.6564 83.043 80.7359C83.043 75.8154 86.9149 71.8125 91.6616 71.8125C96.4082 71.8125 100.28 75.8154 100.28 80.7359C100.28 85.6564 96.4082 89.6593 91.6616 89.6593ZM91.6616 73.9403C88.0469 73.9403 85.1011 76.9857 85.1011 80.7359C85.1011 84.4862 88.0469 87.5316 91.6616 87.5316C95.2762 87.5316 98.222 84.4862 98.222 80.7359C98.222 76.9857 95.2762 73.9403 91.6616 73.9403Z" fill="#35353A"/>
<path d="M139.578 153.172H131.371V170.872H139.578V153.172Z" fill="#ADA7FF"/>
<path fill-rule="evenodd" clip-rule="evenodd" d="M136.234 167.66C135.848 167.66 135.462 167.686 135.089 167.739V154.148H123.165C123.216 153.789 123.229 153.43 123.229 153.058C123.229 148.51 119.653 144.812 115.254 144.812C110.854 144.812 107.278 148.51 107.278 153.058C107.278 153.43 107.304 153.789 107.343 154.148H95.2637V195.308H135.077V184.057C135.45 184.11 135.835 184.137 136.221 184.137C140.621 184.137 144.197 180.44 144.197 175.892C144.197 171.343 140.621 167.646 136.221 167.646L136.234 167.66Z" fill="#ADA7FF"/>
<path d="M115.254 144.815C119.653 144.815 123.23 148.512 123.23 153.06C123.23 153.433 123.204 153.792 123.165 154.151H135.09V167.742C135.463 167.689 135.849 167.662 136.235 167.662C140.634 167.662 144.21 171.359 144.21 175.908C144.21 180.456 140.634 184.153 136.235 184.153C135.849 184.153 135.463 184.126 135.09 184.073V195.324H95.2769V154.164H107.356C107.304 153.805 107.292 153.446 107.292 153.074C107.292 148.526 110.868 144.829 115.267 144.829L115.254 144.815ZM115.254 142.688C110.057 142.688 105.774 146.797 105.272 152.023H93.2188V197.438H137.148V186.241C142.255 185.762 146.268 181.32 146.268 175.908C146.268 170.495 142.255 166.053 137.148 165.575V152.023H125.249C124.747 146.784 120.464 142.688 115.267 142.688H115.254Z" fill="#35353A"/>
<path fill-rule="evenodd" clip-rule="evenodd" d="M94.1952 167.66C93.8093 167.66 93.4234 167.686 93.0503 167.739V154.148H81.1258C81.1772 153.789 81.1901 153.43 81.1901 153.058C81.1901 148.51 77.614 144.812 73.2146 144.812C68.8153 144.812 65.2392 148.51 65.2392 153.058C65.2392 153.43 65.2649 153.789 65.3035 154.148H53.2246V195.308H93.0374V184.057C93.4105 184.11 93.7964 184.137 94.1823 184.137C98.5817 184.137 102.158 180.44 102.158 175.892C102.158 171.343 98.5817 167.646 94.1823 167.646L94.1952 167.66Z" fill="#F0F0F0"/>
<path d="M73.215 144.815C77.6144 144.815 81.1905 148.512 81.1905 153.06C81.1905 153.433 81.1647 153.792 81.1261 154.151H93.0507V167.742C93.4237 167.689 93.8097 167.662 94.1956 167.662C98.5949 167.662 102.171 171.359 102.171 175.908C102.171 180.456 98.5949 184.153 94.1956 184.153C93.8097 184.153 93.4237 184.126 93.0507 184.073V195.324H53.2379V154.164H65.3168C65.2653 153.805 65.2525 153.446 65.2525 153.074C65.2525 148.526 68.8285 144.829 73.2279 144.829L73.215 144.815ZM73.215 142.688C68.0181 142.688 63.7346 146.797 63.2329 152.023H51.1797V197.438H95.1089V186.241C100.216 185.762 104.229 181.32 104.229 175.908C104.229 170.495 100.216 166.053 95.1089 165.575V152.023H83.21C82.7084 146.784 78.4248 142.688 73.2279 142.688H73.215Z" fill="#35353A"/>
<mask id="mask0_459_17247" style="mask-type:luminance" maskUnits="userSpaceOnUse" x="53" y="144" width="50" height="52">
<path d="M94.1971 167.667C93.8112 167.667 93.4253 167.694 93.0523 167.747V154.156H81.1277C81.1792 153.797 81.192 153.438 81.192 153.065C81.192 148.517 77.6159 144.82 73.2166 144.82C68.8172 144.82 65.2412 148.517 65.2412 153.065C65.2412 153.438 65.2669 153.797 65.3055 154.156H53.2266V195.315H93.0394V184.065C93.4124 184.118 93.7984 184.145 94.1843 184.145C98.5836 184.145 102.16 180.448 102.16 175.899C102.16 171.351 98.5836 167.654 94.1843 167.654L94.1971 167.667Z" fill="white"/>
</mask>
<g mask="url(#mask0_459_17247)">
<path fill-rule="evenodd" clip-rule="evenodd" d="M96.6034 169.753C96.2175 169.753 95.8316 169.78 95.4585 169.833V156.242H83.534C83.5854 155.883 83.5983 155.524 83.5983 155.151C83.5983 150.603 80.0222 146.906 75.6228 146.906C71.2235 146.906 67.6474 150.603 67.6474 155.151C67.6474 155.524 67.6731 155.883 67.7117 156.242H55.6328V197.401H95.4457V186.151C95.8187 186.204 96.2046 186.23 96.5905 186.23C100.99 186.23 104.566 182.533 104.566 177.985C104.566 173.437 100.99 169.74 96.5905 169.74L96.6034 169.753Z" fill="#C4C4FF"/>
</g>
<path d="M139.578 113.422H131.371V153.73H139.578V113.422Z" fill="#A682FF"/>
<path fill-rule="evenodd" clip-rule="evenodd" d="M95.0586 111.055V122.305C99.0849 122.731 102.211 126.242 102.211 130.511C102.211 134.78 99.072 138.29 95.0586 138.716V152.121H135.116V111.055H95.0586Z" fill="#F0F0F0"/>
<path d="M135.103 111.057V152.124H95.0453V138.719C99.0716 138.293 102.197 134.782 102.197 130.513C102.197 126.245 99.0588 122.734 95.0453 122.308V111.057H135.103ZM137.161 108.93H93V124.223L94.8524 124.423C97.8753 124.742 100.165 127.362 100.165 130.513C100.165 133.665 97.8753 136.285 94.8524 136.604L93 136.804V154.252H137.161V108.93Z" fill="#35353A"/>
<mask id="mask1_459_17247" style="mask-type:luminance" maskUnits="userSpaceOnUse" x="95" y="111" width="41" height="42">
<path d="M95.0586 111.055V122.305C99.0849 122.731 102.211 126.242 102.211 130.511C102.211 134.78 99.072 138.29 95.0586 138.716V152.121H135.116V111.055H95.0586Z" fill="white"/>
</mask>
<g mask="url(#mask1_459_17247)">
<path fill-rule="evenodd" clip-rule="evenodd" d="M98.5449 113.422V124.673C102.571 125.098 105.697 128.609 105.697 132.878C105.697 137.147 102.558 140.658 98.5449 141.083V154.488H138.602V113.422H98.5449Z" fill="#A682FF"/>
</g>
<path fill-rule="evenodd" clip-rule="evenodd" d="M155.478 167.865L153.42 167.971C153.42 167.971 127.409 169.102 124.374 170.072C121.338 171.043 117.414 172.652 117.35 173.902C117.286 175.166 116.874 176.974 118.701 177.746C120.527 178.517 123.769 176.137 124.515 176.07C125.261 176.004 133.97 176.283 133.97 176.283L132.954 177.905C132.954 177.905 122.534 181.656 120.72 185.432C118.919 189.223 121.389 192.481 122.753 192.201C124.116 191.922 122.663 194.875 125.325 195.061C127.975 195.26 127.963 194.715 129.043 196.67C130.124 198.625 133.494 198.239 135.488 197.242C137.482 196.244 142.421 194.103 146.332 195.313C147.824 195.779 151.503 195.925 155.478 195.938V167.852V167.865Z" fill="#FEFEFF"/>
<path fill-rule="evenodd" clip-rule="evenodd" d="M40.9668 92.5624C40.9668 92.5624 46.2409 101.818 47.9003 101.1C49.5468 100.382 49.2381 98.6266 50.8332 99.5043C52.4283 100.382 55.0524 100.236 56.3774 99.4511C57.7023 98.6532 58.4227 101.659 60.095 100.555C61.7672 99.4511 62.0374 97.8553 63.105 97.6292C64.1727 97.4031 67.3114 97.7223 66.8355 91.7911C66.3595 85.8465 63.8511 83.2533 63.8511 83.0804C63.8511 82.9075 40.9797 92.5624 40.9797 92.5624H40.9668Z" fill="#FEFEFF"/>
<path d="M125.738 171.209C132.054 169.945 138.949 169.506 145.766 169.174C147.516 169.094 149.343 168.988 151.131 168.988C154.565 168.988 157.331 168.802 161.048 168.802C161.422 168.802 161.872 168.775 162.322 168.748V166.461C154.218 166.461 146.178 166.647 138.614 167.325C138.601 167.246 138.576 167.166 138.563 167.073H136.196C136.222 167.219 136.26 167.365 136.286 167.512C129.919 168.323 121.647 168.442 117.518 171.674C116.772 172.259 116.283 172.964 116 173.802C115.125 176.408 117.299 178.935 119.216 179.161C121.364 179.427 122.998 177.991 124.94 177.313C126.96 176.608 129.224 176.422 131.552 176.94C129.147 177.858 126.42 179.121 123.95 180.917C121.763 182.499 119.306 184.667 118.946 187.566C118.599 190.438 119.859 193.112 122.432 193.205C122.175 195.864 124.593 196.636 126.818 195.891C127.089 197.5 128.221 198.444 129.417 198.843C134.434 200.532 139.129 195.572 144.609 196.157C145.998 196.303 147.336 196.875 148.725 197.168C153.022 198.099 157.562 197.606 162.335 197.314V194.894C157.794 195.266 153.523 195.878 149.085 194.867C147.272 194.455 145.496 193.763 143.631 193.763C139.528 193.763 136.016 196.356 132.273 196.715C130.832 196.848 129.674 196.622 129.057 195.705C130.433 193.085 133.443 191.822 136.569 190.345C137.907 189.72 139.36 189.069 141.033 188.404C142.203 187.938 145.149 187.46 145.149 186.09C145.149 183.789 141.29 185.877 140.505 186.183C136.466 187.712 132.105 189.414 128.98 192.008C128.439 192.46 127.86 193.404 127.191 193.67C126.96 193.763 125.056 194.362 124.593 193.484C123.757 191.888 127.256 189.8 127.989 189.228C131.707 186.342 135.733 184.454 140.505 182.486C141.341 182.14 142.641 181.635 142.654 180.824C142.666 179.307 141.058 179.72 140.145 180.079C135.09 182.127 129.52 184.733 125.571 188.125C125.236 188.417 124.825 188.617 124.413 188.962C123.95 189.335 123.049 190.917 122.085 190.718C121.39 190.585 121.043 189.016 121.274 187.765C121.467 186.728 122.059 185.85 122.702 185.092C126.021 181.169 132.941 178.456 138.884 176.954C140.364 176.581 140.93 176.422 140.943 175.571C140.956 173.124 137.161 175.464 135.759 175.477C134.974 175.477 133.765 174.866 132.543 174.64C129.713 174.121 126.252 174.281 123.873 175.198C122.638 175.677 120.824 176.98 119.486 176.767C118.701 176.634 118.045 175.664 118.148 174.733C118.38 172.711 123.229 171.727 125.751 171.222L125.738 171.209Z" fill="#35353A"/>
<path d="M63.6068 79.2545C61.8059 74.9857 59.9535 70.6769 56.7248 68.1634C53.2001 65.4239 47.4372 65.4505 42.1503 66.408C37.0177 67.3389 32.4897 68.8151 29.0937 71.1157C22.2632 75.7437 17.7095 83.55 14.0691 91.9149C12.1524 96.3301 10.493 100.945 9.01367 105.639H11.4578C12.0366 103.857 12.6412 102.115 13.2715 100.413C14.2877 102.248 15.3168 104.097 16.6161 105.639H19.8191C17.2464 103.658 15.8442 100.24 14.3392 97.2743C17.2721 89.5477 20.6681 82.8053 25.3376 77.5922C30.3544 71.9802 36.619 69.1874 46.3438 68.2565C50.0871 67.8975 53.9591 68.5624 56.0944 70.5705C58.9759 73.2834 60.6096 77.938 62.3462 82.1271C63.1694 84.1086 64.0827 86.2762 64.7645 88.6833C65.4591 91.1569 66.5011 97.0615 62.9765 96.3567C61.51 91.4893 60.1851 87.3268 58.4228 82.3132C58.0626 81.3025 57.4194 78.4167 56.1845 78.43C54.0491 78.4566 55.9401 82.1404 56.3646 83.3239C57.741 87.1806 58.6543 90.2127 59.9407 94.2289C60.3909 95.6252 61.4457 98.9898 59.5805 99.4021C58.59 99.6148 57.9082 98.7371 57.0721 98.2052C56.1974 93.3512 54.0749 88.6434 52.1582 84.1618C51.5536 82.7654 50.4216 78.696 48.6721 81.0233C48.8136 82.6723 49.6755 84.0554 50.2801 85.465C51.4893 88.2578 52.6084 91.0505 53.6761 94.056C54.1906 95.4922 54.8467 97.128 54.6537 98.8568C53.213 100.014 51.5665 98.5243 50.6274 97.753C49.4182 93.5639 47.6559 89.4546 45.8036 85.3719C45.3405 84.3612 44.6201 82.0473 43.3852 82.1404C41.237 82.2866 43.308 85.4517 43.6553 86.2098C45.0703 89.2552 46.138 91.8883 47.4115 95.08C47.746 95.9311 49.2896 99.2558 47.5016 99.5218C46.5111 99.668 45.4434 98.1653 44.9031 97.3009C43.1151 94.4417 42.0217 90.4919 39.9892 87.9652C39.4875 87.3402 38.5614 86.489 37.751 86.3029C35.5127 85.7709 33.9948 87.7923 32.1167 87.6859C31.4092 87.646 30.8175 87.2737 30.3287 86.9412C29.7369 86.5422 28.1933 85.5049 27.8203 87.0343C27.4472 88.5503 30.5731 90.0531 32.2067 90.0797C34.0977 90.1063 35.5899 88.4838 36.9405 88.6035C38.0725 88.6966 38.973 90.5717 39.4489 91.4627C40.1436 92.8192 40.3623 93.6171 41.1469 95.0667C41.1212 95.1465 41.0955 95.213 41.0698 95.2928C41.1469 95.3992 41.1984 95.5454 41.1984 95.7183C41.1984 96.0774 41.1984 96.463 41.1727 96.8487C41.7129 97.2078 42.2532 97.6466 42.4719 98.2584C42.5105 98.152 42.5491 98.0456 42.5877 97.9392C43.5782 99.1627 44.6073 101.463 46.5239 101.822C48.2734 102.155 49.2639 101.211 50.2801 100.346C51.0776 101.144 52.5955 101.862 54.1263 101.636C55.1425 101.49 55.7085 100.785 56.3646 100.626C58.7186 102.86 62.3719 101.45 62.8864 98.6839C66.4496 99.0031 67.6974 96.6492 67.7103 93.1384C67.7231 87.8189 65.1761 83.0181 63.5939 79.2811L63.6068 79.2545Z" fill="#35353A"/>
<path fill-rule="evenodd" clip-rule="evenodd" d="M123.14 153.169C123.14 157.77 119.539 161.494 115.088 161.494C110.637 161.494 107.035 157.77 107.035 153.169C107.035 148.567 110.637 144.844 115.088 144.844C119.539 144.844 123.14 148.567 123.14 153.169Z" fill="#ADA7FF"/>
<path d="M115.074 162.722C109.98 162.722 105.838 158.44 105.838 153.173C105.838 147.907 109.98 143.625 115.074 143.625C120.168 143.625 124.31 147.907 124.31 153.173C124.31 158.44 120.168 162.722 115.074 162.722ZM115.074 146.072C111.279 146.072 108.205 149.264 108.205 153.173C108.205 157.083 111.292 160.275 115.074 160.275C118.856 160.275 121.943 157.083 121.943 153.173C121.943 149.264 118.856 146.072 115.074 146.072Z" fill="#35353A"/>
<path d="M130.214 154.25H100.088V163.253H130.214V154.25Z" fill="#ADA7FF"/>
</svg>
