<svg width="238" height="184" viewBox="0 0 238 184" fill="none" xmlns="http://www.w3.org/2000/svg">
<g clip-path="url(#clip0_459_17323)">
<path d="M46.8979 85.8557C46.1587 85.6094 45.7754 84.8431 46.0218 84.1589C46.2682 83.4747 47.0074 83.1189 47.6919 83.3378L46.8979 85.8557Z" fill="#A273FF"/>
<path d="M41.7787 83.7219C41.5871 83.7219 41.4228 83.6946 41.2311 83.6125C40.5193 83.3114 40.1908 82.5177 40.4919 81.8609C40.7657 81.204 41.5597 80.8756 42.2168 81.1766C42.9834 81.5051 43.2845 82.2988 42.9834 82.9556C42.7643 83.4482 42.2715 83.7219 41.7787 83.7219ZM36.3578 81.1493C36.1661 81.1493 35.9471 81.0945 35.7555 81.0124C35.0436 80.6293 34.7698 79.8356 35.1258 79.2061C35.4543 78.5492 36.2483 78.3029 36.9054 78.6587C37.6172 79.0145 37.8636 79.8082 37.5351 80.465C37.2887 80.9303 36.8506 81.1766 36.3578 81.1766V81.1493ZM31.1285 78.2208C30.9095 78.2208 30.6631 78.1661 30.4441 78.0292C29.7596 77.6187 29.5406 76.7976 29.9239 76.1955C30.3072 75.566 31.1011 75.3745 31.7309 75.7576C32.4153 76.1682 32.6343 76.9892 32.251 77.5913C32.0046 78.0019 31.5666 78.2208 31.1285 78.2208ZM26.1183 74.9639C25.8445 74.9639 25.5981 74.8818 25.3517 74.7176C24.6946 74.2523 24.5577 73.4313 24.9684 72.8292C25.3791 72.2271 26.2004 72.0902 26.8027 72.5281C27.4598 72.9934 27.5967 73.8145 27.186 74.3892C26.9396 74.745 26.529 74.9366 26.1183 74.9366V74.9639ZM21.3545 71.3239C21.0533 71.3239 20.7521 71.2144 20.5057 71.0228C19.876 70.4755 19.8213 69.6544 20.2867 69.107C20.7521 68.5597 21.6009 68.4775 22.1484 68.9702C22.7507 69.4628 22.8329 70.3112 22.3675 70.8586C22.0937 71.187 21.7378 71.3239 21.3545 71.3239ZM16.9465 67.2733C16.618 67.2733 16.2621 67.1365 16.0157 66.8902C15.4407 66.3154 15.4681 65.4944 15.9883 64.9743C16.5085 64.4543 17.3298 64.4817 17.85 64.9743C18.425 65.5491 18.3976 66.3702 17.8774 66.8902C17.631 67.1365 17.2751 67.2733 16.9465 67.2733ZM13.0041 62.7849C12.6208 62.7849 12.2375 62.6206 11.9637 62.2922C11.4709 61.6354 11.5804 60.8143 12.1553 60.3764C12.7303 59.9385 13.5516 60.048 13.9897 60.6227C14.4825 61.2522 14.373 62.0733 13.798 62.5112C13.5516 62.7027 13.2778 62.7849 12.9767 62.7849H13.0041ZM9.6639 57.8311C9.19846 57.8311 8.76041 57.5848 8.51401 57.1743C8.13071 56.49 8.32236 55.6963 8.95206 55.3132C9.58176 54.9574 10.3757 55.149 10.759 55.7785C11.1697 56.49 10.9507 57.3111 10.321 57.6669C10.1293 57.7764 9.88292 57.8311 9.6639 57.8311ZM7.11771 52.4395C6.59752 52.4395 6.07733 52.111 5.88568 51.591C5.6119 50.8247 5.94044 50.0584 6.6249 49.8121C7.30936 49.5658 8.07595 49.9215 8.32236 50.6058C8.59614 51.3447 8.2676 52.111 7.58314 52.3574C7.41887 52.4121 7.28198 52.4395 7.11771 52.4395ZM5.50239 46.692C4.87269 46.692 4.32512 46.2541 4.2156 45.6247C4.07871 44.831 4.54414 44.1467 5.25598 44.0099C5.96782 43.8731 6.65228 44.3383 6.78917 45.0499C6.92606 45.8436 6.46063 46.5278 5.74879 46.6647C5.66666 46.6647 5.58452 46.6647 5.50239 46.6647V46.692ZM4.92744 40.753C4.2156 40.753 3.61328 40.1783 3.61328 39.4667C3.61328 38.6456 4.18823 38.0435 4.92744 38.0435C5.66666 38.0435 6.2416 38.6456 6.2416 39.3572C6.2416 40.1509 5.66666 40.753 4.95482 40.753H4.92744ZM91.5799 39.412C91.005 39.412 90.4574 39.0288 90.2931 38.4267C90.1015 37.6604 90.5122 36.9488 91.1966 36.7572C91.9085 36.5656 92.6203 36.9761 92.812 37.6877C93.0036 38.4814 92.5929 39.193 91.8811 39.3846C91.7716 39.412 91.6621 39.4393 91.5525 39.4393L91.5799 39.412ZM5.42025 34.7593C5.42025 34.7593 5.28336 34.7593 5.2286 34.7593C4.51677 34.6498 4.02396 33.9929 4.13347 33.254C4.27036 32.4329 4.95482 31.9403 5.66666 32.0771C6.37849 32.1866 6.8713 32.8708 6.76179 33.5824C6.65228 34.294 6.10471 34.7593 5.44763 34.7593H5.42025ZM89.7182 33.7193C89.198 33.7193 88.7052 33.4182 88.5136 32.8982C88.2124 32.1592 88.5136 31.3929 89.198 31.1192C89.8825 30.8455 90.6491 31.174 90.9228 31.8308C91.224 32.5698 90.9228 33.3361 90.2384 33.6098C90.0741 33.6645 89.9098 33.7193 89.7456 33.7193H89.7182ZM6.73441 28.9297C6.73441 28.9297 6.48801 28.9297 6.35112 28.875C5.66666 28.656 5.25598 27.9171 5.47501 27.2329C5.69404 26.4665 6.43325 26.0834 7.11771 26.275C7.80217 26.4665 8.21284 27.2055 7.99382 27.9171C7.80217 28.5739 7.28198 28.9297 6.70704 28.9297H6.73441ZM87.0899 28.3003C86.6244 28.3003 86.1864 28.0539 85.94 27.6434C85.5567 26.9592 85.7757 26.1381 86.4054 25.7823C87.0351 25.4265 87.8291 25.6455 88.185 26.275C88.5683 26.9592 88.3493 27.7802 87.7196 28.136C87.5279 28.2455 87.2815 28.3003 87.0625 28.3003H87.0899ZM8.8973 23.3465C8.70565 23.3465 8.48663 23.2918 8.29498 23.2097C7.6379 22.8812 7.39149 22.0875 7.72003 21.4307C8.07595 20.7191 8.86993 20.4454 9.49963 20.7738C10.1567 21.1023 10.4305 21.896 10.102 22.5254C9.82817 23.0728 9.36273 23.3191 8.8973 23.3191V23.3465ZM83.9414 23.237C83.5307 23.237 83.12 23.0455 82.8462 22.6623C82.3808 22.0054 82.5451 21.1844 83.12 20.7738C83.7223 20.3633 84.5437 20.5002 84.9544 21.1023C85.4198 21.7865 85.2555 22.6076 84.6806 23.0181C84.4616 23.1823 84.1878 23.237 83.9414 23.237ZM80.3 18.5022C79.9167 18.5022 79.5608 18.338 79.287 18.037C78.7669 17.4349 78.8216 16.6138 79.3966 16.1212C79.9441 15.6559 80.7655 15.7106 81.2583 16.258C81.7785 16.8875 81.7237 17.7086 81.1488 18.1738C80.9024 18.3928 80.6012 18.4749 80.3 18.4749V18.5022ZM12.1006 18.3107C11.8268 18.3107 11.5256 18.2286 11.2792 18.037C10.7043 17.5991 10.5948 16.7506 11.0602 16.2033C11.5256 15.5738 12.347 15.4643 12.9493 15.9022C13.5242 16.3401 13.6338 17.1612 13.1957 17.7359C12.8672 18.1465 12.4839 18.3107 12.1006 18.3107ZM76.248 14.1232C75.9195 14.1232 75.5636 13.9864 75.3172 13.7401C74.7422 13.1927 74.7422 12.3443 75.2624 11.8243C75.7826 11.3043 76.604 11.3043 77.1242 11.8243C77.6991 12.399 77.6991 13.2474 77.1789 13.7401C76.9325 13.9864 76.5766 14.1232 76.248 14.1232ZM16.1799 13.9317C15.824 13.9317 15.4681 13.7948 15.2217 13.4938C14.7289 12.9464 14.7563 12.1253 15.3038 11.6327C15.9062 11.0853 16.7549 11.1401 17.2203 11.6601C17.7131 12.2074 17.6584 13.0285 17.1108 13.5211C16.8096 13.7948 16.4811 13.9043 16.1799 13.9043V13.9317ZM20.889 10.2643C20.451 10.2643 20.0403 10.0453 19.7939 9.66214C19.3832 9.06003 19.5475 8.23897 20.1772 7.82844C20.8343 7.39054 21.6556 7.55475 22.0663 8.15687C22.477 8.75898 22.3127 9.58004 21.7104 9.99057C21.4092 10.1822 21.1628 10.2643 20.9164 10.2643H20.889ZM71.7306 10.2095C71.4568 10.2095 71.1831 10.1274 70.9366 9.9632C70.2796 9.49793 70.1701 8.67687 70.5807 8.07476C71.0188 7.50002 71.8401 7.36317 72.4151 7.7737C73.0722 8.26634 73.2091 9.0874 72.771 9.66214C72.5246 10.0179 72.1139 10.1822 71.7032 10.1822L71.7306 10.2095ZM26.0635 7.3358C25.5707 7.3358 25.1053 7.06212 24.8863 6.59685C24.5851 5.94 24.8589 5.1463 25.516 4.84525C26.2278 4.48945 27.0218 4.76314 27.3503 5.41999C27.6789 6.07684 27.4051 6.87053 26.748 7.17159C26.4742 7.30843 26.2826 7.3358 26.0909 7.3358H26.0635ZM66.6382 7.08948C66.4466 7.08948 66.2276 7.03475 66.0359 6.95264C65.3241 6.59685 65.0503 5.80315 65.3788 5.1463C65.7074 4.48945 66.5014 4.24314 67.1584 4.57156C67.8703 4.95472 68.1441 5.74842 67.8155 6.3779C67.5691 6.84317 67.1311 7.08948 66.6382 7.08948ZM31.6213 5.09157C31.0738 5.09157 30.5536 4.73577 30.3619 4.1884C30.1429 3.50418 30.4988 2.76522 31.1833 2.51891C31.9773 2.27259 32.7165 2.65575 32.9355 3.33997C33.1545 4.02419 32.7712 4.76314 32.0868 4.98209C31.8951 5.03683 31.7582 5.0642 31.6213 5.0642V5.09157ZM61.1352 4.79051C61.1352 4.79051 60.8614 4.79051 60.7245 4.73577C59.9853 4.48945 59.5746 3.7505 59.821 3.06628C60.0401 2.38206 60.7793 1.9989 61.4637 2.21785C62.2303 2.46417 62.6136 3.20312 62.3946 3.88734C62.203 4.43472 61.7101 4.79051 61.1352 4.79051ZM37.3982 3.55892C36.7958 3.55892 36.2483 3.12102 36.1114 2.49154C35.9745 1.77995 36.4399 1.09573 37.1518 0.93152C37.9457 0.767307 38.6302 1.23258 38.7671 1.94416C38.904 2.65575 38.4385 3.33997 37.7267 3.50418C37.5624 3.53155 37.4803 3.55892 37.3982 3.55892ZM55.331 3.3126C55.331 3.3126 55.1667 3.3126 55.0846 3.3126C54.2906 3.17576 53.8252 2.49154 53.9621 1.77995C54.099 1.06836 54.756 0.575726 55.4953 0.71257C56.2892 0.849413 56.782 1.561 56.6451 2.27259C56.5356 2.90207 55.9881 3.33997 55.3584 3.33997L55.331 3.3126ZM43.3119 2.73786C42.6274 2.73786 42.0525 2.21785 41.9977 1.53363C41.943 0.822045 42.4905 0.165195 43.2024 0.137826C43.9963 0.0830889 44.6261 0.603095 44.6808 1.34205C44.7356 2.05364 44.2154 2.71049 43.4762 2.76522C43.3393 2.76522 43.3119 2.76522 43.2845 2.76522L43.3119 2.73786ZM49.3625 2.65575C48.4864 2.62838 47.9388 1.9989 47.9662 1.25994C47.9936 0.520989 48.6233 -0.026386 49.3351 0.000982689C50.1291 0.0283514 50.704 0.630463 50.6767 1.36942C50.6767 2.08101 50.0743 2.62838 49.3625 2.62838V2.65575Z" fill="#A273FF"/>
<path d="M92.6482 45.2993C92.4565 45.2993 92.2649 45.272 92.1006 45.1625C91.6352 44.9435 91.3066 44.4783 91.3066 43.9583C91.3066 43.2193 91.8542 42.6172 92.5934 42.6172C93.0589 42.6172 93.4969 42.8635 93.7433 43.2467C93.9897 43.6298 94.0445 44.1225 93.8528 44.5604C93.6338 45.0256 93.1684 45.3267 92.6756 45.3267L92.6482 45.2993Z" fill="#A273FF"/>
<path d="M124.625 125.651C124.488 125.651 124.324 125.651 124.187 125.569C123.503 125.323 123.147 124.584 123.393 123.9C123.64 123.161 124.406 122.778 125.091 123.024C125.775 123.243 126.159 124.009 125.912 124.694C125.693 125.323 125.173 125.651 124.653 125.651H124.625ZM126.761 120.123C126.597 120.123 126.405 120.096 126.241 120.013C125.584 119.712 125.255 118.946 125.556 118.289C125.885 117.55 126.679 117.249 127.336 117.55C127.993 117.851 128.294 118.618 127.993 119.274C127.747 119.822 127.281 120.123 126.761 120.123ZM129.471 114.841C129.252 114.841 129.006 114.786 128.814 114.649C128.185 114.293 127.966 113.472 128.349 112.843C128.787 112.131 129.581 111.94 130.211 112.323C130.84 112.706 131.032 113.5 130.649 114.129C130.375 114.594 129.937 114.841 129.471 114.841ZM132.976 110.079C132.647 110.079 132.346 109.969 132.072 109.723C131.552 109.23 131.525 108.409 132.018 107.862C132.565 107.26 133.386 107.232 133.934 107.725C134.454 108.218 134.482 109.039 133.989 109.586C133.688 109.914 133.332 110.051 132.976 110.051V110.079ZM137.685 106.548C137.192 106.548 136.699 106.274 136.48 105.782C136.179 105.125 136.48 104.331 137.137 104.03C137.904 103.702 138.67 104.03 138.972 104.66C139.273 105.316 138.972 106.11 138.287 106.384C138.068 106.493 137.876 106.521 137.685 106.521V106.548ZM143.571 105.754C142.722 105.754 142.148 105.125 142.175 104.413C142.175 103.702 142.777 103.127 143.489 103.127C144.338 103.127 144.913 103.756 144.885 104.468C144.885 105.18 144.283 105.754 143.571 105.754ZM149.403 105.617C148.718 105.617 148.143 105.097 148.089 104.413C148.034 103.702 148.581 103.045 149.293 103.017C150.087 102.963 150.717 103.483 150.772 104.194C150.826 104.906 150.306 105.563 149.567 105.617C149.43 105.617 149.403 105.617 149.375 105.617H149.403ZM155.262 104.769C154.659 104.769 154.112 104.359 153.975 103.729C153.811 103.017 154.276 102.333 154.988 102.169C155.782 102.005 156.494 102.47 156.631 103.182C156.768 103.893 156.302 104.577 155.59 104.742C155.426 104.769 155.344 104.796 155.262 104.796V104.769ZM161.039 103.455C160.436 103.455 159.889 103.045 159.752 102.443C159.588 101.731 160.026 101.02 160.737 100.855C161.531 100.664 162.243 101.129 162.38 101.813C162.544 102.525 162.106 103.236 161.394 103.401C161.23 103.428 161.121 103.455 161.011 103.455H161.039ZM190.525 102.607C189.786 102.607 189.211 102.005 189.211 101.293C189.211 100.582 189.813 99.9795 190.525 99.9795C191.319 99.9795 191.921 100.554 191.921 101.266C191.921 102.005 191.346 102.58 190.635 102.607H190.525ZM184.693 102.415C183.79 102.361 183.242 101.731 183.297 100.992C183.352 100.281 183.982 99.7332 184.721 99.788C185.515 99.8427 186.062 100.472 186.008 101.211C185.953 101.895 185.378 102.415 184.693 102.415ZM166.87 102.388C166.213 102.388 165.666 101.923 165.556 101.239C165.446 100.527 165.967 99.8427 166.679 99.7606C167.5 99.6511 168.157 100.171 168.239 100.883C168.321 101.594 167.828 102.251 167.089 102.361C166.952 102.361 166.898 102.361 166.843 102.361L166.87 102.388ZM196.439 102.333C195.754 102.333 195.179 101.813 195.125 101.129C195.07 100.417 195.59 99.7606 196.329 99.7059C197.123 99.6237 197.753 100.144 197.835 100.883C197.917 101.594 197.37 102.251 196.658 102.333C196.521 102.333 196.494 102.333 196.439 102.333ZM178.78 102.032C177.931 102.005 177.356 101.403 177.383 100.664C177.411 99.9248 178.041 99.3774 178.752 99.4048C179.574 99.4322 180.121 100.062 180.094 100.801C180.067 101.512 179.492 102.06 178.78 102.06V102.032ZM172.784 101.95C172.072 101.95 171.497 101.375 171.47 100.664C171.47 99.9248 172.017 99.3227 172.757 99.3227C173.55 99.3227 174.153 99.8701 174.18 100.609C174.18 101.348 173.633 101.95 172.893 101.95C172.811 101.95 172.784 101.95 172.784 101.95ZM202.325 101.512C201.695 101.512 201.148 101.074 201.038 100.445C200.901 99.7332 201.367 99.049 202.079 98.9122C202.873 98.7479 203.557 99.2406 203.694 99.9522C203.831 100.664 203.365 101.348 202.654 101.485C202.489 101.512 202.407 101.512 202.325 101.512ZM208.102 100.144C207.527 100.144 207.007 99.7606 206.843 99.1858C206.651 98.4743 207.034 97.7627 207.746 97.5711C208.513 97.3521 209.224 97.7353 209.443 98.4469C209.663 99.1311 209.252 99.8701 208.567 100.089C208.348 100.144 208.239 100.171 208.102 100.171V100.144ZM213.687 98.1732C213.167 98.1732 212.702 97.8722 212.482 97.3795C212.181 96.7227 212.482 95.929 213.167 95.6553C213.906 95.3542 214.7 95.6553 214.974 96.3395C215.248 97.0237 214.974 97.7627 214.289 98.0637C214.07 98.1732 213.879 98.2006 213.715 98.2006L213.687 98.1732ZM218.999 95.5732C218.533 95.5732 218.095 95.3269 217.876 94.9163C217.52 94.2868 217.712 93.4931 218.341 93.11C219.053 92.6995 219.847 92.9184 220.231 93.5479C220.586 94.1774 220.367 94.9711 219.738 95.3542C219.464 95.5184 219.245 95.5732 219.026 95.5732H218.999ZM223.899 92.2616C223.516 92.2616 223.133 92.0973 222.859 91.7689C222.421 91.1942 222.503 90.3731 223.078 89.9352C223.708 89.4426 224.529 89.5247 224.994 90.0994C225.432 90.6742 225.35 91.4952 224.775 91.9605C224.474 92.2068 224.173 92.2889 223.899 92.2889V92.2616ZM228.252 88.2384C227.951 88.2384 227.623 88.1289 227.376 87.9099C226.829 87.4173 226.801 86.5962 227.267 86.0489C227.814 85.4467 228.636 85.4194 229.183 85.8846C229.731 86.3773 229.758 87.1983 229.293 87.7457C228.992 88.1015 228.608 88.2384 228.252 88.2384ZM231.839 83.5309C231.593 83.5309 231.374 83.4762 231.155 83.3394C230.525 82.9562 230.333 82.1351 230.716 81.533C231.155 80.8488 231.948 80.6572 232.578 81.0404C233.208 81.4235 233.372 82.2446 232.989 82.8467C232.688 83.312 232.277 83.5309 231.839 83.5309ZM234.495 78.2488C234.33 78.2488 234.194 78.2214 234.029 78.1667C233.345 77.9203 233.016 77.154 233.263 76.4698C233.564 75.7035 234.303 75.375 234.988 75.6487C235.672 75.9224 236 76.6614 235.727 77.3456C235.508 77.9477 234.987 78.2488 234.467 78.2488H234.495ZM176.809 73.1582C175.96 73.1582 175.385 72.5287 175.412 71.8171C175.412 71.1055 176.015 70.5308 176.726 70.5308C177.575 70.5308 178.15 71.1603 178.123 71.8719C178.123 72.5834 177.52 73.1582 176.809 73.1582ZM182.64 72.7477C182.038 72.7477 181.49 72.3098 181.353 71.6803C181.216 70.9687 181.682 70.2845 182.394 70.1203C183.188 69.956 183.899 70.4213 184.036 71.1603C184.173 71.8719 183.708 72.5561 182.996 72.6929C182.859 72.7203 182.75 72.7203 182.667 72.7203L182.64 72.7477ZM170.922 72.6655C170.922 72.6655 170.813 72.6655 170.758 72.6655C169.937 72.5561 169.444 71.8992 169.526 71.1603C169.635 70.4487 170.292 69.9287 171.004 70.0381C171.798 70.1476 172.291 70.8045 172.209 71.5161C172.127 72.1729 171.552 72.6655 170.895 72.6655H170.922ZM236.137 72.5561C236.137 72.5561 235.973 72.5561 235.891 72.5561C235.179 72.4192 234.714 71.735 234.851 71.0234C235.015 70.2297 235.699 69.7645 236.411 69.9013C237.123 70.0381 237.588 70.7224 237.452 71.434C237.315 72.1455 236.767 72.5834 236.137 72.5834V72.5561ZM165.063 71.6803C165.063 71.6803 164.899 71.6803 164.817 71.6803C164.023 71.5161 163.557 70.8318 163.694 70.1203C163.831 69.4087 164.543 68.9434 165.255 69.0802C166.049 69.2445 166.514 69.9287 166.35 70.6403C166.213 71.2697 165.666 71.7076 165.063 71.7076V71.6803ZM159.286 70.3666C159.286 70.3666 159.067 70.3666 158.958 70.3392C158.164 70.1476 157.753 69.4087 157.917 68.7244C158.109 68.0129 158.821 67.6023 159.505 67.7665C160.272 67.9581 160.71 68.6697 160.518 69.3813C160.381 69.9834 159.834 70.3666 159.232 70.3666H159.286ZM187.951 70.2571C187.596 70.2571 187.24 70.1203 186.966 69.8192C186.473 69.2718 186.528 68.4508 187.075 67.9581C187.705 67.4107 188.526 67.4655 189.019 68.0129C189.485 68.5602 189.43 69.3813 188.882 69.8739C188.581 70.1476 188.28 70.2571 187.951 70.2571ZM153.564 68.8339C153.564 68.8339 153.318 68.8339 153.208 68.7792C152.442 68.5602 152.031 67.8213 152.223 67.1371C152.414 66.4255 153.154 66.0423 153.838 66.2339C154.605 66.4528 155.015 67.1918 154.824 67.876C154.659 68.4508 154.139 68.8339 153.564 68.8339ZM147.87 67.1371C147.87 67.1371 147.596 67.1371 147.486 67.0823C146.72 66.836 146.336 66.097 146.555 65.4128C146.774 64.7286 147.514 64.3454 148.198 64.537C148.965 64.7833 149.348 65.5223 149.129 66.2065C148.965 66.7813 148.445 67.1371 147.87 67.1371ZM236.767 66.6718C236.001 66.6718 235.426 66.0423 235.453 65.3307C235.453 64.537 236.055 63.9623 236.767 63.9623C237.534 63.9623 238.109 64.5918 238.081 65.3034C238.081 66.097 237.479 66.6718 236.767 66.6718ZM192.524 66.5076C192.14 66.5076 191.73 66.3434 191.483 65.9876C191.045 65.4128 191.155 64.5918 191.73 64.1539C192.387 63.6612 193.208 63.7707 193.646 64.3454C194.084 64.9202 193.975 65.7413 193.4 66.1792C193.099 66.3981 192.825 66.4802 192.551 66.4802L192.524 66.5076ZM142.23 65.3034C142.23 65.3034 141.956 65.3034 141.819 65.2486C141.052 64.9749 140.669 64.236 140.915 63.5518C141.162 62.8675 141.901 62.4844 142.586 62.7307C143.352 62.977 143.708 63.716 143.489 64.4002C143.297 64.9476 142.805 65.3034 142.23 65.3034ZM136.617 63.3602C136.48 63.3602 136.316 63.3602 136.179 63.2781C135.412 63.0044 135.057 62.2654 135.303 61.5812C135.549 60.897 136.289 60.5412 136.973 60.7875C137.74 61.0612 138.096 61.8002 137.849 62.4844C137.657 63.0317 137.165 63.3602 136.617 63.3602ZM197.37 63.0591C196.959 63.0591 196.521 62.8675 196.275 62.4844C195.864 61.8823 196.028 61.0612 196.63 60.6507C197.315 60.2128 198.136 60.377 198.52 60.9791C198.93 61.5812 198.739 62.4023 198.136 62.8128C197.862 63.0044 197.589 63.0865 197.342 63.0865L197.37 63.0591ZM131.059 61.3349C130.895 61.3349 130.758 61.3349 130.594 61.2528C129.855 60.9791 129.499 60.2128 129.745 59.5286C129.992 58.8443 130.758 58.4885 131.443 58.7622C132.209 59.0359 132.538 59.8022 132.291 60.4865C132.1 61.0065 131.579 61.3349 131.059 61.3349ZM236.521 60.7601C235.864 60.7601 235.289 60.2675 235.207 59.6107C235.124 58.7896 235.645 58.1327 236.356 58.0506C237.068 57.9685 237.725 58.4885 237.807 59.2001C237.917 59.9938 237.397 60.6507 236.658 60.7328C236.603 60.7328 236.548 60.7328 236.493 60.7328L236.521 60.7601ZM202.407 59.9117C201.942 59.9117 201.504 59.6654 201.257 59.2549C200.901 58.6254 201.093 57.8317 201.723 57.4485C202.435 57.038 203.229 57.2569 203.585 57.8864C203.94 58.5159 203.721 59.3096 203.119 59.6928C202.845 59.857 202.626 59.9117 202.38 59.9117H202.407ZM125.501 59.2275C125.337 59.2275 125.2 59.2001 125.036 59.1454C124.269 58.8443 123.941 58.078 124.215 57.4212C124.488 56.7369 125.228 56.4085 125.912 56.6822C126.651 56.9559 127.007 57.7222 126.734 58.4064C126.542 58.9264 126.022 59.2549 125.501 59.2549V59.2275ZM207.637 57.0927C207.144 57.0927 206.678 56.819 206.459 56.3538C206.131 55.6969 206.405 54.9032 207.034 54.6022C207.773 54.2464 208.54 54.5201 208.869 55.1496C209.197 55.8064 208.923 56.6001 208.266 56.9012C208.02 57.038 207.801 57.0654 207.609 57.0654L207.637 57.0927ZM119.998 57.0654C119.834 57.0654 119.67 57.038 119.506 56.9833C118.766 56.6822 118.438 55.9159 118.712 55.2317C118.985 54.5474 119.752 54.219 120.409 54.4927C121.148 54.7938 121.477 55.5601 121.203 56.2443C120.984 56.7643 120.491 57.0654 119.971 57.0654H119.998ZM235.124 55.0401C234.659 55.0401 234.221 54.7938 234.002 54.3832C233.591 53.7264 233.783 52.9053 234.413 52.5222C235.042 52.139 235.836 52.3306 236.22 52.9601C236.63 53.6716 236.439 54.4927 235.809 54.8485C235.59 54.958 235.371 55.0401 235.152 55.0401H235.124ZM114.495 54.8211C114.331 54.8211 114.167 54.7938 114.003 54.7117C113.236 54.4106 112.935 53.6443 113.209 52.9601C113.482 52.2758 114.249 51.9748 114.933 52.2485C115.673 52.5495 116.001 53.3158 115.727 54.0001C115.508 54.5201 115.016 54.8211 114.495 54.8211ZM213.03 54.6569C212.51 54.6569 212.017 54.3559 211.798 53.8359C211.524 53.1516 211.853 52.3853 212.537 52.139C213.276 51.8379 214.043 52.139 214.317 52.8232C214.591 53.5074 214.262 54.2738 213.605 54.5474C213.359 54.6569 213.194 54.6843 213.03 54.6843V54.6569ZM218.615 52.7137C218.04 52.7137 217.52 52.3306 217.356 51.7558C217.164 51.0442 217.575 50.3327 218.259 50.1411C219.026 49.9221 219.738 50.3053 219.957 51.0169C220.176 51.7011 219.765 52.44 219.081 52.659C218.862 52.7137 218.752 52.7411 218.615 52.7411V52.7137ZM108.992 52.5495C108.828 52.5495 108.664 52.5222 108.5 52.44C107.733 52.1116 107.432 51.3453 107.733 50.6611C108.034 50.0042 108.801 49.6758 109.458 49.9769C110.17 50.2779 110.498 51.0442 110.224 51.7285C110.005 52.2485 109.513 52.5495 109.02 52.5495H108.992ZM230.388 51.7558C230.388 51.7558 230.169 51.7558 230.059 51.7011C229.293 51.5095 228.855 50.7979 229.019 50.1137C229.183 49.4295 229.895 48.9642 230.607 49.1558C231.401 49.3474 231.839 50.0863 231.647 50.7706C231.483 51.3727 230.963 51.7558 230.361 51.7558H230.388ZM224.419 51.5095C223.762 51.5095 223.187 51.0169 223.105 50.3327C223.023 49.6211 223.543 48.9642 224.255 48.8821C225.049 48.8 225.706 49.2926 225.788 50.0316C225.87 50.7432 225.378 51.4 224.638 51.5095C224.502 51.5095 224.447 51.5095 224.392 51.5095H224.419ZM103.544 50.1958C103.352 50.1958 103.188 50.1684 102.996 50.0863C102.257 49.7853 101.956 48.9916 102.257 48.3347C102.558 47.6779 103.325 47.3495 103.982 47.6505C104.721 47.9789 105.022 48.7726 104.721 49.4295C104.502 49.9221 104.009 50.1958 103.517 50.1958H103.544ZM98.1231 47.7874C97.9315 47.7874 97.7672 47.76 97.5756 47.6779C96.8363 47.3495 96.5352 46.5558 96.8363 45.8989C97.1375 45.2421 97.9041 44.941 98.5886 45.2421C99.3278 45.5705 99.6289 46.3368 99.3278 47.021C99.1087 47.5137 98.6159 47.7874 98.1231 47.7874Z" fill="#A273FF"/>
<path d="M122.956 131.263C122.956 131.263 122.764 131.263 122.655 131.236C121.943 131.072 121.505 130.36 121.669 129.649C121.861 128.91 122.545 128.472 123.257 128.636C123.969 128.8 124.407 129.512 124.215 130.223C124.051 130.853 123.531 131.263 122.929 131.263H122.956Z" fill="#A273FF"/>
<path fill-rule="evenodd" clip-rule="evenodd" d="M147.707 156.773H188.446C191.978 156.773 194.825 159.62 194.825 163.15V165.422C194.825 168.953 191.978 171.799 188.446 171.799H147.707C144.175 171.799 141.328 168.953 141.328 165.422V163.15C141.328 159.62 144.175 156.773 147.707 156.773Z" fill="#A273FF"/>
<path d="M188.473 172.699H147.734C143.709 172.699 140.451 169.415 140.451 165.419V163.147C140.451 159.124 143.737 155.867 147.734 155.867H188.473C192.497 155.867 195.755 159.151 195.755 163.147V165.419C195.755 169.442 192.47 172.699 188.473 172.699ZM147.734 157.674C144.722 157.674 142.286 160.109 142.286 163.12V165.392C142.286 168.402 144.722 170.838 147.734 170.838H188.473C191.484 170.838 193.921 168.402 193.921 165.392V163.12C193.921 160.109 191.484 157.674 188.473 157.674H147.734Z" fill="#35353A"/>
<path fill-rule="evenodd" clip-rule="evenodd" d="M150.746 159.32H186.749C189.405 159.32 191.567 161.482 191.567 164.137C191.567 166.792 189.405 168.954 186.749 168.954H150.746C148.091 168.954 145.928 166.792 145.928 164.137C145.928 161.482 148.091 159.32 150.746 159.32Z" fill="white"/>
<path d="M186.748 169.854H150.746C147.597 169.854 145.023 167.282 145.023 164.134C145.023 160.987 147.597 158.414 150.746 158.414H186.748C189.897 158.414 192.47 160.987 192.47 164.134C192.47 167.282 189.897 169.854 186.748 169.854ZM150.746 160.248C148.61 160.248 146.858 161.999 146.858 164.134C146.858 166.269 148.61 168.02 150.746 168.02H186.748C188.884 168.02 190.636 166.269 190.636 164.134C190.636 161.999 188.884 160.248 186.748 160.248H150.746Z" fill="#35353A"/>
<path fill-rule="evenodd" clip-rule="evenodd" d="M158.713 142.453H188.473C192.005 142.453 194.853 145.299 194.853 148.83V149.377C194.853 152.908 192.005 155.754 188.473 155.754H158.713C155.181 155.754 152.334 152.908 152.334 149.377V148.83C152.334 145.299 155.181 142.453 158.713 142.453Z" fill="#A273FF"/>
<path d="M188.473 156.686H158.712C154.688 156.686 151.43 153.401 151.43 149.406V148.858C151.43 144.835 154.715 141.578 158.712 141.578H188.473C192.497 141.578 195.755 144.862 195.755 148.858V149.406C195.755 153.429 192.47 156.686 188.473 156.686ZM158.712 143.384C155.701 143.384 153.264 145.82 153.264 148.831V149.378C153.264 152.389 155.701 154.825 158.712 154.825H188.473C191.484 154.825 193.921 152.389 193.921 149.378V148.831C193.921 145.82 191.484 143.384 188.473 143.384H158.712Z" fill="#35353A"/>
<path fill-rule="evenodd" clip-rule="evenodd" d="M105.955 121.211H164.846C166.926 121.211 168.159 122.963 167.611 125.152L157.892 163.879C157.344 166.068 155.236 167.82 153.155 167.82H94.2643C92.1836 167.82 90.9515 166.068 91.4991 163.879L101.218 125.152C101.766 122.963 103.874 121.211 105.955 121.211Z" fill="white"/>
<path d="M164.818 123.021C165.202 123.021 165.475 123.131 165.64 123.35C165.859 123.651 165.914 124.116 165.777 124.663L156.057 163.39C155.729 164.759 154.332 165.935 153.1 165.935H94.2096C93.8263 165.935 93.5525 165.826 93.3883 165.607C93.1692 165.306 93.1145 164.841 93.2514 164.293L102.971 125.567C103.299 124.198 104.696 123.021 105.928 123.021H164.818ZM164.818 121.188H105.928C103.847 121.188 101.739 122.939 101.191 125.129L91.4718 163.855C90.9242 166.045 92.1562 167.796 94.237 167.796H153.128C155.209 167.796 157.317 166.045 157.864 163.855L167.584 125.129C168.131 122.939 166.899 121.188 164.818 121.188Z" fill="#35353A"/>
<path fill-rule="evenodd" clip-rule="evenodd" d="M60.8341 165.25H154.66C155.536 165.25 156.248 165.962 156.248 166.837V168.835C156.248 170.943 154.523 172.667 152.415 172.667H63.0517C60.9436 172.667 59.2188 170.943 59.2188 168.835V166.837C59.2188 165.962 59.9306 165.25 60.8067 165.25H60.8341Z" fill="white"/>
<path d="M154.413 167.084V168.863C154.413 169.957 153.51 170.861 152.415 170.861H63.0517C61.9566 170.861 61.0531 169.957 61.0531 168.863V167.084H154.386H154.413ZM154.66 165.25H60.834C59.9579 165.25 59.2461 165.962 59.2461 166.837V168.835C59.2461 170.943 60.9709 172.667 63.0791 172.667H152.442C154.55 172.667 156.275 170.943 156.275 168.835V166.837C156.275 165.962 155.563 165.25 154.687 165.25H154.66Z" fill="#35353A"/>
<path fill-rule="evenodd" clip-rule="evenodd" d="M109.183 125.68H159.012C160.764 125.68 161.832 127.048 161.394 128.745L153.783 158.933C153.344 160.63 151.592 161.998 149.84 161.998H100.011C98.2592 161.998 97.1915 160.63 97.6295 158.933L105.241 128.745C105.679 127.048 107.431 125.68 109.183 125.68Z" fill="#A273FF"/>
<path d="M149.868 162.953H100.04C98.9172 162.953 97.9316 162.488 97.3019 161.694C96.6722 160.9 96.4805 159.805 96.7543 158.738L104.365 128.55C104.886 126.443 107.021 124.773 109.184 124.773H159.013C160.135 124.773 161.121 125.239 161.751 126.032C162.38 126.826 162.572 127.921 162.298 128.988L154.687 159.176C154.167 161.283 152.031 162.953 149.868 162.953ZM109.211 126.607C107.87 126.607 106.474 127.702 106.145 128.988L98.5339 159.176C98.397 159.723 98.4791 160.216 98.7529 160.572C99.0267 160.928 99.4921 161.119 100.04 161.119H149.868C151.21 161.119 152.606 160.024 152.907 158.738L160.518 128.55C160.655 128.003 160.573 127.51 160.299 127.155C160.026 126.799 159.56 126.607 159.013 126.607H109.184H109.211Z" fill="#35353A"/>
<path fill-rule="evenodd" clip-rule="evenodd" d="M190.637 123.294C191.924 121.515 193.21 119.982 196.906 119.435C200.986 118.806 203.477 121.378 203.477 121.378C203.477 121.378 202.218 124.361 197.509 125.018C192.8 125.675 190.609 123.321 190.609 123.321L190.637 123.294Z" fill="white"/>
<path d="M195.893 126.03C191.95 126.03 190.034 124.004 189.924 123.922L189.404 123.375L189.842 122.773C191.239 120.802 192.744 119.133 196.714 118.531C201.204 117.846 203.97 120.611 204.079 120.72L204.49 121.158L204.243 121.705C204.189 121.842 202.738 125.181 197.563 125.893C196.961 125.975 196.358 126.002 195.838 126.002L195.893 126.03ZM191.868 123.129C192.717 123.676 194.497 124.47 197.371 124.086C200.273 123.676 201.697 122.335 202.272 121.569C201.423 120.939 199.589 119.954 197.015 120.337C194.196 120.775 192.963 121.76 191.868 123.129Z" fill="#35353A"/>
<path fill-rule="evenodd" clip-rule="evenodd" d="M44.6255 32.2188H202.38C210.292 32.2188 216.726 38.6504 216.726 46.56V97.6027C216.726 105.512 210.292 111.944 202.38 111.944H44.6255C36.7132 111.944 30.2793 105.512 30.2793 97.6027V46.56C30.2793 38.6504 36.7132 32.2188 44.6255 32.2188Z" fill="white"/>
<path d="M202.353 32.2165C210.265 32.2165 216.699 38.6482 216.699 46.5577V97.6004C216.699 105.51 210.265 111.942 202.353 111.942H44.6259C36.7136 111.942 30.2797 105.51 30.2797 97.6004V46.5577C30.2797 38.6482 36.7136 32.2165 44.6259 32.2165H202.38H202.353ZM202.353 30.3828H44.6259C35.7006 30.3828 28.4453 37.6355 28.4453 46.5577V97.6004C28.4453 106.523 35.7006 113.775 44.6259 113.775H202.38C211.305 113.775 218.561 106.523 218.561 97.6004V46.5577C218.561 37.6355 211.305 30.3828 202.38 30.3828H202.353Z" fill="#883BFF"/>
<path fill-rule="evenodd" clip-rule="evenodd" d="M184.338 128.636C184.338 128.636 184.968 125.817 186.035 124.066C187.103 122.314 188.664 120.672 188.664 120.672L184.338 128.636Z" fill="white"/>
<path d="M184.338 129.563C184.338 129.563 184.201 129.563 184.146 129.563C183.654 129.454 183.352 128.961 183.462 128.468C183.462 128.359 184.146 125.485 185.269 123.624C186.391 121.818 187.952 120.148 188.007 120.066C188.363 119.71 188.938 119.683 189.293 120.011C189.649 120.367 189.677 120.942 189.348 121.298C189.348 121.298 187.842 122.912 186.829 124.555C185.844 126.142 185.242 128.824 185.242 128.851C185.159 129.289 184.776 129.563 184.338 129.563Z" fill="#35353A"/>
<path fill-rule="evenodd" clip-rule="evenodd" d="M184.147 124.391C189.623 124.391 194.031 128.25 194.004 133.039C193.976 137.829 189.514 141.688 184.038 141.688C178.562 141.688 174.154 137.829 174.182 133.039C174.182 128.25 178.672 124.391 184.147 124.391Z" fill="white"/>
<path d="M184.037 142.592C180.943 142.592 177.986 141.415 175.933 139.362C174.181 137.611 173.25 135.366 173.25 133.013C173.277 127.73 178.151 123.461 184.119 123.461C187.213 123.461 190.17 124.638 192.223 126.69C193.975 128.442 194.906 130.686 194.906 133.04C194.879 138.322 190.006 142.592 184.037 142.592ZM184.147 125.295C179.191 125.295 175.139 128.77 175.112 133.04C175.112 134.874 175.851 136.68 177.247 138.076C178.945 139.8 181.436 140.758 184.037 140.758C188.993 140.758 193.045 137.282 193.072 133.013C193.072 131.179 192.333 129.373 190.936 127.977C189.239 126.253 186.748 125.295 184.147 125.295Z" fill="#35353A"/>
<path d="M184.585 165.283H156.851C156.358 165.283 155.947 164.872 155.947 164.38C155.947 163.887 156.358 163.477 156.851 163.477H184.585C185.078 163.477 185.489 163.887 185.489 164.38C185.489 164.872 185.078 165.283 184.585 165.283Z" fill="#35353A"/>
<path d="M184.504 162.759H160.876C160.383 162.759 159.973 162.349 159.973 161.856C159.973 161.364 160.383 160.953 160.876 160.953H184.504C184.996 160.953 185.407 161.364 185.407 161.856C185.407 162.349 184.996 162.759 184.504 162.759Z" fill="#35353A"/>
<path d="M233.867 174.095H11.0343C10.5415 174.095 10.1309 173.685 10.1309 173.192C10.1309 172.7 10.5415 172.289 11.0343 172.289H233.867C234.36 172.289 234.77 172.7 234.77 173.192C234.77 173.685 234.36 174.095 233.867 174.095Z" fill="#35353A"/>
<mask id="mask0_459_17323" style="mask-type:luminance" maskUnits="userSpaceOnUse" x="30" y="32" width="187" height="80">
<path d="M44.6275 32.2109H202.382C210.294 32.2109 216.728 38.6426 216.728 46.5522V97.5948C216.728 105.504 210.294 111.936 202.382 111.936H44.6275C36.7152 111.936 30.2812 105.504 30.2812 97.5948V46.5522C30.2812 38.6426 36.7152 32.2109 44.6275 32.2109Z" fill="white"/>
</mask>
<g mask="url(#mask0_459_17323)">
<path fill-rule="evenodd" clip-rule="evenodd" d="M47.5025 34.3672H205.257C213.169 34.3672 219.603 40.7988 219.603 48.7084V99.7511C219.603 107.661 213.169 114.092 205.257 114.092H47.5025C39.5902 114.092 33.1562 107.661 33.1562 99.7511V48.7084C33.1562 40.7988 39.5902 34.3672 47.5025 34.3672Z" fill="#883BFF"/>
<path fill-rule="evenodd" clip-rule="evenodd" d="M128.515 111.904L134.237 95.1818C134.237 95.1818 132.32 93.0197 130.842 91.706C129.336 90.3923 128.131 89.2154 128.131 89.2154L123.012 85.2743C123.012 85.2743 120.575 83.5227 121.068 82.0996C121.561 80.6764 122.628 81.3332 122.628 81.3332C122.628 81.3332 123.888 78.8974 125.421 79.7732C126.954 80.649 127.584 81.8532 127.584 81.8532L129.692 84.3164C129.692 84.3164 139.959 86.6428 140.041 86.1228C140.15 85.5754 135.743 82.8659 137.495 79.9374C138.754 77.83 146.092 85.548 146.557 86.7523C147.022 87.9565 148.227 90.7207 147.57 94.2513C146.913 97.7818 143.628 111.904 143.628 111.904H151.759L177.686 84.3438L180.862 83.4133L188.227 73.5058V72.411C188.227 72.411 182.45 73.3142 179.712 69.4826C176.974 65.6236 177.467 48.655 177.467 48.655L186.694 45.7812L198.466 49.0381L200.876 58.6446L201.724 61.1899C201.724 61.1899 202.327 62.3941 201.04 63.4341C199.726 64.4741 197.481 65.1309 197.481 65.1309L199.041 71.1794C199.041 71.1794 197.18 77.6111 194.25 77.6111C191.293 77.6111 188.829 75.6679 188.829 75.6679L184.257 86.8891L170.404 96.3313L151.595 111.877H128.597L128.515 111.904Z" fill="white"/>
<path fill-rule="evenodd" clip-rule="evenodd" d="M194.195 60.1506C194.825 61.1632 195.345 62.039 195.975 61.3001C196.604 60.5611 197.617 58.8643 198.767 58.8369C199.89 58.8095 200.547 59.6032 200.547 59.6032C200.547 59.6032 204.654 50.4894 201.396 46.302C198.138 42.0872 193.264 42.8809 189.623 42.443C186.009 42.0051 178.562 40.6641 178.562 40.6641L178.726 45.0704L172.676 45.8368L177.33 50.2431L180.889 48.382C180.889 48.382 185.27 48.9568 188.939 49.0115C192.607 49.0389 195.208 48.7105 195.455 50.4073C195.674 52.1042 193.565 59.138 194.223 60.1506H194.195Z" fill="#7000FF"/>
<path fill-rule="evenodd" clip-rule="evenodd" d="M150.527 112.237C150.527 112.237 156.441 100.468 158.96 92.2577C161.479 84.0745 166.79 79.9692 170.733 79.4765C174.675 78.9839 185.517 77.8618 185.517 77.8618C185.517 77.8618 184.23 79.2302 183.737 82.3502C183.244 85.4703 182.149 88.5356 183.108 87.7693C184.066 87.0029 191.239 80.9544 191.239 80.9544C191.239 80.9544 193.676 88.6177 194.415 88.9187C195.154 89.2198 198.193 84.3482 199.151 82.2681C200.11 80.1881 201.232 75.2344 201.232 75.2344L217.659 81.0365L217.741 99.4557C217.741 99.4557 216.044 107.447 211.307 109.828C206.571 112.21 202.245 112.757 202.245 112.757L150.527 112.21V112.237Z" fill="#7000FF"/>
<path fill-rule="evenodd" clip-rule="evenodd" d="M198.219 65.7033C198.438 66.8801 198.63 68.057 198.685 69.3707C200.136 70.5749 200.875 72.436 201.477 74.4613C206.104 76.0486 211.58 77.7181 216.618 79.415C217.685 79.7708 221.6 80.4824 220.916 81.8782C220.56 82.6171 219.191 82.0971 218.534 81.8782C213.086 80.154 207.309 78.1013 201.861 76.3771C201.696 79.7982 200.081 82.2614 198.52 84.9161C197.973 85.8467 197.371 86.8867 196.604 88.0361C196.221 88.6383 195.098 90.6909 194.304 90.6636C193.209 90.6362 192.579 87.653 192.223 86.6677C191.621 85.053 191.074 83.7393 190.553 82.2887C188.719 83.6024 186.857 85.5456 184.886 87.2972C184.475 87.653 183.49 88.8298 182.723 88.7204C181.382 88.5288 182.285 84.7519 182.477 83.7666C182.833 81.9877 183.38 80.5371 183.9 79.1413C177.74 79.8255 172.538 79.8255 168.13 81.6045C163.832 83.3287 161.669 87.0235 159.917 91.5667C158.247 95.9183 156.851 100.516 155.044 104.95C153.866 107.878 152.415 111.382 150.992 114.502C150.526 115.514 150.006 117.239 149.075 117.129C147.515 116.938 149.157 114.556 149.404 114.009C150.937 110.752 152.415 107.194 153.702 103.965C155.536 99.4215 156.987 94.3036 158.794 89.8699C160.766 85.0256 163.23 81.6319 167.966 79.8255C172.675 78.0192 178.26 78.0192 184.694 77.3623C185.625 76.0213 186.364 74.516 187.487 73.3665C181.957 73.476 178.698 70.3833 177.357 65.7854C176.18 61.7895 176.262 57.4379 176.563 52.6484C176.59 52.0463 176.809 51.3073 176.727 50.8147C176.563 49.9389 174.948 48.8715 174.099 48.0231C173.497 47.421 171.471 46.0799 171.717 45.0672C172.018 43.7535 176.7 44.9851 177.768 44.7388C178.014 43.9178 176.59 39.8672 178.096 39.8672C179.794 39.8672 181.655 40.4146 183.353 40.6609C185.16 40.9072 186.967 41.0988 188.856 41.2083C192.689 41.4819 196.604 41.2083 199.15 43.042C203.585 46.2167 203.941 53.4147 201.861 59.3811C203.257 62.3917 201.203 65.4569 198.192 65.5938L198.219 65.7033ZM198.767 44.903C196.686 42.9872 192.853 43.1514 189.349 42.9872C185.872 42.8504 182.066 42.2483 179.137 41.7009C178.972 42.9872 179.931 45.3409 179.383 46.0799C178.616 47.1199 176.125 45.943 174.674 46.2441C175.167 46.901 175.66 47.421 176.344 48.0778C176.727 48.4336 178.206 49.3915 178.343 49.8294C178.534 50.4589 178.206 51.6905 178.178 52.4568C177.877 58.9706 177.74 65.977 180.971 69.3433C183.079 71.5328 187.049 72.5455 190.225 70.7665C190.909 70.3833 192.47 68.8507 193.182 69.097C194.468 69.5349 193.1 70.657 192.552 71.0949C191.512 71.8612 190.334 72.5728 189.294 73.0928C189.54 73.9686 189.705 74.9813 189.841 75.9665C191.731 77.855 194.058 76.4044 195.427 75.0907C195.947 74.5707 197.48 73.1749 197.59 72.2991C197.644 71.8339 197.371 71.0949 197.261 70.4654C196.96 68.4675 196.741 66.5243 196.467 64.718C196.987 63.8422 198.356 64.2254 199.342 63.7601C200.793 63.0485 201.614 59.5727 199.177 59.6274C198.028 59.6274 197.617 60.859 197.015 61.2969C195.974 62.0632 194.113 62.1727 193.51 60.8864C192.251 58.2316 195.837 53.1684 194.386 50.7599C193.592 49.4462 189.705 49.5557 187.213 49.5557C185.817 49.5557 184.886 49.5283 183.298 49.3915C182.258 49.3094 180.204 49.3641 180.259 48.2694C180.314 47.1199 182.176 47.6125 183.38 47.722C187.158 47.9957 192.634 47.421 194.852 48.8441C197.699 50.6505 195.728 55.4674 195.18 58.1769C195.043 58.779 194.824 59.5727 195.18 60.1748C196.002 60.4758 196.385 59.4632 196.932 58.9706C197.891 58.1221 199.314 57.5748 200.601 58.3411C202.162 53.4694 201.669 47.5304 198.767 44.8757V44.903ZM191.594 78.6213C190.033 78.4297 187.761 77.2802 188.171 75.4465C186.009 78.1013 184.557 81.495 183.955 85.7372C185.598 84.533 187.35 82.6992 189.048 81.194C189.431 80.8655 190.416 79.7982 190.964 79.8255C191.648 79.8803 191.84 80.975 192.087 81.5771C192.935 83.8487 193.811 85.7919 194.468 87.954C195.618 86.613 196.577 84.8066 197.644 82.9456C199.232 80.2087 201.313 76.7602 199.232 73.2297C199.232 73.1749 199.232 73.1476 199.15 73.1476C198 74.8718 195.153 79.0866 191.566 78.6487L191.594 78.6213Z" fill="#35353A"/>
<path fill-rule="evenodd" clip-rule="evenodd" d="M179.903 53.0352C179.903 53.0352 179.958 52.9531 180.068 52.9531C184.886 52.9531 186.392 57.3595 185.078 62.2038C184.777 63.2985 184.393 64.5027 183.654 64.5027C182.532 64.5027 182.915 63.2164 183.189 62.4227C183.983 60.0416 184.339 56.1279 182.066 55.0058C181.464 54.7047 179.383 54.8416 179.274 53.8837C179.219 53.3637 179.547 53.1447 179.903 53.0079V53.0352Z" fill="#35353A"/>
<path fill-rule="evenodd" clip-rule="evenodd" d="M189.295 53.2757C189.623 53.221 190.144 53.1115 190.582 53.1936C191.43 53.3578 193.183 54.7536 192.827 55.9031C192.717 56.2315 192.307 56.3957 191.951 56.3684C191.239 56.3136 191.129 55.0273 190.198 54.8631C189.377 54.6989 188.912 55.3831 188.282 55.1915C187.844 55.0547 187.68 54.6168 187.817 54.1515C187.953 53.6315 188.693 53.3852 189.322 53.2757H189.295Z" fill="#35353A"/>
<path fill-rule="evenodd" clip-rule="evenodd" d="M182.121 56.6136C182.176 57.7905 182.668 60.2536 181.163 59.9526C180.013 59.7336 180.341 54.6978 182.121 56.6136Z" fill="#35353A"/>
<path fill-rule="evenodd" clip-rule="evenodd" d="M190.498 57.1907C190.799 58.176 190.553 59.8728 189.95 60.4476C188.034 61.0223 188.855 55.6307 190.498 57.1907Z" fill="#35353A"/>
<path fill-rule="evenodd" clip-rule="evenodd" d="M198.301 60.7732C198.602 60.7185 199.259 60.5816 199.341 61.3206C199.423 62.0596 197.37 63.4554 196.631 63.4006C196.22 63.3733 195.946 62.9901 195.919 62.689C195.891 62.1143 196.494 61.868 196.959 61.5669C197.206 61.4301 197.698 60.8827 198.301 60.7732Z" fill="#35353A"/>
<path fill-rule="evenodd" clip-rule="evenodd" d="M187.789 65.7874C186.776 66.0611 185.79 67.1558 184.366 67.2105C183.326 67.2653 181.081 66.6632 182.067 65.541C182.614 64.8842 183.709 65.6505 184.23 65.6231C185.626 65.5684 189.185 62.2021 189.486 65.3768C189.678 67.4021 187.98 68.9621 186.31 69.3727C185.626 69.5369 184.449 69.7011 184.64 68.579C184.777 67.6484 186.447 67.8674 187.104 67.2926C187.707 66.8 187.597 66.5263 187.816 65.7874H187.789Z" fill="#35353A"/>
<path fill-rule="evenodd" clip-rule="evenodd" d="M120.273 82.9994V81.7131C120.629 80.7004 121.451 80.1257 122.82 80.1257C124.243 78.3467 126.653 79.4962 127.693 80.7551C128.295 81.4941 128.761 82.8899 129.774 83.2183C130.102 83.3278 130.595 83.3004 130.978 83.3825C133.798 83.9573 135.989 84.5868 138.781 85.1341C138.288 84.4499 136.865 83.7931 136.481 82.5067C136.071 81.1657 136.481 79.7699 137.768 79.3867C139.52 78.8667 141.793 80.3446 142.778 81.0562C144.147 82.0415 145.379 83.3278 146.201 84.4773C147.98 87.0226 149.349 91.1279 148.446 95.6437C148.062 97.5869 147.241 99.5027 146.694 101.528C145.297 106.619 144.312 111.791 143.271 117.375C143.107 118.25 142.997 120.057 141.984 120.002C141.026 119.947 141.245 118.716 141.437 117.703C142.614 111.052 144.284 103.827 145.9 98.2711C146.475 96.3006 146.94 94.6585 146.94 92.5237C146.94 88.1721 145.051 85.1889 142.642 83.1089C141.492 82.1236 139.958 80.9194 138.097 81.1109C137.878 82.8078 139.712 83.2457 140.479 84.3678C140.835 84.8878 141.656 86.2015 140.944 86.9131C140.451 87.4057 139.028 86.9131 138.316 86.7489C135.852 86.1742 133.223 85.5447 131.143 85.0794C132.484 88.6647 138.781 88.0079 141.656 90.4984C141.875 90.69 145.051 94.6858 142.861 94.7953C141.848 94.85 141.41 92.6332 140.78 92.0037C138.699 89.8689 133.935 90.1974 131.307 88.09C129.363 86.5573 129.281 84.1762 126.926 83.2183C127.529 87.9258 131.088 90.7174 134.346 93.2627C134.976 93.7553 137.549 95.1785 136.974 96.3006C136.427 97.368 135.332 95.9722 135.058 96.2185C132.402 103.663 129.555 111.244 126.844 118.688C126.57 119.482 126.132 121.535 125.092 121.398C123.778 121.234 124.846 118.935 125.092 118.278C127.994 110.505 130.951 102.595 133.771 95.0143C131.581 93.0711 128.98 91.5111 127.392 88.9658C126.351 88.2542 125.393 87.3784 124.216 86.5847C122.628 85.5173 120.739 84.9152 120.301 82.9173L120.273 82.9994ZM124.325 81.1657C124.49 81.9594 124.791 82.6162 125.284 83.0815C125.229 82.2331 125.749 81.9594 126.16 81.5762C125.804 81.2752 124.846 80.5362 124.325 81.1657ZM122.573 81.7952C122.491 81.932 122.163 81.8499 122.026 81.9594C121.697 83.6015 123.203 84.0668 124.189 84.6689C123.614 83.7657 123.121 82.7804 122.601 81.7952H122.573Z" fill="#35353A"/>
<path fill-rule="evenodd" clip-rule="evenodd" d="M169.445 100.217C170.623 99.9708 170.54 101.859 170.814 103.255C171.718 108.346 172.594 113.19 173.525 118.554C173.798 120.114 174.894 124.11 173.689 124.302C172.566 124.493 172.621 123.18 172.402 122.003C171.307 115.845 170.212 109.769 169.226 103.666C169.007 102.352 168.295 100.491 169.473 100.245L169.445 100.217Z" fill="#35353A"/>
<path fill-rule="evenodd" clip-rule="evenodd" d="M154.224 46.9922C158.111 46.9922 161.26 50.1396 161.26 54.026C161.26 57.9123 158.111 61.0597 154.224 61.0597C150.336 61.0597 147.188 57.9123 147.188 54.026C147.188 50.1396 150.336 46.9922 154.224 46.9922Z" fill="#F5F5F8"/>
<path d="M154.224 46.99C158.112 46.99 161.26 50.1374 161.26 54.0237C161.26 57.9101 158.112 61.0575 154.224 61.0575C150.336 61.0575 147.188 57.9101 147.188 54.0237C147.188 50.1374 150.336 46.99 154.224 46.99ZM154.224 45.1562C149.323 45.1562 145.354 49.1247 145.354 54.0237C145.354 58.9227 149.323 62.8912 154.224 62.8912C159.125 62.8912 163.095 58.9227 163.095 54.0237C163.095 49.1247 159.125 45.1562 154.224 45.1562Z" fill="#35353A"/>
<path fill-rule="evenodd" clip-rule="evenodd" d="M116.715 8.28906C135.469 8.28906 150.664 23.4787 150.664 42.2263C150.664 60.9739 135.469 76.1635 116.715 76.1635C97.9606 76.1635 82.7656 60.9739 82.7656 42.2263C82.7656 23.4787 97.9606 8.28906 116.715 8.28906Z" fill="#7000FF"/>
<path d="M116.715 8.28683C135.469 8.28683 150.664 23.4765 150.664 42.2241C150.664 60.9716 135.469 76.1613 116.715 76.1613C97.961 76.1613 82.766 60.9716 82.766 42.2241C82.766 23.4765 97.961 8.28683 116.715 8.28683ZM116.715 6.45312C96.9754 6.45312 80.9316 22.4912 80.9316 42.2241C80.9316 61.9569 96.9754 77.995 116.715 77.995C136.455 77.995 152.499 61.9569 152.499 42.2241C152.499 22.4912 136.455 6.45312 116.715 6.45312Z" fill="#35353A"/>
<path d="M146.613 74.1124C145.49 74.1124 144.395 74.085 143.355 74.0303C134.922 73.5376 124.765 71.266 114.799 67.5986C74.1695 52.6553 55.2237 31.554 54.4297 30.6508L55.1141 30.0487L54.6487 29.255C55.032 29.0361 55.4974 29.1182 55.7986 29.4466C56.5652 30.3224 75.2372 51.0953 115.429 65.8744C135.661 73.3187 154.936 74.4408 160.247 68.447C162.218 66.2302 162.164 63.0554 160.083 59.0048C159.864 58.5669 160.028 57.9922 160.493 57.7732C160.931 57.5543 161.506 57.7185 161.725 58.1838C164.764 64.1501 163.341 67.7081 161.616 69.6513C158.467 73.2092 152.225 74.1124 146.613 74.1124Z" fill="#35353A"/>
</g>
<path fill-rule="evenodd" clip-rule="evenodd" d="M56.4818 13.2734C66.4475 13.2734 74.5241 21.3472 74.5241 31.3094C74.5241 41.2717 66.4475 49.3454 56.4818 49.3454C46.5161 49.3454 38.4395 41.2717 38.4395 31.3094C38.4395 21.3472 46.5161 13.2734 56.4818 13.2734Z" fill="#F5F5F8"/>
<path d="M56.481 50.2729C46.0224 50.2729 37.5352 41.7612 37.5352 31.3063C37.5352 20.8515 46.0498 12.3672 56.481 12.3672C66.9121 12.3672 75.4268 20.8789 75.4268 31.3063C75.4268 41.7338 66.9121 50.2729 56.481 50.2729ZM56.481 14.2009C47.0354 14.2009 39.3421 21.8915 39.3421 31.3337C39.3421 40.7759 47.0354 48.4665 56.481 48.4665C65.9265 48.4665 73.6198 40.7759 73.6198 31.3337C73.6198 21.8915 65.9265 14.2009 56.481 14.2009Z" fill="#35353A"/>
<mask id="mask1_459_17323" style="mask-type:luminance" maskUnits="userSpaceOnUse" x="38" y="13" width="37" height="37">
<path d="M56.4818 13.2734C66.4475 13.2734 74.5241 21.3472 74.5241 31.3094C74.5241 41.2717 66.4475 49.3454 56.4818 49.3454C46.5161 49.3454 38.4395 41.2717 38.4395 31.3094C38.4395 21.3472 46.5161 13.2734 56.4818 13.2734Z" fill="white"/>
</mask>
<g mask="url(#mask1_459_17323)">
<path fill-rule="evenodd" clip-rule="evenodd" d="M59.2201 15.0274C69.1858 15.0274 74.8531 23.4569 74.3877 31.0381C74.2234 33.8023 75.8935 38.3182 74.4972 41.0824C71.7868 46.474 64.3946 49.4572 57.7964 49.4572C47.8307 49.4572 41.1504 42.9982 41.1504 33.036C41.1504 23.0738 49.227 15 59.1927 15L59.2201 15.0274Z" fill="#A273FF"/>
</g>
<path d="M56.481 50.2729C46.0224 50.2729 37.5352 41.7612 37.5352 31.3063C37.5352 20.8515 46.0498 12.3672 56.481 12.3672C66.9121 12.3672 75.4268 20.8789 75.4268 31.3063C75.4268 41.7338 66.9121 50.2729 56.481 50.2729ZM56.481 14.2009C47.0354 14.2009 39.3421 21.8915 39.3421 31.3337C39.3421 40.7759 47.0354 48.4665 56.481 48.4665C65.9265 48.4665 73.6198 40.7759 73.6198 31.3337C73.6198 21.8915 65.9265 14.2009 56.481 14.2009Z" fill="#35353A"/>
<path fill-rule="evenodd" clip-rule="evenodd" d="M6.54343 21.8984C10.1574 21.8984 13.0869 24.8543 13.0869 28.4669C13.0869 32.0796 10.1574 35.0354 6.54343 35.0354C2.92948 35.0354 0 32.0796 0 28.4669C0 24.8543 2.92948 21.8984 6.54343 21.8984Z" fill="#A273FF"/>
<path fill-rule="evenodd" clip-rule="evenodd" d="M233.757 48.6875C235.947 48.6875 237.699 50.4665 237.699 52.6286C237.699 54.7907 235.92 56.5697 233.757 56.5697C231.594 56.5697 229.814 54.7907 229.814 52.6286C229.814 50.4665 231.594 48.6875 233.757 48.6875Z" fill="#A273FF"/>
<path d="M122.355 90.236H88.4054C87.9126 90.236 87.502 89.8255 87.502 89.3329C87.502 88.8402 87.9126 88.4297 88.4054 88.4297H122.355C122.847 88.4297 123.258 88.8402 123.258 89.3329C123.258 89.8255 122.847 90.236 122.355 90.236Z" fill="#F5F5F8"/>
<path d="M96.8653 93.7907H88.4328C87.94 93.7907 87.5293 93.3802 87.5293 92.8875C87.5293 92.3949 87.94 91.9844 88.4328 91.9844H96.8653C97.3581 91.9844 97.7688 92.3949 97.7688 92.8875C97.7688 93.3802 97.3581 93.7907 96.8653 93.7907Z" fill="#F5F5F8"/>
<path d="M122.409 97.322H88.4328C87.94 97.322 87.5293 96.9114 87.5293 96.4188C87.5293 95.9262 87.94 95.5156 88.4328 95.5156H122.409C122.902 95.5156 123.313 95.9262 123.313 96.4188C123.313 96.9114 122.902 97.322 122.409 97.322Z" fill="#F5F5F8"/>
<path d="M122.492 100.908H102.122C101.629 100.908 101.219 100.497 101.219 100.005C101.219 99.5121 101.629 99.1016 102.122 99.1016H122.492C122.985 99.1016 123.395 99.5121 123.395 100.005C123.395 100.497 122.985 100.908 122.492 100.908Z" fill="#F5F5F8"/>
<path d="M122.409 97.322H88.4328C87.94 97.322 87.5293 96.9114 87.5293 96.4188C87.5293 95.9262 87.94 95.5156 88.4328 95.5156H122.409C122.902 95.5156 123.313 95.9262 123.313 96.4188C123.313 96.9114 122.902 97.322 122.409 97.322Z" fill="#F5F5F8"/>
<path d="M99.4116 100.908H97.632C97.1392 100.908 96.7285 100.497 96.7285 100.005C96.7285 99.5121 97.1392 99.1016 97.632 99.1016H99.4116C99.9044 99.1016 100.315 99.5121 100.315 100.005C100.315 100.497 99.9044 100.908 99.4116 100.908Z" fill="#F5F5F8"/>
<path d="M122.491 104.408H109.021C108.528 104.408 108.117 103.997 108.117 103.505C108.117 103.012 108.528 102.602 109.021 102.602H122.491C122.984 102.602 123.394 103.012 123.394 103.505C123.394 103.997 122.984 104.408 122.491 104.408Z" fill="#F5F5F8"/>
<path d="M122.355 90.236H88.4054C87.9126 90.236 87.502 89.8255 87.502 89.3329C87.502 88.8402 87.9126 88.4297 88.4054 88.4297H122.355C122.847 88.4297 123.258 88.8402 123.258 89.3329C123.258 89.8255 122.847 90.236 122.355 90.236Z" fill="#F5F5F8"/>
<path d="M122.41 93.7907H102.122C101.629 93.7907 101.219 93.3802 101.219 92.8875C101.219 92.3949 101.629 91.9844 102.122 91.9844H122.41C122.902 91.9844 123.313 92.3949 123.313 92.8875C123.313 93.3802 122.902 93.7907 122.41 93.7907Z" fill="#F5F5F8"/>
<path d="M122.409 97.322H88.4328C87.94 97.322 87.5293 96.9114 87.5293 96.4188C87.5293 95.9262 87.94 95.5156 88.4328 95.5156H122.409C122.902 95.5156 123.313 95.9262 123.313 96.4188C123.313 96.9114 122.902 97.322 122.409 97.322Z" fill="#F5F5F8"/>
<path d="M94.5381 100.908H88.4875C87.9947 100.908 87.584 100.497 87.584 100.005C87.584 99.5121 87.9947 99.1016 88.4875 99.1016H94.5381C95.0309 99.1016 95.4416 99.5121 95.4416 100.005C95.4416 100.497 95.0309 100.908 94.5381 100.908Z" fill="#F5F5F8"/>
<path d="M122.409 97.322H88.4328C87.94 97.322 87.5293 96.9114 87.5293 96.4188C87.5293 95.9262 87.94 95.5156 88.4328 95.5156H122.409C122.902 95.5156 123.313 95.9262 123.313 96.4188C123.313 96.9114 122.902 97.322 122.409 97.322Z" fill="#F5F5F8"/>
<path d="M103.765 104.408H88.5148C88.022 104.408 87.6113 103.997 87.6113 103.505C87.6113 103.012 88.022 102.602 88.5148 102.602H103.765C104.257 102.602 104.668 103.012 104.668 103.505C104.668 103.997 104.257 104.408 103.765 104.408Z" fill="#F5F5F8"/>
<path fill-rule="evenodd" clip-rule="evenodd" d="M23.6272 181.259H70.3895C70.3895 181.259 68.2266 177.4 66.5839 174.691C64.9685 171.981 62.2581 168.889 62.2581 168.889C62.2581 168.889 64.0103 168.314 66.9124 165.632C69.7871 162.977 73.6475 158.434 73.6475 158.434C73.6475 158.434 77.2067 157.257 78.9863 155.341C80.7659 153.425 82.2443 150.771 82.2443 150.771L100.451 166.316C100.451 166.316 106.419 173.487 113.839 171.27C121.258 169.053 134.975 155.396 134.975 155.396C134.975 155.396 137.822 155.56 139 151.592C140.177 147.623 141.08 142.396 143.572 142.697C146.063 142.998 148.609 145.625 148.746 144.394C148.911 143.162 148.062 141.766 146.967 141.219C145.872 140.672 144.147 139.577 144.886 139.659C145.625 139.768 149.814 140.152 148.609 137.716C147.405 135.307 141.71 135.389 141.71 135.389C141.71 135.389 141.82 134.404 140.56 133.693C139.301 132.981 139.082 132.598 139.082 132.598C139.082 132.598 141.929 132.023 140.779 130.655C139.629 129.314 137.713 127.507 134.975 129.341C127.911 134.021 125.913 144.585 125.913 144.585L111.347 152.796L91.2244 131.038C91.2244 131.038 83.5858 118.311 78.1375 117.791C75.8104 117.572 72.6071 116.806 69.7871 116.478C66.0089 116.04 62.8878 115.848 63.0521 114.233C63.3258 111.387 67.7885 103.012 67.7885 103.012C67.7885 103.012 72.2786 104.162 74.1403 102.793C77.1245 100.576 78.9315 89.6288 78.9315 89.6288C78.9315 89.6288 76.3579 88.1236 75.4544 87.6857C74.5236 87.2478 73.8939 86.9193 73.8939 86.9193C73.8939 86.9193 77.9185 79.3108 74.4415 76.5466C70.9644 73.7824 60.369 68.5549 55.085 70.5802C49.8009 72.6055 48.1035 75.1508 48.1035 75.1508C48.1035 75.1508 40.6839 72.0308 37.5081 75.7803C34.3048 79.5298 30.6909 95.1847 27.8983 98.8521C25.1057 102.52 12.9223 111.934 14.5924 118.12C16.2625 124.332 20.1776 123.238 20.1776 123.238C20.1776 123.238 15.2495 132.68 18.617 138.318C21.9845 143.983 22.4226 144.284 22.4226 144.284L14.127 159.446C14.127 159.446 10.3761 166.508 13.9627 169.518C17.5492 172.501 22.4773 172.009 25.1878 170.202C27.8983 168.396 30.6635 164.592 30.8277 164.948C31.0194 165.276 32.9085 169.436 32.9085 169.436C32.9085 169.436 30.773 171.626 28.7196 174.171C26.6936 176.689 23.5999 181.205 23.5999 181.205L23.6272 181.259Z" fill="#F5F5F8"/>
<path fill-rule="evenodd" clip-rule="evenodd" d="M24.6952 145.987C24.6952 145.987 12.2107 164.653 15.633 169.99C19.0553 175.327 30.7185 164.817 30.7185 164.817C30.7185 164.817 29.24 161.943 29.1031 158.303C28.9389 154.663 29.7876 146.781 29.7876 146.781L32.498 146.48C32.498 146.48 30.9922 154.581 32.1147 159.781C33.3468 165.529 35.6739 169.141 35.6739 169.141H62.8606C62.8606 169.141 68.3089 166.404 70.2254 163.503C72.1145 160.602 73.8667 157.455 73.8667 157.455C73.8667 157.455 76.6593 157.701 78.6579 155.375C80.6566 153.048 82.0529 150.64 82.0529 150.64C82.0529 150.64 104.311 170.209 109.705 171.604C115.564 173.137 124.106 164.954 124.106 164.954C124.106 164.954 124.708 159.07 121.094 154.882C117.48 150.695 114.058 151.543 114.058 151.543L111.43 152.775C111.43 152.775 93.1137 134.958 88.9796 128.69C84.8455 122.45 80.1364 117.77 75.5094 117.223C70.8825 116.675 62.6142 116.32 62.8059 114.212C62.9975 112.105 64.4212 109.642 64.4212 109.642L56.7553 108.547C56.7553 108.547 55.9339 114.732 51.3344 116.374C46.7348 117.989 46.2967 118.783 46.2967 118.783L44.435 145.96C44.435 145.96 38.9593 147 36.7691 147.055C34.5788 147.082 24.6952 145.96 24.6952 145.96V145.987Z" fill="#7000FF"/>
<path fill-rule="evenodd" clip-rule="evenodd" d="M26.7754 181.347L70.7451 181.594C70.7451 181.594 69.1024 178.474 66.9395 175.08C64.804 171.686 61.6828 168.812 61.6828 168.812L35.8924 169.36C35.8924 169.36 34.0581 171.796 31.6214 174.697C29.1847 177.598 26.748 181.347 26.748 181.347H26.7754Z" fill="#35353A"/>
<path fill-rule="evenodd" clip-rule="evenodd" d="M11.498 165.831V164.955C11.6349 162.929 12.511 161.123 13.4145 159.289C15.9607 154.089 18.589 149.19 21.628 144.784C19.3283 142.594 16.9463 139.994 16.6726 135.78C16.5357 133.645 17.0011 131.538 17.4665 129.567C17.9046 127.651 18.2879 125.735 19.1366 124.23C14.4549 124.23 12.7301 120.015 13.6336 115.472C14.2085 112.598 15.8786 109.971 17.3844 108.137C20.7246 104.059 25.7348 101.596 28.3084 96.9708C30.9914 92.1539 31.758 85.6401 33.8935 80.4675C34.9065 78.0316 36.3302 75.3769 38.5205 74.0905C40.6834 72.8042 45.2282 72.9137 47.6922 74.0905C49.5813 72.4484 51.6621 70.7789 54.7011 70.0947C61.1076 68.6715 68.3903 71.08 72.3054 73.7621C74.4682 75.2127 76.6038 77.4569 76.6038 80.5222C76.6038 83.0675 75.5634 84.8191 74.6873 86.6528C75.7277 88.076 79.2321 87.6381 79.6428 89.6907C79.8892 90.8949 79.0131 92.5644 78.6845 93.7687C77.6168 97.655 77.1239 102.8 73.8112 104.141C72.0042 104.853 69.7044 104.497 67.9248 104.141C67.213 105.975 66.5012 107.699 65.6798 109.396C64.8858 111.066 63.8454 112.79 63.8454 114.897C64.9953 115.8 66.6928 115.773 68.1438 115.855C73.2362 116.184 77.7536 116.649 81.1486 118.729C85.4196 121.356 88.1848 126.036 91.1964 129.895C97.3839 137.832 104.229 145.167 111.511 151.9C116.056 149.437 120.519 146.891 125.063 144.401C125.556 139.31 127.719 135.287 130.731 132.058C132.51 130.142 136.015 126.885 139.82 128.937C141.244 129.704 142.996 132.003 140.614 132.933C141.299 133.07 141.682 134.11 142.613 134.356C143.38 134.575 144.31 134.439 145.159 134.603C147.185 134.986 150.032 136.19 149.786 138.599C149.677 139.666 148.91 140.405 147.486 140.35C148.417 141.034 150.279 142.841 149.403 144.811C149.239 145.195 148.855 145.605 148.28 145.687C146.309 145.961 145.269 143.717 143.352 144.182C141.874 144.538 141.271 147.192 140.806 148.971C140.286 150.942 139.738 153.022 138.643 154.144C137.63 155.211 136.398 155.595 135.385 156.306C134.372 156.99 133.469 158.14 132.51 159.016C129.526 161.78 126.734 164.435 123.585 166.98C119.807 170.045 114.276 174.342 107.569 171.687C104.968 170.647 102.832 169.033 100.642 167.391C94.0985 162.464 88.5955 157.155 82.3806 151.927C80.601 155.02 78.2738 157.538 74.6599 158.769C71.9221 163.258 68.1439 166.706 63.4895 169.279C66.7476 172.837 69.3211 176.97 71.1281 182.115C71.4019 182.881 71.8399 183.894 70.8817 184.031C70.0877 184.14 69.7592 183.073 69.5401 182.443C68.0891 178.502 66.6654 175.738 64.2835 172.81C63.6538 172.043 62.2028 170.045 61.3266 169.772C60.4779 169.525 59.0816 169.69 57.9044 169.69C50.8407 169.69 44.3521 169.525 37.4253 169.936C36.3028 169.991 34.6875 169.826 34.003 170.1C33.7293 170.21 33.6745 170.565 33.3733 170.894C33.0996 171.195 32.771 171.359 32.5794 171.523C29.4309 174.397 26.7204 177.599 24.5301 181.075C24.2016 181.595 23.9826 182.58 22.9422 182.443C22.1208 181.02 23.5445 179.624 24.229 178.612C25.8169 176.258 27.5418 174.26 29.4035 172.317C30.3891 171.304 31.539 170.565 32.2782 169.443C31.6759 168.485 31.1009 167.5 30.6903 166.323C30.1427 166.624 29.732 167.199 29.2666 167.664C26.474 170.456 19.8758 174.753 14.6739 171.496C12.8943 170.374 11.8813 168.54 11.5528 165.831H11.498ZM73.3731 76.9095C70.3615 73.6253 62.8598 70.8884 56.7818 71.6547C53.7702 72.0379 51.0871 72.9958 49.6908 74.9116C50.3753 75.1032 50.8955 75.4042 51.3609 75.7874C51.7442 77.3474 52.9215 78.0316 53.1131 79.7011C53.4417 82.3833 51.2788 83.2864 49.4444 84.2443C49.1707 88.1854 48.8421 92.0718 48.5683 96.0403C50.786 97.5455 53.031 99.434 54.5368 101.87C54.8654 102.362 55.4951 104.196 56.1248 104.251C56.5902 104.278 57.1651 103.457 57.4663 103.047C58.6709 101.514 59.3554 99.735 60.0125 97.9561C58.2603 96.6971 57.3568 92.8108 59.3828 91.3328C59.2459 91.0318 59.0542 90.8128 59.1364 90.2928C59.5744 89.6086 60.4505 89.5265 61.135 89.2528C65.6524 87.5012 68.7736 84.8465 71.3471 81.0422C71.703 80.5222 72.1958 79.4274 72.8529 79.4548C74.742 79.5369 72.497 82.3559 72.3054 82.7117C72.7708 83.2043 72.9898 84.6275 73.5921 85.257C75.2896 82.438 75.2896 78.9895 73.3457 76.8822L73.3731 76.9095ZM47.6375 86.7075C47.7196 85.5033 47.6648 83.3685 48.0481 82.8759C48.3493 82.4654 49.6087 82.3012 50.1289 82.0001C50.7038 81.6443 51.4157 81.1243 51.4704 80.4127C51.5526 79.5917 51.0871 78.8801 50.7586 78.3327C50.3753 77.7306 49.992 77.1832 49.554 76.7453C46.953 75.5411 42.6272 74.0358 39.5882 75.5411C36.3028 77.1832 34.8518 82.4927 33.7019 86.4612C32.6068 90.2107 31.7033 94.3434 30.0332 97.4634C26.4466 104.141 19.3009 106.221 16.2345 113.009C15.7417 114.104 15.2763 115.691 15.1941 116.758C14.9477 120.289 16.2619 122.15 19.1092 122.424C20.7793 122.588 22.0935 122.013 22.2851 122.889C22.422 123.546 21.9018 123.82 21.409 124.23C20.0127 125.489 19.7663 127.268 19.2461 129.403C18.9176 130.826 18.5343 132.359 18.4521 133.7C18.0141 140.104 22.422 143.936 27.049 145.331C31.8128 146.755 37.8086 146.235 43.3117 145.331C44.4068 126.31 46.1317 105.811 47.6101 86.6802L47.6375 86.7075ZM63.0241 90.457C63.599 90.7581 64.393 91.2781 65.0227 92.0444C65.4608 92.5918 66.8023 94.836 65.1049 94.7539C64.3383 94.6992 63.7086 93.0571 63.1884 92.5918C61.9837 91.5244 60.3684 92.2907 60.0125 93.3855C59.5744 94.7813 60.6422 96.1771 61.4362 96.6424C62.2575 97.135 65.0227 96.7792 65.0227 97.9834C65.0227 99.3792 62.6408 98.8592 61.6004 98.5308C60.4505 101.432 59.328 105.4 55.851 105.948C55.7141 106.577 55.4951 107.152 55.3855 107.781C58.2876 108.083 61.5183 108.083 64.3109 108.493C64.7489 107.453 65.2417 106.522 65.7346 105.318C65.981 104.716 66.4738 102.39 67.2404 102.198C68.0891 102.007 69.3759 102.691 70.4163 102.746C74.4683 103.019 75.1527 100.775 76.0014 97.655C75.3991 96.9982 72.716 95.7392 72.7434 94.6171C72.7434 94.2066 73.1815 93.7413 73.6195 93.7413C74.7147 93.7413 75.5908 95.7392 76.4943 95.9034C76.9049 93.9055 77.4799 92.0718 78.0001 90.156C74.7694 89.0886 72.0863 87.4738 71.1555 84.1075C69.1021 86.8444 66.2821 88.8697 63.0241 90.4023V90.457ZM47.0899 115.171C51.6073 113.83 53.2226 109.615 54.4273 104.962C52.8941 102.226 51.0598 99.7624 48.4588 98.1203C47.9934 103.786 47.6101 109.533 47.1173 115.171H47.0899ZM46.9256 117.087C46.3781 125.024 45.6936 134.083 45.1734 142.43C45.0913 143.717 45.2829 145.277 44.927 146.098C44.4342 147.275 42.2166 147.275 40.7929 147.439C37.6991 147.849 33.8388 148.232 30.5808 147.849C28.8012 155.321 30.307 163.915 33.7566 168.485C41.5595 167.801 50.1289 168.02 58.4793 168.02C59.7387 168.02 61.135 168.294 62.0659 168.102C62.6408 167.993 63.2431 167.418 63.8181 167.062C66.8023 165.228 69.2116 163.176 71.3197 160.603C72.0042 159.782 72.8803 157.894 73.6195 157.346C74.3314 156.826 75.317 156.689 76.0836 156.224C78.3286 154.91 79.807 152.94 81.0938 150.723C80.4915 149.957 79.7797 149.491 78.9309 148.725C78.4107 148.26 76.9323 147.302 77.1787 146.344C77.2608 146.016 77.5894 145.824 77.8084 145.797C78.4381 145.715 79.0131 146.59 79.5606 147.083C83.4483 150.614 87.1718 153.898 90.95 157.209C95.2484 160.959 99.6563 165.092 104.502 168.212C107.103 169.881 110.197 171.386 113.838 170.511C116.987 169.744 119.369 167.993 121.723 166.132C125.748 162.957 129.334 159.454 133.031 156.005C133.605 155.485 134.153 154.746 134.618 154.5C134.947 154.336 135.358 154.336 135.659 154.171C136.59 153.679 137.575 152.776 138.041 151.872C139.601 148.862 139.273 143.634 142.503 142.54C143.489 142.211 144.885 142.485 145.625 142.786C146.419 143.114 147.076 143.826 147.787 143.744C147.596 142.239 146.391 141.883 145.241 141.363C143.927 140.761 141.956 139.994 140.532 140.569C139.492 140.98 138.753 142.485 137.74 142.321C137.466 142.266 137.055 141.938 137.028 141.527C136.946 140.405 138.972 139.228 139.82 138.9C140.915 138.462 142.011 138.763 143.243 138.735C143.708 138.735 144.174 138.517 144.584 138.489C145.926 138.407 147.076 138.845 147.924 138.407C147.705 136.929 145.323 136.382 143.544 136.245C140.696 136.053 139.273 137.23 137.877 138.626C137.302 139.201 136.508 140.843 135.631 140.788C135.33 140.761 134.865 140.378 134.838 139.994C134.728 138.954 136.535 137.394 137 136.957C138.096 135.917 138.972 135.287 140.176 134.876C138.342 133.07 136.535 134.712 135.385 136.163C134.865 136.82 134.153 138.763 133.222 138.708C131.552 138.599 133.058 136.382 133.386 135.917C133.852 135.232 134.263 134.658 134.673 134.247C135.029 131.948 136.754 130.689 139.683 131.209C139.245 129.977 136.754 129.977 135.467 130.497C134.18 131.018 133.113 132.058 132.045 133.207C129.444 135.999 127.829 139.064 126.953 143.498C126.679 144.811 126.816 146.618 125.2 146.371C121.148 148.698 117.014 150.997 112.853 153.214C112.771 154.281 116.001 155.184 115.645 156.635C115.591 156.908 115.289 157.155 115.016 157.182C114.331 157.291 113.126 155.896 112.469 155.266C110.087 153.022 107.596 150.915 105.625 148.725C99.7658 142.266 94.1533 136.738 88.8966 129.759C86.1588 126.118 83.7769 122.451 80.4367 120.344C78.3286 119.03 75.4539 118.318 72.3875 117.963C69.7318 117.662 64.9953 117.935 63.1336 116.676C60.9707 115.226 62.6956 111.969 63.4622 110.135C60.6148 109.916 57.6853 109.752 54.7832 109.588C53.1405 113.064 50.9502 116.019 46.8983 117.087H46.9256ZM15.2763 159.399C14.4823 161.068 13.4967 162.628 13.3598 164.572C13.0586 168.759 15.8512 171.222 19.9032 170.866C23.1338 170.593 25.9812 168.513 27.9524 166.652C28.4726 166.159 29.732 164.9 29.7868 164.353C29.7868 163.969 29.3214 163.203 29.1571 162.601C27.7882 158.195 27.9524 152.365 28.9107 147.63C26.6657 147.302 24.7218 146.672 23.0791 145.715C20.4508 149.601 17.4939 154.719 15.2763 159.426V159.399Z" fill="#35353A"/>
<path fill-rule="evenodd" clip-rule="evenodd" d="M70.0049 86.4643C70.9084 86.0264 71.2096 86.9569 71.5929 87.6685C72.0309 88.4348 72.7702 90.1591 71.1822 89.9127C70.6346 89.8306 68.8551 87.039 69.9776 86.4917L70.0049 86.4643Z" fill="#35353A"/>
</g>
<defs>
<clipPath id="clip0_459_17323">
<rect width="238" height="184" fill="white"/>
</clipPath>
</defs>
</svg>
