<svg width="24" height="25" viewBox="0 0 24 25" fill="none" xmlns="http://www.w3.org/2000/svg">
<path d="M12.0206 2.92969C8.71058 2.92969 6.02058 5.61969 6.02058 8.92969L6.02058 11.8197C6.02058 12.4297 5.76058 13.3597 5.45058 13.8797L4.30058 15.7897C3.59058 16.9697 4.08058 18.2797 5.38058 18.7197C9.69058 20.1597 14.3406 20.1597 18.6506 18.7197C19.8606 18.3197 20.3906 16.8897 19.7306 15.7897L18.5806 13.8797C18.2806 13.3597 18.0206 12.4297 18.0206 11.8197V8.92969C18.0206 5.62969 15.3206 2.92969 12.0206 2.92969Z" stroke="#35353A" stroke-width="1.5" stroke-miterlimit="10" stroke-linecap="round"/>
<path d="M13.8699 3.22094C13.5599 3.13094 13.2399 3.06094 12.9099 3.02094C11.9499 2.90094 11.0299 2.97094 10.1699 3.22094C10.4599 2.48094 11.1799 1.96094 12.0199 1.96094C12.8599 1.96094 13.5799 2.48094 13.8699 3.22094Z" stroke="#35353A" stroke-width="1.5" stroke-miterlimit="10" stroke-linecap="round" stroke-linejoin="round"/>
<path opacity="0.4" d="M15.0195 19.0859C15.0195 20.7359 13.6695 22.0859 12.0195 22.0859C11.1995 22.0859 10.4395 21.7459 9.89953 21.2059C9.35953 20.6659 9.01953 19.9059 9.01953 19.0859" stroke="#35353A" stroke-width="1.5" stroke-miterlimit="10"/>
</svg>
