<svg width="18" height="18" viewBox="0 0 18 18" fill="none" xmlns="http://www.w3.org/2000/svg">
    <path d="M10.4175 2.16011L6.89999 1.60511C3.96749 1.14761 2.60999 2.13761 2.14499 5.07011L1.58999 8.5876C1.28999 10.5076 1.60499 11.7526 2.69249 12.5101C3.26249 12.9151 4.04249 13.1851 5.05499 13.3426L8.57249 13.8976C11.505 14.3551 12.8625 13.3651 13.3275 10.4326L13.875 6.91511C13.965 6.33761 14.0025 5.82011 13.9725 5.36261C13.875 3.48761 12.7725 2.52761 10.4175 2.16011ZM6.17999 7.01261C5.30249 7.01261 4.58999 6.30011 4.58999 5.43011C4.58999 4.55261 5.30249 3.84011 6.17999 3.84011C7.04999 3.84011 7.76249 4.55261 7.76249 5.43011C7.76249 6.30011 7.04999 7.01261 6.17999 7.01261Z" fill="#5D25FE"/>
    <path d="M15.375 10.1025L14.25 13.485C13.3125 16.305 11.8125 17.055 8.9925 16.1175L5.61 14.9925C3.90751 14.43 2.9625 13.65 2.6925 12.51C3.2625 12.915 4.0425 13.185 5.055 13.3425L8.5725 13.8975C11.505 14.355 12.8625 13.365 13.3275 10.4325L13.875 6.91505C13.965 6.33755 14.0025 5.82005 13.9725 5.36255C15.765 6.31505 16.155 7.75505 15.375 10.1025Z" fill="#D9CDFF"/>
    <path d="M7.76247 5.43009C7.76247 6.30009 7.04997 7.01259 6.17997 7.01259C5.30247 7.01259 4.58997 6.30009 4.58997 5.43009C4.58997 4.55259 5.30247 3.84009 6.17997 3.84009C7.04997 3.84009 7.76247 4.55259 7.76247 5.43009Z" fill="#F4F0FF"/>
</svg>
