<svg width="18" height="18" viewBox="0 0 18 18" fill="none" xmlns="http://www.w3.org/2000/svg">
    <path d="M12.1425 1.5L5.8575 1.5C3.1275 1.5 1.5 3.1275 1.5 5.8575L1.5 12.135C1.5 14.8725 3.1275 16.5 5.8575 16.5H12.135C14.865 16.5 16.4925 14.8725 16.4925 12.1425V5.8575C16.5 3.1275 14.8725 1.5 12.1425 1.5Z" fill="#5D25FE"/>
    <path d="M11.8125 6.8125L6.1875 6.8125C6.17444 6.8125 6.15878 6.8073 6.14449 6.79301C6.1302 6.77872 6.125 6.76306 6.125 6.75C6.125 6.73694 6.1302 6.72128 6.14449 6.70699C6.15878 6.6927 6.17444 6.6875 6.1875 6.6875L11.8125 6.6875C11.8256 6.6875 11.8412 6.6927 11.8555 6.70699C11.8698 6.72128 11.875 6.73694 11.875 6.75C11.875 6.76306 11.8698 6.77872 11.8555 6.79301C11.8412 6.8073 11.8256 6.8125 11.8125 6.8125Z" fill="#5D25FE" stroke="#F4F0FF"/>
    <path d="M11.8125 11.3125L6.1875 11.3125C6.17444 11.3125 6.15878 11.3073 6.14449 11.293C6.1302 11.2787 6.125 11.2631 6.125 11.25C6.125 11.2369 6.1302 11.2213 6.14449 11.207C6.15878 11.1927 6.17444 11.1875 6.1875 11.1875L11.8125 11.1875C11.8256 11.1875 11.8412 11.1927 11.8555 11.207C11.8698 11.2213 11.875 11.2369 11.875 11.25C11.875 11.2631 11.8698 11.2787 11.8555 11.293C11.8412 11.3073 11.8256 11.3125 11.8125 11.3125Z" fill="#5D25FE" stroke="#F4F0FF"/>
</svg>
