<svg width="18" height="18" viewBox="0 0 18 18" fill="none" xmlns="http://www.w3.org/2000/svg">
    <path d="M15.8175 5.23489C15.18 4.52989 14.115 4.17739 12.57 4.17739H12.39V4.14739C12.39 2.88739 12.39 1.32739 9.57003 1.32739H8.43003C5.61003 1.32739 5.61003 2.89489 5.61003 4.14739V4.18489H5.43003C3.87753 4.18489 2.82003 4.53739 2.18253 5.24239C1.44003 6.06739 1.46253 7.17739 1.53753 7.93489L1.54503 7.98739L1.62003 8.77489C1.62753 8.78239 1.64253 8.79739 1.65753 8.80489C1.90503 8.96989 2.16003 9.13489 2.43003 9.28489C2.53503 9.35239 2.64753 9.41239 2.76003 9.47239C4.04253 10.1774 5.45253 10.6499 6.88503 10.8824C6.95253 11.5874 7.26003 12.4124 8.90253 12.4124C10.545 12.4124 10.8675 11.5949 10.92 10.8674C12.45 10.6199 13.9275 10.0874 15.2625 9.30739C15.3075 9.28489 15.3375 9.26239 15.375 9.23989C15.72 9.04489 16.0425 8.83489 16.3575 8.60239C16.3725 8.59489 16.3875 8.57989 16.395 8.56489L16.425 8.29489L16.4625 7.94239C16.47 7.89739 16.47 7.85989 16.4775 7.80739C16.5375 7.04989 16.5225 6.01489 15.8175 5.23489ZM9.81753 10.3724C9.81753 11.1674 9.81753 11.2874 8.89503 11.2874C7.97253 11.2874 7.97253 11.1449 7.97253 10.3799V9.43489H9.81753V10.3724ZM6.68253 4.17739V4.14739C6.68253 2.87239 6.68253 2.39989 8.43003 2.39989H9.57003C11.3175 2.39989 11.3175 2.87989 11.3175 4.14739V4.18489H6.68253V4.17739Z" fill="#7000FF"/>
    <path opacity="0.4" d="M15.3751 9.22505C15.3376 9.24755 15.3001 9.27005 15.2626 9.29255C13.9276 10.0725 12.4501 10.5975 10.9201 10.8525C10.8601 11.5725 10.5451 12.3976 8.90262 12.3976C7.26012 12.3976 6.94512 11.58 6.88512 10.8675C5.45262 10.6425 4.04262 10.17 2.76012 9.45755C2.64762 9.39755 2.53512 9.33755 2.43012 9.27005C2.16012 9.12005 1.90512 8.95505 1.65762 8.79005C1.64262 8.78255 1.62762 8.76755 1.62012 8.76005L2.07762 13.6426C2.23512 15.1351 2.85012 16.6726 6.15012 16.6726H11.8651C15.1651 16.6726 15.7801 15.1351 15.9376 13.6351L16.4101 8.55005C16.4026 8.56505 16.3876 8.58005 16.3726 8.58755C16.0501 8.82005 15.7201 9.03755 15.3751 9.22505Z" fill="#7000FF"/>
</svg>
