<svg width="18" height="18" viewBox="0 0 18 18" fill="none" xmlns="http://www.w3.org/2000/svg">
    <path d="M3.8625 15.9375L3.8625 2.0625" stroke="#5D25FE"/>
    <path d="M3.8625 16C3.84944 16 3.83378 15.9948 3.81949 15.9805C3.8052 15.9662 3.8 15.9506 3.8 15.9375L3.8 2.0625C3.8 2.04944 3.8052 2.03378 3.81949 2.01949C3.83378 2.0052 3.84944 2 3.8625 2C3.87556 2 3.89122 2.0052 3.90551 2.01949C3.9198 2.03378 3.925 2.04944 3.925 2.0625L3.925 15.9375C3.925 15.9506 3.9198 15.9662 3.90551 15.9805C3.89122 15.9948 3.87556 16 3.8625 16Z" fill="#5D25FE" stroke="#5D25FE"/>
    <path d="M13.8774 3.8048L13.8774 3.8048L13.8786 3.80774C14.0009 4.10044 13.9106 4.63479 13.1614 5.38397L12.2614 6.28397C11.9206 6.62484 11.7278 7.09482 11.7478 7.57723C11.7596 8.00755 11.9375 8.41361 12.2582 8.69781L13.1597 9.59934C13.16 9.5996 13.1602 9.59986 13.1605 9.60011C13.8893 10.3364 13.9811 10.8652 13.8557 11.1709C13.7296 11.4708 13.2871 11.785 12.2625 11.785L4.0775 11.785L4.0775 3.20752L12.2625 3.20752C13.3171 3.20752 13.7615 3.52223 13.8774 3.8048Z" fill="#5D25FE" stroke="#5D25FE"/>
</svg>
