<svg width="20" height="20" viewBox="0 0 20 20" fill="none" xmlns="http://www.w3.org/2000/svg">
    <path d="M17.1834 7.04165C16.3084 3.19165 12.9501 1.45831 10.0001 1.45831C10.0001 1.45831 10.0001 1.45831 9.99175 1.45831C7.05008 1.45831 3.68341 3.18331 2.80841 7.03331C1.83341 11.3333 4.46675 14.975 6.85008 17.2666C7.73341 18.1166 8.86675 18.5416 10.0001 18.5416C11.1334 18.5416 12.2667 18.1166 13.1417 17.2666C15.5251 14.975 18.1584 11.3416 17.1834 7.04165Z" fill="#5D25FE"/>
    <path d="M10 11.2167C11.4497 11.2167 12.625 10.0414 12.625 8.59168C12.625 7.14193 11.4497 5.96667 10 5.96667C8.55025 5.96667 7.375 7.14193 7.375 8.59168C7.375 10.0414 8.55025 11.2167 10 11.2167Z" fill="#F4F0FF"/>
</svg>
