<svg width="51" height="50" viewBox="0 0 51 50" fill="none" xmlns="http://www.w3.org/2000/svg">
<rect x="0.5" width="50" height="50" rx="4" fill="#35353A"/>
<path d="M25.5007 15.8359C24.2969 15.8359 23.1049 16.073 21.9927 16.5337C20.8806 16.9944 19.87 17.6696 19.0188 18.5208C17.2998 20.2399 16.334 22.5715 16.334 25.0026C16.334 29.0543 18.9648 32.4918 22.604 33.7109C23.0623 33.7843 23.209 33.5001 23.209 33.2526V31.7034C20.6698 32.2534 20.129 30.4751 20.129 30.4751C19.7073 29.4118 19.1115 29.1276 19.1115 29.1276C18.2773 28.5593 19.1757 28.5776 19.1757 28.5776C20.0923 28.6418 20.5782 29.5218 20.5782 29.5218C21.3757 30.9151 22.7232 30.5026 23.2457 30.2826C23.3282 29.6868 23.5665 29.2834 23.8232 29.0543C21.7882 28.8251 19.6523 28.0368 19.6523 24.5443C19.6523 23.5268 20.0007 22.7109 20.5965 22.0601C20.5048 21.8309 20.184 20.8776 20.6882 19.6401C20.6882 19.6401 21.4582 19.3926 23.209 20.5751C23.9332 20.3734 24.7215 20.2726 25.5007 20.2726C26.2798 20.2726 27.0682 20.3734 27.7923 20.5751C29.5432 19.3926 30.3132 19.6401 30.3132 19.6401C30.8173 20.8776 30.4965 21.8309 30.4048 22.0601C31.0007 22.7109 31.349 23.5268 31.349 24.5443C31.349 28.0459 29.204 28.8159 27.1598 29.0451C27.4898 29.3293 27.7923 29.8884 27.7923 30.7409V33.2526C27.7923 33.5001 27.939 33.7934 28.4065 33.7109C32.0457 32.4826 34.6673 29.0543 34.6673 25.0026C34.6673 23.7988 34.4302 22.6068 33.9695 21.4947C33.5089 20.3825 32.8337 19.372 31.9825 18.5208C31.1313 17.6696 30.1207 16.9944 29.0086 16.5337C27.8964 16.073 26.7044 15.8359 25.5007 15.8359Z" fill="white"/>
</svg>
