<svg width="51" height="50" viewBox="0 0 51 50" fill="none" xmlns="http://www.w3.org/2000/svg">
<rect x="0.5" width="50" height="50" rx="4" fill="#35353A"/>
<path d="M30.4062 30.0959L30.4053 30.0973C30.1013 30.5645 29.7557 31.0525 29.3699 31.4232C28.9798 31.7979 28.6084 31.9951 28.2524 32L28.2509 32.0001C27.9336 32.0054 27.7413 31.9184 27.4268 31.7762L27.423 31.7744L27.4217 31.7739C27.408 31.7677 27.3942 31.7615 27.3802 31.7552C27.0087 31.5879 26.5406 31.3771 25.7592 31.385C24.9596 31.3855 24.485 31.5986 24.1004 31.7713L24.0973 31.7727L24.0946 31.7739L24.0938 31.7742C23.7718 31.9165 23.5703 32.0055 23.2427 32.0001L23.2414 32C22.8763 31.9949 22.515 31.8129 22.1454 31.4723C21.7756 31.1316 21.4431 30.6741 21.141 30.2098C20.3252 28.9558 19.8765 27.5999 19.7561 26.3724C19.6348 25.1364 19.8493 24.0752 20.3018 23.3739C20.9837 22.321 22.0298 21.75 22.9494 21.75C23.4515 21.75 23.8567 21.8917 24.3073 22.0569L24.3073 22.057L24.3112 22.0584C24.3218 22.0622 24.3325 22.066 24.3432 22.0698C24.7437 22.213 25.2109 22.38 25.7469 22.38C26.2611 22.38 26.6735 22.2232 27.0363 22.0853L27.057 22.0774L27.057 22.0774L27.061 22.0759C27.4922 21.9077 27.9147 21.75 28.5369 21.75C29.2138 21.75 29.9607 22.0614 30.579 22.6475C28.4611 24.2959 28.853 27.5926 31.11 28.8373C30.898 29.2944 30.7329 29.5976 30.4062 30.0959Z" fill="white" stroke="white"/>
<path fill-rule="evenodd" clip-rule="evenodd" d="M28.3793 17.5C28.4993 18.325 28.1618 19.1425 27.7193 19.7125C27.2468 20.3275 26.4218 20.8075 25.6268 20.7775C25.4843 19.9825 25.8518 19.165 26.3018 18.6175C26.8043 18.0175 27.6518 17.5525 28.3793 17.5Z" fill="white"/>
</svg>
