<svg width="51" height="50" viewBox="0 0 51 50" fill="none" xmlns="http://www.w3.org/2000/svg">
<rect x="0.5" width="50" height="50" rx="4" fill="#1B64F5"/>
<path d="M20.0625 17.4062C19.1823 17.4062 18.4688 18.1198 18.4688 19C18.4688 19.8802 19.1823 20.5937 20.0625 20.5937C20.9427 20.5937 21.6562 19.8802 21.6562 19C21.6562 18.1198 20.9427 17.4062 20.0625 17.4062Z" fill="white"/>
<path d="M18.5625 21.9062C18.5107 21.9062 18.4688 21.9482 18.4688 22V31.75C18.4688 31.8018 18.5107 31.8437 18.5625 31.8437H21.5625C21.6143 31.8437 21.6562 31.8018 21.6562 31.75V22C21.6562 21.9482 21.6143 21.9062 21.5625 21.9062H18.5625Z" fill="white"/>
<path d="M23.4375 21.9062C23.3857 21.9062 23.3438 21.9482 23.3438 22V31.75C23.3438 31.8018 23.3857 31.8437 23.4375 31.8437H26.4375C26.4893 31.8437 26.5312 31.8018 26.5312 31.75V26.5C26.5312 26.127 26.6794 25.7694 26.9431 25.5056C27.2069 25.2419 27.5645 25.0937 27.9375 25.0937C28.3105 25.0937 28.6681 25.2419 28.9319 25.5056C29.1956 25.7694 29.3438 26.127 29.3438 26.5V31.75C29.3438 31.8018 29.3857 31.8437 29.4375 31.8437H32.4375C32.4893 31.8437 32.5312 31.8018 32.5312 31.75V25.2852C32.5312 23.4651 30.9483 22.0412 29.1374 22.2059C28.5789 22.2566 28.0267 22.3955 27.5111 22.6165L26.5312 23.0364V22C26.5312 21.9482 26.4893 21.9062 26.4375 21.9062H23.4375Z" fill="white"/>
</svg>
