<svg width="27" height="27" viewBox="0 0 27 27" fill="none" xmlns="http://www.w3.org/2000/svg">
    <g opacity="0.5">
        <path d="M8.08341 20.4658H12.4167L17.2376 23.6725C17.9526 24.1492 18.9167 23.64 18.9167 22.7733V20.4658C22.1667 20.4658 24.3334 18.2992 24.3334 15.0492V8.54916C24.3334 5.29916 22.1667 3.13249 18.9167 3.13249H8.08341C4.83341 3.13249 2.66675 5.29916 2.66675 8.54916V15.0492C2.66675 18.2992 4.83341 20.4658 8.08341 20.4658Z" fill="#8C8C99"/>
        <path d="M8.08341 20.4658H12.4167L17.2376 23.6725C17.9526 24.1492 18.9167 23.64 18.9167 22.7733V20.4658C22.1667 20.4658 24.3334 18.2992 24.3334 15.0492V8.54916C24.3334 5.29916 22.1667 3.13249 18.9167 3.13249H8.08341C4.83341 3.13249 2.66675 5.29916 2.66675 8.54916V15.0492C2.66675 18.2992 4.83341 20.4658 8.08341 20.4658Z" stroke="#8C8C99"/>
    </g>
    <path d="M17.2916 12.6875H9.70825C9.26409 12.6875 8.89575 12.3192 8.89575 11.875C8.89575 11.4308 9.26409 11.0625 9.70825 11.0625H17.2916C17.7358 11.0625 18.1041 11.4308 18.1041 11.875C18.1041 12.3192 17.7358 12.6875 17.2916 12.6875Z" fill="#8C8C99"/>
    <path d="M17.2916 12.6875H9.70825C9.26409 12.6875 8.89575 12.3192 8.89575 11.875C8.89575 11.4308 9.26409 11.0625 9.70825 11.0625H17.2916C17.7358 11.0625 18.1041 11.4308 18.1041 11.875C18.1041 12.3192 17.7358 12.6875 17.2916 12.6875Z" stroke="#8C8C99"/>
</svg>
