<svg width="27" height="26" viewBox="0 0 27 26" fill="none" xmlns="http://www.w3.org/2000/svg">
    <g opacity="0.5">
        <path d="M19.3601 8.73386C19.286 8.72326 19.2118 8.72326 19.1376 8.73386C17.4951 8.68087 16.1917 7.33505 16.1917 5.68192C16.1917 3.99701 17.5587 2.6194 19.2542 2.6194C20.9391 2.6194 22.3167 3.98641 22.3167 5.68192C22.3061 7.33505 21.0027 8.68087 19.3601 8.73386Z" fill="#8C8C99"/>
        <path d="M19.3601 8.73386C19.286 8.72326 19.2118 8.72326 19.1376 8.73386C17.4951 8.68087 16.1917 7.33505 16.1917 5.68192C16.1917 3.99701 17.5587 2.6194 19.2542 2.6194C20.9391 2.6194 22.3167 3.98641 22.3167 5.68192C22.3061 7.33505 21.0027 8.68087 19.3601 8.73386Z" stroke="#8C8C99"/>
    </g>
    <g opacity="0.5">
        <path d="M22.8149 16.0775C21.628 16.8723 19.9643 17.169 18.4277 16.9677C18.8304 16.0987 19.0424 15.1344 19.053 14.1171C19.053 13.0574 18.8198 12.0507 18.3748 11.1712C19.9431 10.9592 21.6068 11.2559 22.8043 12.0507C24.4786 13.1528 24.4786 14.9649 22.8149 16.0775Z" fill="#8C8C99"/>
        <path d="M22.8149 16.0775C21.628 16.8723 19.9643 17.169 18.4277 16.9677C18.8304 16.0987 19.0424 15.1344 19.053 14.1171C19.053 13.0574 18.8198 12.0507 18.3748 11.1712C19.9431 10.9592 21.6068 11.2559 22.8043 12.0507C24.4786 13.1528 24.4786 14.9649 22.8149 16.0775Z" stroke="#8C8C99"/>
    </g>
    <g opacity="0.5">
        <path d="M7.60816 8.73386C7.68234 8.72326 7.75652 8.72326 7.8307 8.73386C9.47323 8.68087 10.7767 7.33505 10.7767 5.68192C10.7767 3.99701 9.40965 2.6194 7.71414 2.6194C6.02922 2.6194 4.65161 3.98641 4.65161 5.68192C4.66221 7.33505 5.96563 8.68087 7.60816 8.73386Z" fill="#8C8C99"/>
        <path d="M7.60816 8.73386C7.68234 8.72326 7.75652 8.72326 7.8307 8.73386C9.47323 8.68087 10.7767 7.33505 10.7767 5.68192C10.7767 3.99701 9.40965 2.6194 7.71414 2.6194C6.02922 2.6194 4.65161 3.98641 4.65161 5.68192C4.66221 7.33505 5.96563 8.68087 7.60816 8.73386Z" stroke="#8C8C99"/>
    </g>
    <path opacity="0.5" d="M7.72462 14.1171C7.72462 15.145 7.94716 16.1199 8.34985 16.9995C6.85567 17.1584 5.29792 16.8405 4.15345 16.0881C2.47912 14.9755 2.47912 13.1634 4.15345 12.0507C5.28732 11.2877 6.88747 10.9804 8.39224 11.15C7.95776 12.0401 7.72462 13.0468 7.72462 14.1171Z" fill="#8C8C99"/>
    <path d="M13.6274 17.3174C13.5426 17.3068 13.4472 17.3068 13.3518 17.3174C11.402 17.2538 9.84424 15.6537 9.84424 13.6826C9.84424 11.6692 11.4656 10.0373 13.4896 10.0373C15.503 10.0373 17.135 11.6692 17.135 13.6826C17.135 15.6537 15.5878 17.2538 13.6274 17.3174Z" fill="#8C8C99"/>
    <path d="M10.1833 19.511C8.58312 20.5813 8.58312 22.3404 10.1833 23.4C12.0059 24.6187 14.9943 24.6187 16.817 23.4C18.4171 22.3298 18.4171 20.5707 16.817 19.511C15.0049 18.2923 12.0165 18.2923 10.1833 19.511Z" fill="#8C8C99"/>
</svg>
