<svg width="27" height="26" viewBox="0 0 27 26" fill="none" xmlns="http://www.w3.org/2000/svg">
    <g opacity="0.5">
        <path d="M18.7985 22.2238H8.20156C5.02247 22.2238 2.90308 20.6342 2.90308 16.9253V9.50742C2.90308 5.79848 5.02247 4.20894 8.20156 4.20894H18.7985C21.9776 4.20894 24.097 5.79848 24.097 9.50742V16.9253C24.097 20.6342 21.9776 22.2238 18.7985 22.2238Z" fill="#8C8C99"/>
        <path d="M18.7985 22.2238H8.20156C5.02247 22.2238 2.90308 20.6342 2.90308 16.9253V9.50742C2.90308 5.79848 5.02247 4.20894 8.20156 4.20894H18.7985C21.9776 4.20894 24.097 5.79848 24.097 9.50742V16.9253C24.097 20.6342 21.9776 22.2238 18.7985 22.2238Z" stroke="#8C8C99"/>
    </g>
    <path d="M13.4999 14.1383C12.6098 14.1383 11.7091 13.8628 11.0202 13.3011L7.70339 10.6519C7.36429 10.3764 7.30071 9.87832 7.57623 9.53922C7.85175 9.20012 8.34982 9.13654 8.68892 9.41206L12.0058 12.0613C12.8111 12.7077 14.1781 12.7077 14.9835 12.0613L18.3004 9.41206C18.6395 9.13654 19.1481 9.18952 19.413 9.53922C19.6886 9.87832 19.6356 10.387 19.2859 10.6519L15.969 13.3011C15.2908 13.8628 14.3901 14.1383 13.4999 14.1383Z" fill="#8C8C99"/>
    <path d="M13.4999 14.1383C12.6098 14.1383 11.7091 13.8628 11.0202 13.3011L7.70339 10.6519C7.36429 10.3764 7.30071 9.87832 7.57623 9.53922C7.85175 9.20012 8.34982 9.13654 8.68892 9.41206L12.0058 12.0613C12.8111 12.7077 14.1781 12.7077 14.9835 12.0613L18.3004 9.41206C18.6395 9.13654 19.1481 9.18952 19.413 9.53922C19.6886 9.87832 19.6356 10.387 19.2859 10.6519L15.969 13.3011C15.2908 13.8628 14.3901 14.1383 13.4999 14.1383Z" stroke="#8C8C99"/>
</svg>
