<svg width="18" height="18" viewBox="0 0 18 18" fill="none" xmlns="http://www.w3.org/2000/svg">
    <path d="M6 3.8125C5.98694 3.8125 5.97128 3.8073 5.95699 3.79301C5.9427 3.77872 5.9375 3.76306 5.9375 3.75V1.5C5.9375 1.48694 5.9427 1.47128 5.95699 1.45699C5.97128 1.4427 5.98694 1.4375 6 1.4375C6.01306 1.4375 6.02872 1.4427 6.04301 1.45699C6.0573 1.47128 6.0625 1.48694 6.0625 1.5V3.75C6.0625 3.76306 6.0573 3.77872 6.04301 3.79301C6.02872 3.8073 6.01306 3.8125 6 3.8125Z" fill="#5D25FE" stroke="#6640FF"/>
    <path d="M12 3.8125C11.9869 3.8125 11.9713 3.8073 11.957 3.79301C11.9427 3.77872 11.9375 3.76306 11.9375 3.75V1.5C11.9375 1.48694 11.9427 1.47128 11.957 1.45699C11.9713 1.4427 11.9869 1.4375 12 1.4375C12.0131 1.4375 12.0287 1.4427 12.043 1.45699C12.0573 1.47128 12.0625 1.48694 12.0625 1.5V3.75C12.0625 3.76306 12.0573 3.77872 12.043 3.79301C12.0287 3.8073 12.0131 3.8125 12 3.8125Z" fill="#5D25FE" stroke="#6640FF"/>
    <path d="M15.25 6.375L15.25 12.75C15.25 13.7984 14.9878 14.5956 14.493 15.1285C14.0043 15.6547 13.2172 16 12 16L6 16C4.7828 16 3.99565 15.6547 3.50702 15.1285C3.01216 14.5956 2.75 13.7984 2.75 12.75L2.75 6.375C2.75 5.32665 3.01216 4.5294 3.50702 3.99648C3.99565 3.47026 4.7828 3.125 6 3.125L12 3.125C13.2172 3.125 14.0043 3.47026 14.493 3.99648C14.9878 4.5294 15.25 5.32665 15.25 6.375Z" fill="#5D25FE" stroke="#5D25FE"/>
    <path d="M12 8.8125L6 8.8125C5.6925 8.8125 5.4375 8.5575 5.4375 8.25C5.4375 7.9425 5.6925 7.6875 6 7.6875L12 7.6875C12.3075 7.6875 12.5625 7.9425 12.5625 8.25C12.5625 8.5575 12.3075 8.8125 12 8.8125Z" fill="#F4F0FF"/>
    <path d="M9 12.5625H6C5.6925 12.5625 5.4375 12.3075 5.4375 12C5.4375 11.6925 5.6925 11.4375 6 11.4375H9C9.3075 11.4375 9.5625 11.6925 9.5625 12C9.5625 12.3075 9.3075 12.5625 9 12.5625Z" fill="#F4F0FF"/>
</svg>
