<svg width="27" height="26" viewBox="0 0 27 26" fill="none" xmlns="http://www.w3.org/2000/svg">
    <g opacity="0.5">
        <path d="M13.5001 2.61938C10.7237 2.61938 8.46655 4.87654 8.46655 7.65295C8.46655 10.3764 10.5965 12.5805 13.373 12.6759C13.4577 12.6653 13.5425 12.6653 13.6061 12.6759H13.6591H13.6803C16.3931 12.5805 18.5231 10.3764 18.5337 7.65295C18.5337 4.87654 16.2765 2.61938 13.5001 2.61938Z" fill="#8C8C99"/>
        <path d="M13.5001 2.61938C10.7237 2.61938 8.46655 4.87654 8.46655 7.65295C8.46655 10.3764 10.5965 12.5805 13.373 12.6759C13.4577 12.6653 13.5425 12.6653 13.6061 12.6759H13.6591H13.6803C16.3931 12.5805 18.5231 10.3764 18.5337 7.65295C18.5337 4.87654 16.2765 2.61938 13.5001 2.61938Z" stroke="#8C8C99"/>
    </g>
    <path d="M18.8831 15.4947C15.9265 13.5237 11.1049 13.5237 8.12715 15.4947C6.78134 16.3954 6.03955 17.6141 6.03955 18.9175C6.03955 20.2209 6.78134 21.429 8.11656 22.3191C9.60013 23.3153 11.55 23.8133 13.4998 23.8133C15.4497 23.8133 17.3995 23.3153 18.8831 22.3191C20.2183 21.4184 20.9601 20.2103 20.9601 18.8963C20.9495 17.5929 20.2183 16.3848 18.8831 15.4947Z" fill="#8C8C99"/>
    <path d="M18.8831 15.4947C15.9265 13.5237 11.1049 13.5237 8.12715 15.4947C6.78134 16.3954 6.03955 17.6141 6.03955 18.9175C6.03955 20.2209 6.78134 21.429 8.11656 22.3191C9.60013 23.3153 11.55 23.8133 13.4998 23.8133C15.4497 23.8133 17.3995 23.3153 18.8831 22.3191C20.2183 21.4184 20.9601 20.2103 20.9601 18.8963C20.9495 17.5929 20.2183 16.3848 18.8831 15.4947Z" stroke="#8C8C99"/>
</svg>
