<svg width="18" height="18" viewBox="0 0 18 18" fill="none" xmlns="http://www.w3.org/2000/svg">
    <path d="M4.5 2.75L13.5 2.75C14.8846 2.75 16 3.8644 16 5.2275V12.7725C16 14.1356 14.8846 15.25 13.5 15.25L4.5 15.25C3.11537 15.25 2 14.1356 2 12.7725L2 5.2275C2 3.8644 3.11537 2.75 4.5 2.75Z" fill="#5D25FE" stroke="#5D25FE"/>
    <path d="M14.25 6.0625L10.5 6.0625C10.4869 6.0625 10.4713 6.0573 10.457 6.04301C10.4427 6.02872 10.4375 6.01306 10.4375 6C10.4375 5.98694 10.4427 5.97128 10.457 5.95699C10.4713 5.9427 10.4869 5.9375 10.5 5.9375L14.25 5.9375C14.2631 5.9375 14.2787 5.9427 14.293 5.95699C14.3073 5.97128 14.3125 5.98694 14.3125 6C14.3125 6.01306 14.3073 6.02872 14.293 6.04301C14.2787 6.0573 14.2631 6.0625 14.25 6.0625Z" fill="#F4F0FF" stroke="#F4F0FF"/>
    <path d="M14.25 9.0625H11.25C11.2369 9.0625 11.2213 9.0573 11.207 9.04301C11.1927 9.02872 11.1875 9.01306 11.1875 9C11.1875 8.98694 11.1927 8.97128 11.207 8.95699C11.2213 8.9427 11.2369 8.9375 11.25 8.9375H14.25C14.2631 8.9375 14.2787 8.9427 14.293 8.95699C14.3073 8.97128 14.3125 8.98694 14.3125 9C14.3125 9.01306 14.3073 9.02872 14.293 9.04301C14.2787 9.0573 14.2631 9.0625 14.25 9.0625Z" fill="#F4F0FF" stroke="#F4F0FF"/>
    <path d="M14.25 12.0625H12.75C12.7369 12.0625 12.7213 12.0573 12.707 12.043C12.6927 12.0287 12.6875 12.0131 12.6875 12C12.6875 11.9869 12.6927 11.9713 12.707 11.957C12.7213 11.9427 12.7369 11.9375 12.75 11.9375H14.25C14.2631 11.9375 14.2787 11.9427 14.293 11.957C14.3073 11.9713 14.3125 11.9869 14.3125 12C14.3125 12.0131 14.3073 12.0287 14.293 12.043C14.2787 12.0573 14.2631 12.0625 14.25 12.0625Z" fill="#F4F0FF" stroke="#F4F0FF"/>
    <path d="M7.60758 7.10994C7.60758 7.79063 7.05577 8.34244 6.37508 8.34244C5.69439 8.34244 5.14258 7.79063 5.14258 7.10994C5.14258 6.42925 5.69439 5.87744 6.37508 5.87744C7.05577 5.87744 7.60758 6.42925 7.60758 7.10994Z" fill="#F4F0FF" stroke="#F4F0FF"/>
    <path d="M5.81458 10.3301C4.83526 10.4235 4.04312 11.1687 3.88989 12.1223H8.8579C8.69592 11.1626 7.90901 10.4231 6.92794 10.3301L5.81458 10.3301ZM5.81458 10.3301C6.18072 10.2956 6.56163 10.2956 6.92777 10.3301L5.81458 10.3301Z" fill="#F4F0FF" stroke="#F4F0FF"/>
</svg>
