<svg width="31" height="31" viewBox="0 0 31 31" fill="none" xmlns="http://www.w3.org/2000/svg">
    <path
        d="M10.4306 0.407848L0.379143 10.7643C0.136348 11.0143 0 11.3504 0 11.6984V29.6581C0 30.3996 0.600409 31 1.34195 31H22.568C23.3095 31 23.9099 30.3996 23.9099 29.6581V1.34195C23.9099 0.600409 23.3095 0 22.568 0H11.3946C11.0322 0 10.6842 0.147112 10.4318 0.407848H10.4306Z"
        fill="#BFA6FF" />
    <path
        d="M10.6077 0.224787L0.209369 10.9401C0.131626 11.0202 0.18784 11.1553 0.300267 11.1553H8.7024C9.87452 11.1553 10.8254 10.2045 10.8254 9.03238V0.313294C10.8254 0.19967 10.6866 0.142261 10.6065 0.224787H10.6077Z"
        fill="#D9CDFF" />
    <rect x="6" y="14.0276" width="12" height="1.40275" rx="0.701376" fill="#F4F0FF" />
    <rect x="6" y="17.5344" width="12" height="1.40275" rx="0.701376" fill="#F4F0FF" />
    <rect x="6" y="21.0413" width="12" height="1.40275" rx="0.701376" fill="#F4F0FF" />
    <path
        d="M23 28.6666C26.6819 28.6666 29.6667 25.6818 29.6667 21.9999C29.6667 18.318 26.6819 15.3333 23 15.3333C19.3181 15.3333 16.3333 18.318 16.3333 21.9999C16.3333 25.6818 19.3181 28.6666 23 28.6666Z"
        fill="#854CFD" />
    <path
        d="M22.0533 24.3867C21.92 24.3867 21.7933 24.3334 21.7 24.2401L19.8133 22.3534C19.62 22.1601 19.62 21.8401 19.8133 21.6467C20.0067 21.4534 20.3267 21.4534 20.52 21.6467L22.0533 23.1801L25.48 19.7534C25.6733 19.5601 25.9933 19.5601 26.1867 19.7534C26.38 19.9467 26.38 20.2667 26.1867 20.4601L22.4067 24.2401C22.3133 24.3334 22.1867 24.3867 22.0533 24.3867Z"
        fill="#F4F0FF" />
</svg>
