<svg width="18" height="19" viewBox="0 0 18 19" fill="none" xmlns="http://www.w3.org/2000/svg">
<path opacity="0.34" d="M9 12.125C10.2426 12.125 11.25 11.1176 11.25 9.875C11.25 8.63236 10.2426 7.625 9 7.625C7.75736 7.625 6.75 8.63236 6.75 9.875C6.75 11.1176 7.75736 12.125 9 12.125Z" stroke="#35353A" stroke-width="1.5" stroke-miterlimit="10" stroke-linecap="round" stroke-linejoin="round"/>
<path d="M1.5 10.5361V9.21605C1.5 8.43605 2.1375 7.79105 2.925 7.79105C4.2825 7.79105 4.8375 6.83105 4.155 5.65355C3.765 4.97855 3.9975 4.10105 4.68 3.71105L5.9775 2.96855C6.57 2.61605 7.335 2.82605 7.6875 3.41855L7.77 3.56105C8.445 4.73855 9.555 4.73855 10.2375 3.56105L10.32 3.41855C10.6725 2.82605 11.4375 2.61605 12.03 2.96855L13.3275 3.71105C14.01 4.10105 14.2425 4.97855 13.8525 5.65355C13.17 6.83105 13.725 7.79105 15.0825 7.79105C15.8625 7.79105 16.5075 8.42855 16.5075 9.21605V10.5361C16.5075 11.3161 15.87 11.9611 15.0825 11.9611C13.725 11.9611 13.17 12.9211 13.8525 14.0986C14.2425 14.7811 14.01 15.6511 13.3275 16.0411L12.03 16.7836C11.4375 17.1361 10.6725 16.9261 10.32 16.3336L10.2375 16.1911C9.5625 15.0136 8.4525 15.0136 7.77 16.1911L7.6875 16.3336C7.335 16.9261 6.57 17.1361 5.9775 16.7836L4.68 16.0411C3.9975 15.6511 3.765 14.7736 4.155 14.0986C4.8375 12.9211 4.2825 11.9611 2.925 11.9611C2.1375 11.9611 1.5 11.3161 1.5 10.5361Z" stroke="#35353A" stroke-width="1.5" stroke-miterlimit="10" stroke-linecap="round" stroke-linejoin="round"/>
</svg>
