<svg width="18" height="18" viewBox="0 0 18 18" fill="none" xmlns="http://www.w3.org/2000/svg">
    <path opacity="0.4" d="M13.7851 9.63V13.3275C13.7851 14.28 13.0426 15.3 12.1501 15.6L9.75759 16.395C9.33759 16.5375 8.65509 16.5375 8.24259 16.395L5.85009 15.6C4.95009 15.3 4.21509 14.28 4.21509 13.3275L4.22259 9.63L7.53759 11.79C8.34759 12.3225 9.68259 12.3225 10.4926 11.79L13.7851 9.63Z" fill="#7000FF"/>
    <path d="M14.9849 4.84504L10.4924 1.89754C9.68239 1.36504 8.34739 1.36504 7.53739 1.89754L3.02239 4.84504C1.57489 5.78254 1.57489 7.90504 3.02239 8.85004L4.22239 9.63004L7.53739 11.79C8.34739 12.3225 9.68239 12.3225 10.4924 11.79L13.7849 9.63004L14.8124 8.95504V11.25C14.8124 11.5575 15.0674 11.8125 15.3749 11.8125C15.6824 11.8125 15.9374 11.5575 15.9374 11.25V7.56004C16.2374 6.59254 15.9299 5.46754 14.9849 4.84504Z" fill="#7000FF"/>
</svg>
