<svg width="20" height="20" viewBox="0 0 20 20" fill="none" xmlns="http://www.w3.org/2000/svg">
    <path d="M10.0584 7.45831C10.025 7.45831 9.97503 7.45831 9.93336 7.45831C9.05836 7.42498 8.3667 6.71665 8.3667 5.83331C8.3667 4.93331 9.0917 4.20831 9.9917 4.20831C10.8917 4.20831 11.6167 4.94165 11.6167 5.83331C11.625 6.71665 10.9334 7.43331 10.0584 7.45831Z" fill="#F4F0FF"/>
    <path d="M7.70845 9.96667C6.60011 10.7083 6.60011 11.9167 7.70845 12.6583C8.96678 13.5 11.0334 13.5 12.2918 12.6583C13.4001 11.9167 13.4001 10.7083 12.2918 9.96667C11.0334 9.13334 8.97511 9.13334 7.70845 9.96667Z" fill="#F4F0FF"/>
    <path d="M15 1.66669L5 1.66669C3.61667 1.66669 2.5 2.77502 2.5 4.14169L2.5 13.2334C2.5 14.6 3.61667 15.7084 5 15.7084H5.63334C6.3 15.7084 6.93333 15.9667 7.4 16.4334L8.825 17.8417C9.475 18.4834 10.5333 18.4834 11.1833 17.8417L12.6083 16.4334C13.075 15.9667 13.7167 15.7084 14.375 15.7084H15C16.3833 15.7084 17.5 14.6 17.5 13.2334V4.14169C17.5 2.77502 16.3833 1.66669 15 1.66669ZM10 4.20835C10.9 4.20835 11.625 4.94169 11.625 5.83335C11.625 6.71669 10.925 7.42502 10.0583 7.45835C10.025 7.45835 9.975 7.45835 9.93333 7.45835C9.05833 7.42502 8.36667 6.71669 8.36667 5.83335C8.375 4.94169 9.1 4.20835 10 4.20835ZM12.2917 12.6584C11.0333 13.5 8.96667 13.5 7.70833 12.6584C6.6 11.925 6.6 10.7084 7.70833 9.96669C8.975 9.12502 11.0417 9.12502 12.2917 9.96669C13.4 10.7084 13.4 11.9167 12.2917 12.6584Z" fill="#5D25FE"/>
</svg>
