<svg width="121" height="26" viewBox="0 0 121 26" fill="none" xmlns="http://www.w3.org/2000/svg">
<path d="M45.6575 12.477C45.6575 10.4584 44.7874 9.44907 43.0471 9.44907C42.1672 9.44802 41.3155 9.75775 40.6435 10.3231C40.3094 10.5769 40.0289 10.8939 39.8183 11.2559C39.6077 11.618 39.4711 12.0178 39.4164 12.4326V19.7501H36.9297V1.92969H39.4164L39.4002 8.3691L39.1466 10.0486L39.4245 10.1455L40.2622 8.65777C40.6702 8.2005 41.1661 7.82918 41.7206 7.56569C42.2731 7.28614 42.8836 7.13891 43.5035 7.13572C44.9368 7.13572 46.07 7.61548 46.9029 8.575C47.7359 9.53452 48.1531 10.8352 48.1544 12.477V19.7441H45.6575V12.477Z" fill="#35353A"/>
<path d="M55.539 19.9448C53.5959 19.9448 52.0746 19.385 50.9753 18.2654C49.8759 17.1457 49.3256 15.5631 49.3242 13.5175C49.3242 11.5541 49.8901 9.98966 51.0219 8.82424C52.1537 7.65882 53.6412 7.07678 55.4842 7.07813C57.3057 7.07813 58.7586 7.67429 59.8431 8.86663C60.9276 10.059 61.4684 11.6066 61.4657 13.5095C61.4657 13.9859 61.4657 14.3169 61.4414 14.5006H51.9083C52.03 15.5409 52.4147 16.3524 53.0624 16.9351C53.7448 17.5319 54.6312 17.8455 55.539 17.8112C57.0521 17.8112 58.1041 17.1706 58.6951 15.8894L61.2081 16.3255C60.7786 17.4148 60.014 18.341 59.0236 18.9719C57.983 19.6291 56.7713 19.9674 55.539 19.9448ZM51.9326 12.6475H58.9628C58.8492 11.6019 58.4807 10.7648 57.8574 10.1363C57.5496 9.82511 57.1804 9.58068 56.773 9.41844C56.3656 9.2562 55.9289 9.17966 55.4903 9.19365C55.051 9.17931 54.6133 9.25445 54.2042 9.41448C53.795 9.5745 53.4231 9.81602 53.1111 10.1242C52.4891 10.7352 52.0963 11.5763 51.9326 12.6475Z" fill="#35353A"/>
<path d="M62.8001 24.0529V21.7335H63.8934C64.1288 21.7453 64.3639 21.7042 64.5812 21.6134C64.7985 21.5225 64.9925 21.3842 65.1489 21.2086C65.5044 20.762 65.7702 20.2514 65.9318 19.7048L65.9562 19.6079L61.0273 7.38106H63.7595L66.6722 15.3728L67.0007 17.0523H67.2928L67.595 15.3728L70.5219 7.375H73.2743L68.2624 19.7532C67.9249 20.6532 67.5278 21.5298 67.0738 22.3774C66.6766 23.0852 66.0241 23.6163 65.2483 23.8631C64.743 24.0051 64.2196 24.0731 63.6946 24.065L62.8001 24.0529Z" fill="#35353A"/>
<path d="M78.8466 19.9419C77.1631 19.9419 75.8157 19.38 74.8042 18.2563C73.7928 17.1326 73.2911 15.5924 73.2992 13.6357C73.283 11.648 73.7988 10.0573 74.8468 8.86367C75.8948 7.66999 77.3092 7.07382 79.09 7.07517C80.19 7.04861 81.2584 7.44229 82.0757 8.17532L83.0067 9.60047L83.2724 9.50357L82.9215 7.82408V1.92969H85.4103V19.7501H83.5848L83.3049 17.574H83.0473C82.1413 19.1526 80.7411 19.9419 78.8466 19.9419ZM75.8366 13.6357C75.8366 14.9182 76.1537 15.9188 76.7879 16.6374C77.4221 17.356 78.2902 17.7167 79.3923 17.7194C80.5024 17.7194 81.3665 17.3493 81.9845 16.6091C82.6024 15.869 82.9121 14.8375 82.9134 13.5146C82.9134 12.2025 82.6017 11.1777 81.9784 10.4402C81.355 9.70274 80.493 9.33468 79.3923 9.33603C78.8979 9.31745 78.406 9.41419 77.9559 9.61854C77.5059 9.82288 77.11 10.1292 76.8001 10.5129C76.1578 11.2988 75.8366 12.3397 75.8366 13.6357Z" fill="#35353A"/>
<path d="M93.0664 19.9448C91.1233 19.9448 89.6014 19.385 88.5007 18.2654C87.4 17.1457 86.8496 15.5631 86.8496 13.5175C86.8496 11.5541 87.4162 9.98966 88.5493 8.82424C89.6825 7.65882 91.1699 7.07678 93.0116 7.07813C94.8304 7.07813 96.2826 7.67429 97.3685 8.86663C98.4543 10.059 98.9952 11.6066 98.9911 13.5095C98.9911 13.9859 98.9911 14.3169 98.9668 14.5006H89.4337C89.5554 15.5409 89.9401 16.3524 90.5878 16.9351C91.2702 17.5319 92.1566 17.8455 93.0644 17.8112C94.5775 17.8112 95.6295 17.1706 96.2204 15.8894L98.7335 16.3255C98.3039 17.4153 97.5385 18.3418 96.547 18.9719C95.5075 19.6283 94.2973 19.9666 93.0664 19.9448ZM89.4601 12.6475H96.4882C96.3746 11.6019 96.0068 10.7648 95.3848 10.1363C95.0768 9.82541 94.7075 9.58117 94.3002 9.41895C93.8929 9.25673 93.4563 9.18003 93.0177 9.19365C92.5784 9.17931 92.1407 9.25445 91.7316 9.41448C91.3225 9.5745 90.9505 9.81602 90.6385 10.1242C90.0151 10.7352 89.6223 11.5763 89.4601 12.6475Z" fill="#35353A"/>
<path d="M102.684 19.7472L98.5527 7.375H101.285L103.699 15.1427L104.025 16.8222H104.317L104.621 15.1427L107.055 7.375H109.786L105.666 19.7472H102.684Z" fill="#35353A"/>
<path d="M115.511 19.9224C113.69 19.9224 112.312 19.5462 111.377 18.794C110.443 18.0417 109.931 16.9523 109.842 15.5258L112.331 15.3805C112.459 16.9752 113.632 17.7725 115.85 17.7725C116.692 17.7725 117.364 17.6137 117.866 17.2961C118.094 17.1698 118.285 16.9849 118.417 16.7605C118.549 16.5361 118.619 16.2806 118.618 16.0204C118.618 15.546 118.334 15.1746 117.768 14.9101C117.203 14.6457 116.251 14.4337 114.917 14.2803C113.217 14.0973 111.974 13.7191 111.189 13.1459C110.403 12.5726 110.011 11.7651 110.012 10.7235C110.012 9.73976 110.469 8.8879 111.383 8.16792C112.297 7.44794 113.548 7.08728 115.134 7.08594C116.874 7.08594 118.189 7.44458 119.079 8.16186C119.969 8.87915 120.503 9.99881 120.681 11.5209L118.247 11.6904C118.19 10.7968 117.895 10.1664 117.361 9.79897C116.827 9.43158 115.984 9.24654 114.831 9.24385C114.079 9.24385 113.489 9.369 113.065 9.61729C112.873 9.71266 112.712 9.85935 112.599 10.0409C112.487 10.2224 112.428 10.4315 112.428 10.6448C112.421 10.8702 112.482 11.0926 112.603 11.2832C112.724 11.4739 112.9 11.6241 113.107 11.7146C113.56 11.9421 114.466 12.1439 115.825 12.3202C117.718 12.5625 119.052 12.9507 119.825 13.485C120.599 14.0192 120.989 14.8671 120.998 16.0284C121.006 16.5714 120.886 17.1087 120.645 17.5961C120.405 18.0835 120.051 18.5072 119.614 18.8323C118.692 19.5604 117.324 19.9237 115.511 19.9224Z" fill="#35353A"/>
<path d="M11.3496 12.625H24.0527V16.5922C24.063 17.1568 23.9299 17.7156 23.6642 18.2228C23.4192 18.6869 23.0386 19.0768 22.5665 19.3475C22.0512 19.6254 21.4627 19.7628 20.868 19.7442H20.6706C20.0733 19.7584 19.4841 19.6132 18.9721 19.3257C18.5 19.0514 18.1198 18.659 17.8744 18.193C17.6133 17.6923 17.4824 17.1412 17.4923 16.5843V14.1643H11.3496V12.625ZM18.9784 14.1643V16.4276C18.953 16.8974 19.1157 17.3591 19.4349 17.7229C19.592 17.885 19.7857 18.0125 20.002 18.0962C20.2182 18.1799 20.4517 18.2177 20.6854 18.2069H20.8383C21.0741 18.2187 21.3097 18.1813 21.5282 18.0976C21.7467 18.0139 21.9425 17.8859 22.1016 17.7229C22.4224 17.3599 22.586 16.8978 22.5602 16.4276V14.1643H18.9784Z" fill="#35353A"/>
<path d="M24.2637 25.9996V23.9085H27.8305C28.2326 23.9085 28.4035 23.7084 28.4035 23.2602V15.2822C28.3781 14.6946 28.5738 14.1188 28.9524 13.6673C29.1486 13.4587 29.3884 13.2954 29.6548 13.1889C29.9212 13.0824 30.2079 13.0353 30.4946 13.051H30.5428V12.965H30.4986C30.2111 12.9801 29.9237 12.9318 29.6571 12.8235C29.3905 12.7152 29.1513 12.5497 28.9565 12.3387C28.577 11.8877 28.3811 11.3115 28.4076 10.7238V2.73981C28.4076 2.29158 28.2306 2.09148 27.8345 2.09148H24.7033V0.000418525H28.5161C28.8063 -0.00530874 29.0947 0.0477972 29.3636 0.156503C29.6325 0.26521 29.8764 0.427242 30.0804 0.632739C30.2884 0.839576 30.4518 1.08643 30.5607 1.35822C30.6696 1.63001 30.7217 1.92104 30.7138 2.21354V10.6898C30.7138 11.4902 31.1159 11.8624 31.9985 11.8624H34.4113V14.1376H31.9985C31.1219 14.1376 30.7138 14.5098 30.7138 15.3082V23.7865C30.7217 24.079 30.6696 24.37 30.5607 24.6418C30.4518 24.9136 30.2884 25.1604 30.0804 25.3673C29.8764 25.5728 29.6325 25.7348 29.3636 25.8435C29.0947 25.9522 28.8063 26.0053 28.5161 25.9996H24.2637Z" fill="#7000FF"/>
<path d="M11.1465 25.9996V23.9085H7.57964C7.17751 23.9085 7.00661 23.7084 7.00661 23.2602V15.2822C7.03208 14.6946 6.83635 14.1188 6.45771 13.6673C6.26154 13.4587 6.02179 13.2954 5.75535 13.1889C5.48891 13.0824 5.20225 13.0353 4.91556 13.051H4.86731V12.965H4.91154C5.19908 12.9801 5.48642 12.9318 5.75302 12.8235C6.01961 12.7152 6.25888 12.5497 6.45369 12.3387C6.83319 11.8877 7.02904 11.3115 7.00259 10.7238V2.73981C7.00259 2.29158 7.17952 2.09148 7.57562 2.09148H10.7069V0.000418525H6.89401C6.60381 -0.00530874 6.31548 0.0477972 6.04656 0.156503C5.77763 0.26521 5.53375 0.427242 5.32975 0.632739C5.12179 0.839576 4.95838 1.08643 4.84948 1.35822C4.74059 1.63001 4.6885 1.92104 4.6964 2.21354V10.6898C4.6964 11.4902 4.29428 11.8624 3.41162 11.8624H0.998874V14.1376H3.41162C4.28825 14.1376 4.6964 14.5098 4.6964 15.3082V23.7865C4.6885 24.079 4.74059 24.37 4.84948 24.6418C4.95838 24.9136 5.12179 25.1604 5.32975 25.3673C5.53375 25.5728 5.77763 25.7348 6.04656 25.8435C6.31548 25.9522 6.60381 26.0053 6.89401 25.9996H11.1465Z" fill="#7000FF"/>
<path fill-rule="evenodd" clip-rule="evenodd" d="M16.8006 9.8327C16.864 9.73205 16.9163 9.62532 16.9566 9.51412C17.0361 9.29448 17.0669 9.06199 17.047 8.83086C17.0271 8.59973 16.957 8.37481 16.841 8.16984C16.725 7.96488 16.5654 7.78416 16.3721 7.63874C15.8796 7.2894 15.2723 7.11124 14.6545 7.1349C13.6722 7.1358 12.7241 7.47153 11.9879 8.0791C11.2797 8.66796 10.8443 9.49091 10.7734 10.3741H12.1577C12.2181 9.99098 12.4017 9.63402 12.6842 9.3506C12.9061 9.12956 13.1861 8.96877 13.4944 8.88319C13.49 8.93391 13.4878 8.98525 13.4878 9.03712C13.4878 10.0046 14.272 10.7888 15.2395 10.7888C15.9205 10.7888 16.5107 10.4002 16.8006 9.8327Z" fill="#35353A"/>
<circle cx="22.2127" cy="9.03298" r="1.75173" fill="#35353A"/>
</svg>
