<svg width="171" height="38" viewBox="0 0 171 38" fill="none" xmlns="http://www.w3.org/2000/svg">
<path d="M63.8739 17.8092C63.8739 14.9286 62.6381 13.4882 60.1666 13.4882C58.9169 13.4867 57.7073 13.9287 56.753 14.7356C56.2784 15.0977 55.8801 15.5501 55.581 16.0667C55.2819 16.5833 55.0879 17.154 55.0102 17.7458V28.1882H51.4785V2.75781H55.0102L54.9871 11.9471L54.6271 14.3438L55.0217 14.4821L56.2114 12.359C56.7909 11.7065 57.4951 11.1766 58.2826 10.8006C59.0673 10.4017 59.9344 10.1915 60.8147 10.187C62.8504 10.187 64.4597 10.8716 65.6427 12.2409C66.8256 13.6102 67.4181 15.4663 67.42 17.8092V28.1795H63.8739V17.8092Z" fill="white"/>
<path d="M77.9083 28.4628C75.1487 28.4628 72.9882 27.6639 71.4269 26.0661C69.8656 24.4683 69.084 22.2099 69.082 19.2908C69.082 16.4889 69.8857 14.2564 71.4931 12.5933C73.1005 10.9302 75.213 10.0996 77.8306 10.1016C80.4174 10.1016 82.4809 10.9523 84.0211 12.6538C85.5613 14.3553 86.3294 16.5638 86.3256 19.2793C86.3256 19.9591 86.3256 20.4316 86.291 20.6937H72.752C72.9248 22.1782 73.4712 23.3362 74.3911 24.1678C75.3602 25.0195 76.6191 25.467 77.9083 25.418C80.0573 25.418 81.5514 24.5038 82.3906 22.6756L85.9598 23.2978C85.3497 24.8523 84.2638 26.1741 82.8573 27.0743C81.3794 28.0122 79.6584 28.495 77.9083 28.4628ZM72.7866 18.0493H82.7709C82.6096 16.5571 82.0862 15.3626 81.2009 14.4657C80.7638 14.0216 80.2394 13.6728 79.6609 13.4413C79.0823 13.2097 78.4621 13.1005 77.8392 13.1205C77.2152 13.1 76.5936 13.2073 76.0126 13.4356C75.4315 13.664 74.9033 14.0086 74.4602 14.4485C73.5768 15.3203 73.0189 16.5206 72.7866 18.0493Z" fill="white"/>
<path d="M88.2189 34.3234V31.0135H89.7715C90.1059 31.0303 90.4398 30.9718 90.7484 30.8421C91.0571 30.7125 91.3326 30.5151 91.5547 30.2645C92.0595 29.6271 92.437 28.8985 92.6666 28.1184L92.7011 27.9802L85.7012 10.5321H89.5814L93.718 21.9366L94.1847 24.3333H94.5995L95.0287 21.9366L99.1855 10.5234H103.095L95.9764 28.1876C95.4972 29.4718 94.9333 30.7228 94.2884 31.9324C93.7244 32.9424 92.7976 33.7003 91.6958 34.0526C90.9782 34.2552 90.2348 34.3522 89.4892 34.3406L88.2189 34.3234Z" fill="white"/>
<path d="M111.012 28.4618C108.621 28.4618 106.707 27.6601 105.271 26.0565C103.834 24.4529 103.122 22.255 103.133 19.4627C103.11 16.6262 103.843 14.3563 105.331 12.6528C106.82 10.9494 108.828 10.0987 111.358 10.1006C112.92 10.0627 114.437 10.6245 115.598 11.6705L116.92 13.7043L117.297 13.566L116.799 11.1693V2.75781H120.334V28.1882H117.741L117.344 25.0828H116.978C115.691 27.3355 113.702 28.4618 111.012 28.4618ZM106.737 19.4627C106.737 21.2929 107.187 22.7207 108.088 23.7462C108.989 24.7717 110.222 25.2864 111.787 25.2902C113.363 25.2902 114.591 24.7621 115.468 23.7059C116.346 22.6497 116.786 21.1776 116.788 19.2899C116.788 17.4174 116.345 15.955 115.46 14.9026C114.574 13.8502 113.35 13.325 111.787 13.3269C111.085 13.3004 110.386 13.4385 109.747 13.7301C109.108 14.0217 108.546 14.4587 108.105 15.0063C107.193 16.1279 106.737 17.6133 106.737 19.4627Z" fill="white"/>
<path d="M131.204 28.4628C128.445 28.4628 126.283 27.6639 124.72 26.0661C123.157 24.4683 122.375 22.2099 122.375 19.2908C122.375 16.4889 123.18 14.2564 124.789 12.5933C126.398 10.9302 128.511 10.0996 131.126 10.1016C133.709 10.1016 135.772 10.9523 137.314 12.6538C138.856 14.3553 139.624 16.5638 139.619 19.2793C139.619 19.9591 139.619 20.4316 139.584 20.6937H126.045C126.218 22.1782 126.764 23.3362 127.684 24.1678C128.653 25.0195 129.912 25.467 131.201 25.418C133.35 25.418 134.844 24.5038 135.684 22.6756L139.253 23.2978C138.643 24.8531 137.555 26.1752 136.147 27.0743C134.671 28.0111 132.952 28.4939 131.204 28.4628ZM126.082 18.0493H136.064C135.903 16.5571 135.38 15.3626 134.497 14.4657C134.059 14.022 133.535 13.6735 132.956 13.442C132.378 13.2105 131.758 13.101 131.135 13.1205C130.511 13.1 129.889 13.2073 129.308 13.4356C128.727 13.664 128.199 14.0086 127.756 14.4485C126.871 15.3203 126.313 16.5206 126.082 18.0493Z" fill="white"/>
<path d="M144.864 28.1867L138.996 10.5312H142.876L146.304 21.616L146.768 24.0127H147.183L147.615 21.616L151.072 10.5312H154.949L149.099 28.1867H144.864Z" fill="white"/>
<path d="M163.083 28.4274C160.496 28.4274 158.539 27.8907 157.212 26.8171C155.885 25.7436 155.158 24.189 155.031 22.1534L158.566 21.946C158.748 24.2217 160.414 25.3595 163.564 25.3595C164.76 25.3595 165.715 25.1329 166.427 24.6797C166.752 24.4995 167.022 24.2355 167.21 23.9153C167.398 23.5951 167.497 23.2304 167.496 22.8591C167.496 22.1822 167.093 21.6521 166.289 21.2748C165.485 20.8974 164.134 20.5949 162.239 20.376C159.825 20.1148 158.06 19.5752 156.944 18.7571C155.828 17.939 155.271 16.7867 155.273 15.3003C155.273 13.8965 155.922 12.6808 157.221 11.6534C158.519 10.626 160.294 10.1113 162.547 10.1094C165.018 10.1094 166.886 10.6212 168.15 11.6448C169.413 12.6683 170.172 14.2662 170.425 16.4382L166.969 16.6801C166.888 15.405 166.468 14.5052 165.71 13.981C164.951 13.4567 163.754 13.1926 162.118 13.1888C161.049 13.1888 160.211 13.3674 159.609 13.7217C159.336 13.8578 159.108 14.0671 158.948 14.3261C158.788 14.5852 158.704 14.8836 158.704 15.188C158.694 15.5097 158.781 15.827 158.953 16.099C159.125 16.3711 159.374 16.5855 159.669 16.7147C160.312 17.0393 161.599 17.3273 163.529 17.5789C166.218 17.9246 168.111 18.4786 169.21 19.241C170.308 20.0034 170.863 21.2133 170.875 22.8706C170.887 23.6455 170.716 24.4122 170.374 25.1077C170.033 25.8033 169.531 26.4079 168.91 26.8719C167.6 27.9108 165.658 28.4293 163.083 28.4274Z" fill="white"/>
<path d="M15.1504 18.0078H33.1915V23.6692C33.2062 24.4749 33.0171 25.2723 32.6397 25.996C32.2918 26.6584 31.7513 27.2148 31.0808 27.601C30.3489 27.9976 29.5132 28.1937 28.6686 28.1672H28.3882C27.54 28.1874 26.7032 27.9802 25.9759 27.5699C25.3055 27.1786 24.7654 26.6186 24.417 25.9536C24.0462 25.2391 23.8602 24.4525 23.8743 23.6579V20.2044H15.1504V18.0078ZM25.985 20.2044V23.4342C25.9489 24.1046 26.18 24.7636 26.6333 25.2827C26.8564 25.514 27.1315 25.696 27.4386 25.8154C27.7457 25.9348 28.0772 25.9888 28.4093 25.9734H28.6264C28.9612 25.9901 29.2959 25.9369 29.6062 25.8174C29.9164 25.698 30.1946 25.5153 30.4205 25.2827C30.8761 24.7647 31.1085 24.1052 31.0718 23.4342V20.2044H25.985Z" fill="white"/>
<path d="M33.4922 37.1023V34.1183H38.5579C39.129 34.1183 39.3717 33.8327 39.3717 33.1931V21.8082C39.3355 20.9698 39.6135 20.148 40.1512 19.5038C40.4299 19.206 40.7703 18.973 41.1488 18.821C41.5272 18.669 41.9343 18.6019 42.3414 18.6243H42.41V18.5015H42.3471C41.9388 18.523 41.5307 18.4541 41.1521 18.2996C40.7734 18.1451 40.4336 17.9088 40.157 17.6077C39.618 16.9641 39.3398 16.1419 39.3774 15.3033V3.9098C39.3774 3.27016 39.1261 2.98461 38.5636 2.98461H34.1165V0.00059725H39.5316C39.9438 -0.00757576 40.3533 0.0682083 40.7352 0.223336C41.1171 0.378463 41.4635 0.609689 41.7532 0.90294C42.0485 1.1981 42.2806 1.55037 42.4353 1.93823C42.5899 2.32608 42.6639 2.74139 42.6527 3.1588V15.2548C42.6527 16.397 43.2238 16.9281 44.4774 16.9281H47.904V20.1748H44.4774C43.2323 20.1748 42.6527 20.7059 42.6527 21.8453V33.9441C42.6639 34.3615 42.5899 34.7768 42.4353 35.1647C42.2806 35.5525 42.0485 35.9048 41.7532 36.2C41.4635 36.4932 41.1171 36.7244 40.7352 36.8796C40.3533 37.0347 39.9438 37.1105 39.5316 37.1023H33.4922Z" fill="white"/>
<path d="M14.8633 37.1023V34.1183H9.79759C9.22649 34.1183 8.98378 33.8327 8.98378 33.1931V21.8082C9.01995 20.9698 8.74197 20.148 8.20422 19.5038C7.92561 19.206 7.58512 18.973 7.20672 18.821C6.82831 18.669 6.4212 18.6019 6.01404 18.6243H5.94551V18.5015H6.00833C6.41669 18.523 6.82478 18.4541 7.2034 18.2996C7.58203 18.1451 7.92183 17.9088 8.19851 17.6077C8.73748 16.9641 9.01563 16.1419 8.97806 15.3033V3.9098C8.97806 3.27016 9.22935 2.98461 9.79189 2.98461H14.2389V0.00059725H8.82386C8.41171 -0.00757576 8.00222 0.0682083 7.62029 0.223336C7.23836 0.378463 6.89199 0.609689 6.60227 0.90294C6.30693 1.1981 6.07484 1.55037 5.92019 1.93823C5.76554 2.32608 5.69157 2.74139 5.70279 3.1588V15.2548C5.70279 16.397 5.13169 16.9281 3.87812 16.9281H0.4515V20.1748H3.87812C5.12312 20.1748 5.70279 20.7059 5.70279 21.8453V33.9441C5.69157 34.3615 5.76554 34.7768 5.92019 35.1647C6.07484 35.5525 6.30693 35.9048 6.60227 36.2C6.89199 36.4932 7.23836 36.7244 7.62029 36.8796C8.00222 37.0347 8.41171 37.1105 8.82386 37.1023H14.8633Z" fill="white"/>
<path fill-rule="evenodd" clip-rule="evenodd" d="M23.2498 12.8319C23.2512 12.753 23.2486 12.674 23.2418 12.595C23.2136 12.2652 23.1141 11.9443 22.9493 11.6518C22.7845 11.3593 22.5579 11.1014 22.2834 10.8938C21.5839 10.3953 20.7214 10.1411 19.844 10.1749C18.4489 10.1761 17.1023 10.6552 16.0568 11.5223C15.0511 12.3626 14.4326 13.537 14.332 14.7974H16.298C16.3838 14.2506 16.6446 13.7412 17.0458 13.3367C17.3773 13.0048 17.8002 12.7681 18.2654 12.6515C18.2588 12.7256 18.2554 12.8006 18.2554 12.8765C18.2554 14.2558 19.3735 15.3739 20.7528 15.3739C22.132 15.3739 23.2502 14.2558 23.2502 12.8765C23.2502 12.8616 23.25 12.8467 23.2498 12.8319Z" fill="white"/>
<circle cx="30.6947" cy="12.8802" r="2.4974" fill="white"/>
</svg>
